<svg width="101" height="101" viewBox="0 0 101 101" fill="none" xmlns="http://www.w3.org/2000/svg">
<path d="M46.5739 56L51.336 46.5824V46.5025H45.8281V45.0909H53.0405V46.5504L48.2944 56H46.5739Z" fill="#1F2F4C"/>
<path d="M24.4993 81.1491C23.8317 81.1491 23.2316 81.0213 22.6989 80.7656C22.1698 80.5064 21.7472 80.1513 21.4312 79.7003C21.1151 79.2493 20.9464 78.7344 20.9251 78.1555H22.5231C22.5622 78.6243 22.7699 79.0096 23.1464 79.3114C23.5228 79.6133 23.9738 79.7642 24.4993 79.7642C24.9184 79.7642 25.2895 79.6683 25.6126 79.4766C25.9393 79.2812 26.195 79.0131 26.3797 78.6722C26.5679 78.3313 26.662 77.9425 26.662 77.5057C26.662 77.0618 26.5661 76.6658 26.3743 76.3178C26.1826 75.9698 25.918 75.6964 25.5807 75.4975C25.2468 75.2987 24.8633 75.1974 24.4301 75.1939C24.0998 75.1939 23.7678 75.2507 23.434 75.3643C23.1002 75.478 22.8303 75.6271 22.6243 75.8118L21.1169 75.5881L21.7294 70.0909H27.7273V71.5025H23.0984L22.7522 74.5547H22.8161C23.0292 74.3487 23.3115 74.1765 23.663 74.038C24.0182 73.8995 24.3981 73.8303 24.803 73.8303C25.467 73.8303 26.0583 73.9883 26.5767 74.3043C27.0988 74.6204 27.5089 75.0518 27.8072 75.5987C28.1091 76.142 28.2582 76.767 28.2547 77.4737C28.2582 78.1804 28.0984 78.8107 27.7753 79.3647C27.4557 79.9187 27.0118 80.3555 26.4436 80.6751C25.879 80.9911 25.2309 81.1491 24.4993 81.1491Z" fill="#1F2F4C"/>
<path d="M70.95 81V79.8068L74.6414 75.9822C75.0356 75.5668 75.3605 75.2028 75.6162 74.8903C75.8754 74.5742 76.069 74.2741 76.1968 73.9901C76.3246 73.706 76.3886 73.4041 76.3886 73.0845C76.3886 72.7223 76.3033 72.4098 76.1329 72.147C75.9624 71.8807 75.7298 71.6765 75.4351 71.5344C75.1403 71.3888 74.8083 71.3161 74.439 71.3161C74.0484 71.3161 73.7075 71.396 73.4163 71.5558C73.1251 71.7156 72.9013 71.9411 72.7451 72.2322C72.5888 72.5234 72.5107 72.8643 72.5107 73.255H70.9393C70.9393 72.5909 71.092 72.0103 71.3974 71.5131C71.7028 71.016 72.1219 70.6307 72.6545 70.3572C73.1872 70.0803 73.7927 69.9418 74.4709 69.9418C75.1563 69.9418 75.76 70.0785 76.282 70.3519C76.8076 70.6218 77.2178 70.9911 77.5125 71.4599C77.8072 71.9251 77.9546 72.4506 77.9546 73.0366C77.9546 73.4414 77.8783 73.8374 77.7256 74.2244C77.5764 74.6115 77.3154 75.043 76.9425 75.5188C76.5697 75.9911 76.0512 76.5646 75.3871 77.2393L73.2192 79.5085V79.5884H78.1304V81H70.95Z" fill="#1F2F4C"/>
<path d="M49.409 19.9418C49.8955 19.9453 50.3749 20.0341 50.8472 20.2081C51.3195 20.3821 51.7457 20.6662 52.1256 21.0604C52.5092 21.4545 52.8146 21.9872 53.0418 22.6584C53.2727 23.326 53.3898 24.157 53.3934 25.1513C53.3934 26.1065 53.2975 26.957 53.1058 27.7028C52.914 28.445 52.6388 29.0717 52.2801 29.5831C51.925 30.0945 51.4935 30.4833 50.9857 30.7496C50.4779 31.016 49.9062 31.1491 49.2705 31.1491C48.6207 31.1491 48.0436 31.0213 47.5394 30.7656C47.0351 30.5099 46.6249 30.1566 46.3089 29.7056C45.9928 29.2511 45.7957 28.729 45.7176 28.1396H47.3423C47.4488 28.6083 47.6654 28.9883 47.9921 29.2795C48.3224 29.5671 48.7485 29.7109 49.2705 29.7109C50.0695 29.7109 50.6928 29.3629 51.1402 28.6669C51.5876 27.9673 51.8131 26.9908 51.8167 25.7372H51.7315C51.5468 26.0426 51.316 26.3054 51.039 26.5256C50.7656 26.7457 50.4584 26.9162 50.1175 27.0369C49.7766 27.1577 49.4126 27.218 49.0255 27.218C48.397 27.218 47.8252 27.0636 47.3103 26.7546C46.7954 26.4457 46.3852 26.0213 46.0798 25.4815C45.7744 24.9418 45.6217 24.3256 45.6217 23.6332C45.6217 22.9442 45.778 22.3192 46.0905 21.7582C46.4065 21.1971 46.8469 20.7532 47.4115 20.4265C47.9797 20.0962 48.6455 19.9347 49.409 19.9418ZM49.4144 21.3267C48.9989 21.3267 48.6242 21.4297 48.2904 21.6357C47.9602 21.8381 47.6992 22.1133 47.5074 22.4613C47.3156 22.8058 47.2197 23.1893 47.2197 23.6119C47.2197 24.0344 47.3121 24.418 47.4967 24.7624C47.6849 25.1033 47.9406 25.375 48.2638 25.5774C48.5905 25.7763 48.9634 25.8757 49.3824 25.8757C49.6949 25.8757 49.9861 25.8153 50.256 25.6946C50.5259 25.5739 50.762 25.407 50.9644 25.1939C51.1668 24.9773 51.3249 24.7322 51.4385 24.4588C51.5521 24.1854 51.609 23.8977 51.609 23.5959C51.609 23.1946 51.5131 22.8217 51.3213 22.4773C51.1331 22.1328 50.8739 21.8558 50.5436 21.6463C50.2134 21.4332 49.8369 21.3267 49.4144 21.3267Z" fill="#1F2F4C"/>
<path d="M76.1435 45.0909V56H74.4923V46.7422H74.4283L71.8182 48.4467V46.87L74.5402 45.0909H76.1435Z" fill="#1F2F4C"/>
<rect x="0.500244" y="0.501099" width="99" height="98.9996" rx="9.5" stroke="#1F2F4C"/>
<path d="M100.001 13.0011L0.000427067 13.0011" stroke="#1F2F4C" stroke-width="0.5"/>
<circle cx="12.0002" cy="88" r="4.75" stroke="#1F2F4C" stroke-width="0.5"/>
<path d="M13.7762 87.8679C13.7762 88.2562 13.7051 88.59 13.5631 88.8693C13.4211 89.1475 13.2263 89.3617 12.9789 89.5121C12.7327 89.6612 12.4528 89.7358 12.1391 89.7358C11.8242 89.7358 11.5431 89.6612 11.2957 89.5121C11.0495 89.3617 10.8554 89.1469 10.7133 88.8675C10.5713 88.5882 10.5002 88.255 10.5002 87.8679C10.5002 87.4796 10.5713 87.1464 10.7133 86.8683C10.8554 86.5889 11.0495 86.3746 11.2957 86.2255C11.5431 86.0752 11.8242 86 12.1391 86C12.4528 86 12.7327 86.0752 12.9789 86.2255C13.2263 86.3746 13.4211 86.5889 13.5631 86.8683C13.7051 87.1464 13.7762 87.4796 13.7762 87.8679ZM13.2328 87.8679C13.2328 87.572 13.1849 87.3228 13.089 87.1204C12.9943 86.9168 12.8641 86.7629 12.6984 86.6587C12.5339 86.5534 12.3474 86.5007 12.1391 86.5007C11.9296 86.5007 11.7426 86.5534 11.578 86.6587C11.4135 86.7629 11.2833 86.9168 11.1874 87.1204C11.0927 87.3228 11.0453 87.572 11.0453 87.8679C11.0453 88.1638 11.0927 88.4136 11.1874 88.6172C11.2833 88.8196 11.4135 88.9735 11.578 89.0788C11.7426 89.183 11.9296 89.2351 12.1391 89.2351C12.3474 89.2351 12.5339 89.183 12.6984 89.0788C12.8641 88.9735 12.9943 88.8196 13.089 88.6172C13.1849 88.4136 13.2328 88.1638 13.2328 87.8679Z" fill="#1F2F4C"/>
<circle cx="62.0002" cy="38" r="4.75" stroke="#1F2F4C" stroke-width="0.5"/>
<circle cx="37.0002" cy="38" r="4.75" stroke="#1F2F4C" stroke-width="0.5"/>
<circle cx="37.0002" cy="64" r="4.75" stroke="#1F2F4C" stroke-width="0.5"/>
<circle cx="37.0002" cy="88" r="4.75" stroke="#1F2F4C" stroke-width="0.5"/>
<circle cx="62.0002" cy="63" r="4.75" stroke="#1F2F4C" stroke-width="0.5"/>
<circle cx="87.0002" cy="63" r="4.75" stroke="#1F2F4C" stroke-width="0.5"/>
<circle cx="12.0002" cy="38" r="4.75" stroke="#1F2F4C" stroke-width="0.5"/>
<path d="M63.7762 37.8679C63.7762 38.2562 63.7051 38.59 63.5631 38.8693C63.4211 39.1475 63.2263 39.3617 62.9789 39.5121C62.7327 39.6612 62.4528 39.7358 62.1391 39.7358C61.8242 39.7358 61.5431 39.6612 61.2957 39.5121C61.0495 39.3617 60.8554 39.1469 60.7133 38.8675C60.5713 38.5882 60.5002 38.255 60.5002 37.8679C60.5002 37.4796 60.5713 37.1464 60.7133 36.8683C60.8554 36.5889 61.0495 36.3746 61.2957 36.2255C61.5431 36.0752 61.8242 36 62.1391 36C62.4528 36 62.7327 36.0752 62.9789 36.2255C63.2263 36.3746 63.4211 36.5889 63.5631 36.8683C63.7051 37.1464 63.7762 37.4796 63.7762 37.8679ZM63.2328 37.8679C63.2328 37.572 63.1849 37.3228 63.089 37.1204C62.9943 36.9168 62.8641 36.7629 62.6984 36.6587C62.5339 36.5534 62.3474 36.5007 62.1391 36.5007C61.9296 36.5007 61.7426 36.5534 61.578 36.6587C61.4135 36.7629 61.2833 36.9168 61.1874 37.1204C61.0927 37.3228 61.0453 37.572 61.0453 37.8679C61.0453 38.1638 61.0927 38.4136 61.1874 38.6172C61.2833 38.8196 61.4135 38.9735 61.578 39.0788C61.7426 39.183 61.9296 39.2351 62.1391 39.2351C62.3474 39.2351 62.5339 39.183 62.6984 39.0788C62.8641 38.9735 62.9943 38.8196 63.089 38.6172C63.1849 38.4136 63.2328 38.1638 63.2328 37.8679Z" fill="#1F2F4C"/>
<path d="M35.2627 86.0001C35.4248 86.0013 35.5846 86.0309 35.7421 86.0889C35.8995 86.1469 36.0416 86.2416 36.1682 86.3729C36.2961 86.5043 36.3979 86.6819 36.4736 86.9056C36.5506 87.1282 36.5896 87.4051 36.5908 87.7366C36.5908 88.055 36.5588 88.3385 36.4949 88.5871C36.431 88.8345 36.3393 89.0434 36.2197 89.2139C36.1013 89.3843 35.9575 89.5139 35.7882 89.6027C35.619 89.6915 35.4284 89.7359 35.2165 89.7359C34.9999 89.7359 34.8075 89.6933 34.6394 89.608C34.4714 89.5228 34.3346 89.405 34.2293 89.2547C34.1239 89.1032 34.0582 88.9292 34.0322 88.7327H34.5738C34.6093 88.8889 34.6815 89.0156 34.7904 89.1126C34.9005 89.2085 35.0425 89.2565 35.2165 89.2565C35.4828 89.2565 35.6906 89.1405 35.8397 88.9085C35.9889 88.6753 36.064 88.3497 36.0652 87.9319H36.0368C35.9753 88.0337 35.8983 88.1213 35.806 88.1947C35.7149 88.2681 35.6125 88.3249 35.4988 88.3651C35.3852 88.4054 35.2639 88.4255 35.1348 88.4255C34.9253 88.4255 34.7347 88.374 34.5631 88.271C34.3915 88.168 34.2547 88.0266 34.1529 87.8467C34.0511 87.6667 34.0002 87.4614 34.0002 87.2305C34.0002 87.0009 34.0523 86.7926 34.1565 86.6055C34.2618 86.4185 34.4086 86.2706 34.5968 86.1617C34.7862 86.0516 35.0082 85.9977 35.2627 86.0001ZM35.2644 86.4617C35.126 86.4617 35.0011 86.4961 34.8898 86.5647C34.7797 86.6322 34.6927 86.7239 34.6288 86.8399C34.5649 86.9547 34.5329 87.0826 34.5329 87.2234C34.5329 87.3643 34.5637 87.4921 34.6252 87.607C34.688 87.7206 34.7732 87.8112 34.8809 87.8786C34.9898 87.9449 35.1141 87.9781 35.2538 87.9781C35.358 87.9781 35.455 87.9579 35.545 87.9177C35.635 87.8774 35.7137 87.8218 35.7811 87.7508C35.8486 87.6786 35.9013 87.5969 35.9392 87.5058C35.977 87.4146 35.996 87.3187 35.996 87.2181C35.996 87.0844 35.964 86.9601 35.9001 86.8452C35.8374 86.7304 35.751 86.6381 35.6409 86.5683C35.5308 86.4972 35.4053 86.4617 35.2644 86.4617Z" fill="#1F2F4C"/>
<path d="M38.3082 89.0754V86.6748H38.7858V89.0754H38.3082ZM37.3476 88.113V87.6371H39.7482V88.113H37.3476Z" fill="#1F2F4C"/>
<path d="M84.0002 63.9261V63.4822L85.5716 61H85.9214V61.6534H85.6995L84.5755 63.4325V63.4609H86.7293V63.9261H84.0002ZM85.7243 64.6364V63.7912L85.7279 63.5888V61H86.2481V64.6364H85.7243Z" fill="#1F2F4C"/>
<path d="M88.1098 63.0455L88.1435 62.2962L87.5114 62.7028L87.3179 62.3654L87.9891 62.0227L87.3179 61.68L87.5114 61.3427L88.1435 61.7493L88.1098 61H88.4951L88.4614 61.7493L89.0935 61.3427L89.287 61.68L88.6158 62.0227L89.287 62.3654L89.0935 62.7028L88.4614 62.2962L88.4951 63.0455H88.1098Z" fill="#1F2F4C"/>
<path d="M61.1917 64.6861C60.9691 64.6861 60.7691 64.6435 60.5915 64.5582C60.4151 64.4718 60.2743 64.3535 60.1689 64.2031C60.0636 64.0528 60.0073 63.8812 60.0002 63.6882H60.5329C60.5459 63.8445 60.6152 63.9729 60.7407 64.0735C60.8661 64.1741 61.0165 64.2244 61.1917 64.2244C61.3313 64.2244 61.455 64.1925 61.5627 64.1286C61.6716 64.0634 61.7569 63.9741 61.8184 63.8604C61.8812 63.7468 61.9125 63.6172 61.9125 63.4716C61.9125 63.3236 61.8806 63.1916 61.8167 63.0756C61.7527 62.9596 61.6645 62.8685 61.5521 62.8022C61.4408 62.7359 61.313 62.7022 61.1686 62.701C61.0585 62.701 60.9478 62.7199 60.8365 62.7578C60.7253 62.7957 60.6353 62.8454 60.5667 62.907L60.0642 62.8324L60.2684 61H62.2676V61.4705H60.7247L60.6093 62.4879H60.6306C60.7016 62.4193 60.7957 62.3619 60.9129 62.3157C61.0313 62.2695 61.1579 62.2464 61.2929 62.2464C61.5142 62.2464 61.7113 62.2991 61.8841 62.4045C62.0581 62.5098 62.1948 62.6536 62.2943 62.8359C62.3949 63.017 62.4446 63.2254 62.4434 63.4609C62.4446 63.6965 62.3913 63.9066 62.2836 64.0913C62.1771 64.2759 62.0291 64.4215 61.8397 64.5281C61.6515 64.6334 61.4355 64.6861 61.1917 64.6861Z" fill="#1F2F4C"/>
<path d="M64.7059 62.5874V63.049H63.0937V62.5874H64.7059Z" fill="#1F2F4C"/>
<path d="M35.0038 65.6861V65.2884L36.2343 64.0135C36.3657 63.875 36.474 63.7537 36.5592 63.6495C36.6456 63.5442 36.7101 63.4441 36.7527 63.3494C36.7953 63.2547 36.8167 63.1541 36.8167 63.0476C36.8167 62.9268 36.7882 62.8227 36.7314 62.7351C36.6746 62.6463 36.5971 62.5782 36.4988 62.5309C36.4006 62.4824 36.2899 62.4581 36.1668 62.4581C36.0366 62.4581 35.9229 62.4847 35.8259 62.538C35.7288 62.5913 35.6542 62.6664 35.6022 62.7635C35.5501 62.8606 35.524 62.9742 35.524 63.1044H35.0002C35.0002 62.883 35.0511 62.6895 35.1529 62.5238C35.2547 62.3581 35.3944 62.2296 35.572 62.1385C35.7495 62.0462 35.9514 62 36.1774 62C36.4059 62 36.6071 62.0456 36.7811 62.1367C36.9563 62.2267 37.093 62.3498 37.1913 62.506C37.2895 62.6611 37.3387 62.8363 37.3387 63.0316C37.3387 63.1665 37.3132 63.2985 37.2623 63.4276C37.2126 63.5566 37.1256 63.7004 37.0013 63.859C36.877 64.0165 36.7042 64.2076 36.4828 64.4325L35.7602 65.1889V65.2156H37.3973V65.6861H35.0038Z" fill="#1F2F4C"/>
<path d="M39.6842 63.6371V64.0987H38.072V63.6371H39.6842Z" fill="#1F2F4C"/>
<path d="M34.442 36.0497V39.6861H33.8916V36.6001H33.8703L33.0002 37.1683V36.6428L33.9076 36.0497H34.442Z" fill="#1F2F4C"/>
<path d="M36.6917 39.7358C36.4478 39.7358 36.23 39.6938 36.0382 39.6097C35.8477 39.5257 35.6967 39.4091 35.5855 39.2599C35.4754 39.1096 35.4162 38.9356 35.4079 38.7379H35.9654C35.9725 38.8456 36.0086 38.9392 36.0738 39.0185C36.14 39.0966 36.2265 39.157 36.333 39.1996C36.4395 39.2422 36.5579 39.2635 36.6881 39.2635C36.8313 39.2635 36.958 39.2386 37.0681 39.1889C37.1793 39.1392 37.2663 39.07 37.3291 38.9812C37.3918 38.8912 37.4232 38.7876 37.4232 38.6705C37.4232 38.5485 37.3918 38.4414 37.3291 38.3491C37.2675 38.2556 37.177 38.1822 37.0574 38.1289C36.939 38.0756 36.7958 38.049 36.6277 38.049H36.3206V37.6016H36.6277C36.7627 37.6016 36.881 37.5773 36.9828 37.5288C37.0858 37.4802 37.1663 37.4128 37.2243 37.3263C37.2823 37.2388 37.3113 37.1364 37.3113 37.0192C37.3113 36.9067 37.2859 36.8091 37.235 36.7262C37.1853 36.6422 37.1142 36.5765 37.0219 36.5291C36.9308 36.4818 36.823 36.4581 36.6988 36.4581C36.5804 36.4581 36.4697 36.48 36.3667 36.5238C36.2649 36.5664 36.1821 36.628 36.1181 36.7085C36.0542 36.7878 36.0199 36.883 36.0152 36.9943H35.4843C35.4902 36.7978 35.5482 36.625 35.6583 36.4759C35.7695 36.3267 35.9163 36.2101 36.0986 36.1261C36.2809 36.042 36.4833 36 36.7059 36C36.939 36 37.1403 36.0456 37.3095 36.1367C37.48 36.2267 37.6114 36.3468 37.7037 36.4972C37.7972 36.6475 37.8434 36.812 37.8422 36.9908C37.8434 37.1944 37.7866 37.3672 37.6718 37.5092C37.5581 37.6513 37.4066 37.7466 37.2172 37.7951V37.8235C37.4587 37.8602 37.6457 37.9561 37.7783 38.1112C37.9121 38.2662 37.9783 38.4586 37.9772 38.6882C37.9783 38.8883 37.9227 39.0676 37.8103 39.2262C37.699 39.3848 37.5469 39.5097 37.3539 39.6009C37.161 39.6908 36.9402 39.7358 36.6917 39.7358Z" fill="#1F2F4C"/>
<path d="M39.7243 39.0753V36.6747H40.2019V39.0753H39.7243ZM38.7637 38.1129V37.6371H41.1643V38.1129H38.7637Z" fill="#1F2F4C"/>
<path d="M10.0038 39.6861V39.2884L11.2343 38.0135C11.3657 37.875 11.474 37.7537 11.5592 37.6495C11.6456 37.5442 11.7101 37.4441 11.7527 37.3494C11.7953 37.2547 11.8167 37.1541 11.8167 37.0476C11.8167 36.9268 11.7882 36.8227 11.7314 36.7351C11.6746 36.6463 11.5971 36.5782 11.4988 36.5309C11.4006 36.4824 11.2899 36.4581 11.1668 36.4581C11.0366 36.4581 10.9229 36.4847 10.8259 36.538C10.7288 36.5913 10.6542 36.6664 10.6022 36.7635C10.5501 36.8606 10.524 36.9742 10.524 37.1044H10.0002C10.0002 36.883 10.0511 36.6895 10.1529 36.5238C10.2547 36.3581 10.3944 36.2296 10.572 36.1385C10.7495 36.0462 10.9514 36 11.1774 36C11.4059 36 11.6071 36.0456 11.7811 36.1367C11.9563 36.2267 12.093 36.3498 12.1913 36.506C12.2895 36.6611 12.3387 36.8363 12.3387 37.0316C12.3387 37.1665 12.3132 37.2985 12.2623 37.4276C12.2126 37.5566 12.1256 37.7004 12.0013 37.859C11.877 38.0165 11.7042 38.2076 11.4828 38.4325L10.7602 39.1889V39.2156H12.3973V39.6861H10.0038Z" fill="#1F2F4C"/>
<path d="M14.6842 37.6371V38.0987H13.072V37.6371H14.6842Z" fill="#1F2F4C"/>
<path fill-rule="evenodd" clip-rule="evenodd" d="M26.8628 100H23.4002V99.7464H24.3218C24.7266 99.7464 25.0817 99.6737 25.3871 99.5281C25.6961 99.3825 25.9375 99.18 26.1115 98.9208C26.2855 98.658 26.3726 98.3509 26.3726 97.9993C26.3726 97.6619 26.2962 97.369 26.1435 97.1204C25.9944 96.8683 25.7813 96.6712 25.5043 96.5291C25.2309 96.3871 24.9077 96.3161 24.5348 96.3161C24.1797 96.3161 23.8477 96.3817 23.5387 96.5131C23.2333 96.641 22.9848 96.8256 22.793 97.0671C22.6012 97.305 22.4983 97.5909 22.4841 97.9247H20.8914C20.9091 97.3352 21.0831 96.8168 21.4134 96.3693C21.7472 95.9219 22.1875 95.5721 22.7344 95.32C23.2813 95.0678 23.8885 94.9418 24.5561 94.9418C25.2557 94.9418 25.8594 95.0785 26.3672 95.3519C26.8786 95.6218 27.2728 95.9822 27.5498 96.4332C27.8303 96.8842 27.9688 97.3778 27.9652 97.9141C27.9688 98.5249 27.7983 99.0433 27.4539 99.4695C27.2848 99.6808 27.0878 99.8577 26.8628 100Z" fill="#1F2F4C"/>
<path fill-rule="evenodd" clip-rule="evenodd" d="M75.8472 95.2081C75.3749 95.0341 74.8955 94.9453 74.409 94.9418C73.6455 94.9347 72.9797 95.0962 72.4115 95.4265C71.8468 95.7532 71.4065 96.1971 71.0905 96.7582C70.778 97.3193 70.6217 97.9443 70.6217 98.6332C70.6217 99.1277 70.6996 99.5833 70.8554 100H72.6468C72.5927 99.925 72.5427 99.8458 72.4967 99.7624C72.312 99.418 72.2197 99.0345 72.2197 98.6119C72.2197 98.1893 72.3156 97.8058 72.5074 97.4613C72.6991 97.1133 72.9601 96.8381 73.2904 96.6357C73.6242 96.4297 73.9988 96.3267 74.4143 96.3267C74.8369 96.3267 75.2133 96.4332 75.5436 96.6463C75.8738 96.8558 76.1331 97.1328 76.3213 97.4773C76.513 97.8217 76.6089 98.1946 76.6089 98.5959C76.6089 98.8977 76.5521 99.1854 76.4385 99.4588C76.3575 99.6536 76.254 99.834 76.128 100H78.3919C78.3775 99.0724 78.2608 98.2919 78.0418 97.6584C77.8145 96.9872 77.5091 96.4546 77.1256 96.0604C76.7456 95.6662 76.3195 95.3821 75.8472 95.2081Z" fill="#1F2F4C"/>
<path fill-rule="evenodd" clip-rule="evenodd" d="M0.000244141 31H3.13039V29.5884H0.000244141V31ZM0.000244141 27.6443L0.387141 27.2393C1.0512 26.5646 1.56967 25.9911 1.94254 25.5188C2.31541 25.043 2.57642 24.6115 2.72556 24.2244C2.87826 23.8374 2.95461 23.4414 2.95461 23.0366C2.95461 22.4506 2.80724 21.9251 2.5125 21.4599C2.21775 20.9911 1.8076 20.6218 1.28203 20.3519C0.898788 20.1512 0.471527 20.0241 0.000244141 19.9707V21.3787C0.153234 21.4149 0.29818 21.4668 0.435081 21.5344C0.729825 21.6765 0.962425 21.8807 1.13288 22.147C1.30333 22.4098 1.38856 22.7223 1.38856 23.0845C1.38856 23.4041 1.32464 23.706 1.1968 23.9901C1.06896 24.2741 0.875422 24.5742 0.616189 24.8903C0.442741 25.1023 0.237426 25.3379 0.000244141 25.5973V27.6443Z" fill="#1F2F4C"/>
<path d="M24.177 27.8232C24.0794 27.7256 23.9211 27.7256 23.8235 27.8232L22.2325 29.4142C22.1348 29.5118 22.1348 29.6701 22.2325 29.7678C22.3301 29.8654 22.4884 29.8654 22.586 29.7678L24.0002 28.3536L25.4145 29.7678C25.5121 29.8654 25.6704 29.8654 25.768 29.7678C25.8656 29.6701 25.8656 29.5118 25.768 29.4142L24.177 27.8232ZM45.2213 49.6178C45.2858 49.4958 45.2392 49.3445 45.1171 49.28L43.128 48.2282C43.006 48.1637 42.8547 48.2103 42.7902 48.3324C42.7256 48.4545 42.7723 48.6057 42.8943 48.6703L44.6624 49.6051L43.7275 51.3732C43.663 51.4952 43.7096 51.6465 43.8317 51.7111C43.9537 51.7756 44.105 51.729 44.1695 51.6069L45.2213 49.6178ZM23.7502 28C23.7502 35.6966 26.7775 41.8328 30.9555 45.6964C35.1285 49.5556 40.4682 51.1596 45.0739 49.7399L44.9266 49.2621C40.5322 50.6167 35.3719 49.0996 31.295 45.3294C27.2229 41.5636 24.2502 35.5621 24.2502 28H23.7502Z" fill="#1F2F4C"/>
<path d="M43.177 25.1768C43.2747 25.0791 43.2747 24.9209 43.177 24.8232L41.586 23.2322C41.4884 23.1346 41.3301 23.1346 41.2325 23.2322C41.1348 23.3299 41.1348 23.4882 41.2325 23.5858L42.6467 25L41.2325 26.4142C41.1348 26.5118 41.1348 26.6701 41.2325 26.7678C41.3301 26.8654 41.4884 26.8654 41.586 26.7678L43.177 25.1768ZM25.2759 48.2119C25.393 48.2852 25.5472 48.2496 25.6205 48.1326L26.8139 46.2252C26.8871 46.1081 26.8516 45.9539 26.7345 45.8806C26.6175 45.8074 26.4632 45.8429 26.39 45.96L25.3292 47.6555L23.6337 46.5947C23.5166 46.5214 23.3624 46.557 23.2892 46.674C23.2159 46.7911 23.2514 46.9453 23.3685 47.0186L25.2759 48.2119ZM43.0002 24.75C36.6619 24.75 31.6251 28.0884 28.4658 32.6614C25.31 37.2296 24.0123 43.0506 25.1649 48.0561L25.6522 47.9439C24.5349 43.0921 25.7908 37.4132 28.8772 32.9456C31.9602 28.483 36.8541 25.25 43.0002 25.25V24.75Z" fill="#1F2F4C"/>
<path fill-rule="evenodd" clip-rule="evenodd" d="M87.0002 13H62.0002V33C64.7617 33 67.0002 35.2386 67.0002 38H87.0002V13Z" fill="#828387" fill-opacity="0.3"/>
<path fill-rule="evenodd" clip-rule="evenodd" d="M16.9941 88.2508C16.9982 88.1677 17.0002 88.0841 17.0002 88C17.0002 87.9164 16.9982 87.8334 16.9941 87.7508H32.0064C32.0024 87.8334 32.0003 87.9164 32.0003 88C32.0003 88.0841 32.0024 88.1677 32.0065 88.2508H16.9941ZM7.00642 88.2508H0.000972249L0 87.7508H7.00635C7.00229 87.8334 7.00024 87.9164 7.00024 88C7.00024 88.0841 7.00232 88.1677 7.00642 88.2508ZM42.0003 88C42.0003 88.0841 41.9982 88.1677 41.9941 88.2508H100.001L100 87.7508H41.9942C41.9982 87.8334 42.0003 87.9164 42.0003 88Z" fill="#1F2F4C"/>
<path fill-rule="evenodd" clip-rule="evenodd" d="M86.9202 67.9994L87.0002 100.002L87.5002 100L87.4202 67.9826C87.2817 67.9941 87.1417 68 87.0002 68C86.9735 68 86.9469 67.9998 86.9202 67.9994ZM86.8952 58.0011C86.9302 58.0004 86.9652 58 87.0002 58C87.1332 58 87.2649 58.0052 87.3953 58.0154L87.2502 -1.248e-05L86.7502 0.00220975L86.8952 58.0011Z" fill="#1F2F4C"/>
<path fill-rule="evenodd" clip-rule="evenodd" d="M61.8952 58.0011L61.8577 42.998C61.9051 42.9993 61.9526 43 62.0002 43C62.1204 43 62.2396 42.9958 62.3577 42.9874L62.3953 58.0154C62.2649 58.0052 62.1332 58 62.0002 58C61.9652 58 61.9302 58.0004 61.8952 58.0011ZM61.9202 67.9994L62.0002 100.002L62.5002 100L62.4202 67.9826C62.2817 67.9941 62.1417 68 62.0002 68C61.9735 68 61.9469 67.9998 61.9202 67.9994ZM62.0002 33C61.9442 33 61.8884 33.0009 61.8327 33.0028L61.7502 0.00220975L62.2502 -1.248e-05L62.3328 33.0109C62.2229 33.0037 62.112 33 62.0002 33Z" fill="#1F2F4C" fill-opacity="0.8"/>
<path fill-rule="evenodd" clip-rule="evenodd" d="M41.9941 63.251C41.9982 63.1679 42.0002 63.0842 42.0002 63C42.0002 62.9165 41.9982 62.8335 41.9942 62.751L57.0063 62.7511C57.0022 62.8335 57.0002 62.9165 57.0002 63C57.0002 63.0842 57.0023 63.1679 57.0064 63.2511L41.9941 63.251ZM32.0064 63.251L0.0898438 63.251V62.751L32.0063 62.751C32.0023 62.8335 32.0002 62.9165 32.0002 63C32.0002 63.0842 32.0023 63.1679 32.0064 63.251ZM92.0002 63C92.0002 63.0842 91.9982 63.1679 91.994 63.2511L100 63.2511V62.7511L91.9942 62.7511C91.9982 62.8336 92.0002 62.9165 92.0002 63ZM66.994 63.2511L82.0064 63.2511C82.0023 63.1679 82.0002 63.0842 82.0002 63C82.0002 62.9165 82.0023 62.8336 82.0063 62.7511L66.9941 62.7511C66.9981 62.8335 67.0002 62.9165 67.0002 63C67.0002 63.0842 66.9981 63.1679 66.994 63.2511Z" fill="#1F2F4C" fill-opacity="0.8"/>
<path fill-rule="evenodd" clip-rule="evenodd" d="M36.9827 93L37.0002 100.002L37.5002 100L37.4827 92.977C37.3239 92.9922 37.163 93 37.0002 93C36.9944 93 36.9886 93 36.9827 93ZM36.9577 83.0002C36.9719 83.0001 36.9861 83 37.0002 83C37.1545 83 37.3071 83.007 37.4578 83.0207L37.4227 68.9824C37.2834 68.9941 37.1425 69 37.0002 69C36.9744 69 36.9485 68.9998 36.9227 68.9994L36.9577 83.0002ZM36.8977 59.001C36.9318 59.0004 36.966 59 37.0002 59C37.134 59 37.2666 59.0053 37.3978 59.0156L37.3577 42.9874C37.2396 42.9958 37.1204 43 37.0002 43C36.9526 43 36.9051 42.9993 36.8577 42.998L36.8977 59.001ZM37.0002 33C37.112 33 37.2229 33.0037 37.3328 33.0109L37.2502 0L36.7502 0.00222223L36.8327 33.0028C36.8884 33.0009 36.9442 33 37.0002 33Z" fill="#1F2F4C" fill-opacity="0.8"/>
<path fill-rule="evenodd" clip-rule="evenodd" d="M16.994 38.2511C16.9982 38.1679 17.0002 38.0842 17.0002 38C17.0002 37.9165 16.9982 37.8336 16.9942 37.7511H32.0063C32.0023 37.8336 32.0002 37.9165 32.0002 38C32.0002 38.0842 32.0023 38.1679 32.0064 38.2511H16.994ZM7.00644 38.2511H0.000244141V37.7511H7.00633C7.00229 37.8336 7.00024 37.9165 7.00024 38C7.00024 38.0842 7.00233 38.1679 7.00644 38.2511ZM42.0002 38C42.0002 38.0842 41.9982 38.1679 41.994 38.2511H57.0065C57.0024 38.1679 57.0003 38.0842 57.0003 38C57.0003 37.9165 57.0023 37.8336 57.0064 37.7511H41.9942C41.9982 37.8336 42.0002 37.9165 42.0002 38ZM66.9941 38.2511C66.9982 38.1679 67.0003 38.0842 67.0003 38C67.0003 37.9165 66.9983 37.8336 66.9942 37.7511H100.001V38.2511H66.9941Z" fill="#1F2F4C" fill-opacity="0.8"/>
<path fill-rule="evenodd" clip-rule="evenodd" d="M12.0002 100.002L11.9827 93L12.0002 93C12.163 93 12.3239 92.9922 12.4827 92.977L12.5002 100L12.0002 100.002ZM12.0002 83L11.9577 83.0002L11.8577 42.998C11.9051 42.9993 11.9526 43 12.0002 43C12.1204 43 12.2396 42.9958 12.3577 42.9874L12.4578 83.0207C12.3071 83.007 12.1545 83 12.0002 83ZM12.3328 33.0109C12.2229 33.0037 12.112 33 12.0002 33C11.9442 33 11.8884 33.0009 11.8327 33.0028L11.7502 0.00220975L12.2502 -1.248e-05L12.3328 33.0109Z" fill="#1F2F4C"/>
</svg>
