<svg width="101" height="102" viewBox="0 0 101 102" fill="none" xmlns="http://www.w3.org/2000/svg">
<rect x="62" y="14" width="25" height="25" fill="#828387" fill-opacity="0.3"/>
<path d="M24.5899 82.1491C24.1034 82.142 23.624 82.0533 23.1517 81.8828C22.6829 81.7124 22.2568 81.4283 21.8733 81.0305C21.4897 80.6328 21.1826 80.0984 20.9517 79.4272C20.7245 78.756 20.6108 77.918 20.6108 76.913C20.6108 75.9613 20.7049 75.1161 20.8932 74.3775C21.0849 73.6388 21.3601 73.0156 21.7188 72.5078C22.0775 71.9964 22.5107 71.6076 23.0185 71.3413C23.5263 71.0749 24.0963 70.9418 24.7284 70.9418C25.3782 70.9418 25.9553 71.0696 26.4596 71.3253C26.9638 71.581 27.3722 71.9343 27.6847 72.3853C28.0008 72.8363 28.2014 73.3494 28.2866 73.9247H26.662C26.5519 73.4702 26.3335 73.0991 26.0068 72.8114C25.6801 72.5238 25.254 72.38 24.7284 72.38C23.9294 72.38 23.3062 72.728 22.8587 73.424C22.4148 74.12 22.1911 75.0877 22.1875 76.3271H22.2674C22.4557 76.0181 22.6865 75.7553 22.9599 75.5387C23.2369 75.3185 23.5459 75.1499 23.8868 75.0327C24.2312 74.9119 24.5934 74.8516 24.9734 74.8516C25.6055 74.8516 26.1772 75.006 26.6886 75.315C27.2035 75.6204 27.6137 76.043 27.9191 76.5827C28.2245 77.1225 28.3772 77.7404 28.3772 78.4364C28.3772 79.1325 28.2191 79.7628 27.9031 80.3274C27.5906 80.892 27.1503 81.3395 26.5821 81.6697C26.0139 81.9964 25.3498 82.1562 24.5899 82.1491ZM24.5846 80.7642C25.0036 80.7642 25.3782 80.6612 25.7085 80.4553C26.0388 80.2493 26.2998 79.9723 26.4915 79.6243C26.6833 79.2763 26.7792 78.8874 26.7792 78.4577C26.7792 78.0387 26.6851 77.657 26.4968 77.3125C26.3122 76.968 26.0565 76.6946 25.7298 76.4922C25.4066 76.2898 25.0373 76.1886 24.6218 76.1886C24.3058 76.1886 24.0128 76.2489 23.7429 76.3697C23.4766 76.4904 23.2422 76.6573 23.0398 76.8704C22.8374 77.0835 22.6776 77.3285 22.5604 77.6055C22.4468 77.8789 22.39 78.1683 22.39 78.4737C22.39 78.8821 22.4841 79.2603 22.6723 79.6083C22.864 79.9563 23.125 80.2369 23.4553 80.4499C23.7891 80.6594 24.1655 80.7642 24.5846 80.7642Z" fill="#1F2F4C"/>
<path d="M49.4967 57.1491C48.7332 57.1491 48.0585 57.0178 47.4725 56.755C46.8901 56.4922 46.4338 56.13 46.1036 55.6683C45.7733 55.2067 45.61 54.6811 45.6135 54.0916C45.61 53.63 45.7041 53.2056 45.8958 52.8185C46.0911 52.4279 46.3557 52.103 46.6895 51.8438C47.0233 51.581 47.3962 51.4141 47.8081 51.343V51.2791C47.2648 51.1477 46.8298 50.8565 46.5031 50.4055C46.1764 49.9545 46.0148 49.4361 46.0183 48.8501C46.0148 48.2926 46.1622 47.7955 46.4604 47.3587C46.7623 46.9183 47.176 46.5721 47.7016 46.32C48.2271 46.0678 48.8255 45.9418 49.4967 45.9418C50.1607 45.9418 50.7538 46.0696 51.2758 46.3253C51.8014 46.5774 52.2151 46.9237 52.5169 47.364C52.8188 47.8008 52.9715 48.2962 52.975 48.8501C52.9715 49.4361 52.8046 49.9545 52.4743 50.4055C52.144 50.8565 51.7144 51.1477 51.1852 51.2791V51.343C51.5936 51.4141 51.9612 51.581 52.2879 51.8438C52.6181 52.103 52.8809 52.4279 53.0762 52.8185C53.2751 53.2056 53.3763 53.63 53.3798 54.0916C53.3763 54.6811 53.2094 55.2067 52.8791 55.6683C52.5489 56.13 52.0908 56.4922 51.5048 56.755C50.9225 57.0178 50.2531 57.1491 49.4967 57.1491ZM49.4967 55.8015C49.9477 55.8015 50.3383 55.7269 50.6685 55.5778C50.9988 55.4251 51.2545 55.2138 51.4356 54.9439C51.6167 54.6705 51.709 54.3509 51.7126 53.9851C51.709 53.6051 51.6096 53.2695 51.4143 52.9783C51.2225 52.6871 50.9615 52.4581 50.6313 52.2912C50.301 52.1243 49.9228 52.0408 49.4967 52.0408C49.067 52.0408 48.6852 52.1243 48.3514 52.2912C48.0176 52.4581 47.7548 52.6871 47.5631 52.9783C47.3713 53.2695 47.2772 53.6051 47.2808 53.9851C47.2772 54.3509 47.3642 54.6705 47.5418 54.9439C47.7229 55.2138 47.9803 55.4251 48.3141 55.5778C48.6479 55.7269 49.0421 55.8015 49.4967 55.8015ZM49.4967 50.7251C49.8589 50.7251 50.1803 50.6523 50.4608 50.5067C50.7413 50.3612 50.9615 50.1587 51.1213 49.8995C51.2847 49.6403 51.3681 49.3366 51.3717 48.9886C51.3681 48.6477 51.2864 48.3494 51.1266 48.0938C50.9704 47.8381 50.752 47.641 50.4715 47.5025C50.1909 47.3604 49.866 47.2894 49.4967 47.2894C49.1203 47.2894 48.79 47.3604 48.5059 47.5025C48.2254 47.641 48.007 47.8381 47.8507 48.0938C47.6945 48.3494 47.6181 48.6477 47.6217 48.9886C47.6181 49.3366 47.6962 49.6403 47.856 49.8995C48.0158 50.1587 48.236 50.3612 48.5166 50.5067C48.8006 50.6523 49.1274 50.7251 49.4967 50.7251Z" fill="#1F2F4C"/>
<path d="M49.5133 32.1491C48.7818 32.1491 48.1284 32.0231 47.5531 31.771C46.9814 31.5188 46.5286 31.169 46.1948 30.7216C45.8645 30.2706 45.687 29.7486 45.6621 29.1555H47.3347C47.356 29.4787 47.4643 29.7592 47.6596 29.9972C47.8585 30.2315 48.1177 30.4126 48.4373 30.5405C48.7569 30.6683 49.112 30.7322 49.5027 30.7322C49.9324 30.7322 50.3123 30.6577 50.6426 30.5085C50.9764 30.3594 51.2374 30.1516 51.4256 29.8853C51.6138 29.6154 51.7079 29.3047 51.7079 28.9531C51.7079 28.5874 51.6138 28.266 51.4256 27.989C51.2409 27.7085 50.9693 27.4883 50.6106 27.3285C50.2555 27.1687 49.8258 27.0888 49.3216 27.0888H48.4V25.7464H49.3216C49.7264 25.7464 50.0815 25.6737 50.3869 25.5281C50.6958 25.3825 50.9373 25.18 51.1113 24.9208C51.2853 24.658 51.3723 24.3509 51.3723 23.9993C51.3723 23.6619 51.296 23.369 51.1433 23.1204C50.9941 22.8683 50.7811 22.6712 50.5041 22.5291C50.2306 22.3871 49.9075 22.3161 49.5346 22.3161C49.1795 22.3161 48.8475 22.3817 48.5385 22.5131C48.2331 22.641 47.9846 22.8256 47.7928 23.0671C47.601 23.305 47.498 23.5909 47.4838 23.9247H45.8912C45.9089 23.3352 46.0829 22.8168 46.4132 22.3693C46.747 21.9219 47.1873 21.5721 47.7342 21.32C48.2811 21.0678 48.8883 20.9418 49.5559 20.9418C50.2555 20.9418 50.8592 21.0785 51.367 21.3519C51.8784 21.6218 52.2725 21.9822 52.5495 22.4332C52.8301 22.8842 52.9686 23.3778 52.965 23.9141C52.9686 24.5249 52.7981 25.0433 52.4537 25.4695C52.1127 25.8956 51.6582 26.1815 51.09 26.3271V26.4123C51.8145 26.5224 52.3755 26.81 52.7733 27.2752C53.1745 27.7404 53.3734 28.3175 53.3699 29.0064C53.3734 29.6065 53.2065 30.1445 52.8691 30.6204C52.5353 31.0962 52.079 31.4709 51.5002 31.7443C50.9213 32.0142 50.2591 32.1491 49.5133 32.1491Z" fill="#1F2F4C"/>
<path d="M70.9498 57V55.8068L74.6412 51.9822C75.0353 51.5668 75.3603 51.2028 75.6159 50.8903C75.8752 50.5742 76.0687 50.2741 76.1966 49.9901C76.3244 49.706 76.3883 49.4041 76.3883 49.0845C76.3883 48.7223 76.3031 48.4098 76.1326 48.147C75.9622 47.8807 75.7296 47.6765 75.4348 47.5344C75.1401 47.3888 74.8081 47.3161 74.4387 47.3161C74.0481 47.3161 73.7072 47.396 73.416 47.5558C73.1248 47.7156 72.9011 47.9411 72.7449 48.2322C72.5886 48.5234 72.5105 48.8643 72.5105 49.255H70.9391C70.9391 48.5909 71.0918 48.0103 71.3972 47.5131C71.7026 47.016 72.1216 46.6307 72.6543 46.3572C73.187 46.0803 73.7924 45.9418 74.4707 45.9418C75.1561 45.9418 75.7598 46.0785 76.2818 46.3519C76.8074 46.6218 77.2175 46.9911 77.5123 47.4599C77.807 47.9251 77.9544 48.4506 77.9544 49.0366C77.9544 49.4414 77.878 49.8374 77.7253 50.2244C77.5762 50.6115 77.3152 51.043 76.9423 51.5188C76.5694 51.9911 76.051 52.5646 75.3869 53.2393L73.2189 55.5085V55.5884H78.1301V57H70.9498Z" fill="#1F2F4C"/>
<rect x="0.500183" y="1.5" width="99" height="98.9996" rx="9.5" stroke="#1F2F4C"/>
<path d="M12.0002 1L12.2502 101" stroke="#1F2F4C"/>
<path d="M87.0002 1L87.2502 101" stroke="#1F2F4C"/>
<path d="M100 39L-6.1214e-05 39" stroke="#1F2F4C" stroke-opacity="0.8" stroke-width="0.5"/>
<path d="M100 14L0.000182927 14" stroke="#1F2F4C"/>
<path d="M100 88.9997L0.000182927 88.9997" stroke="#1F2F4C"/>
<path d="M100 64L0.0896628 63.9999" stroke="#1F2F4C" stroke-opacity="0.8" stroke-width="0.5"/>
<path d="M37.0002 1L37.2502 101" stroke="#1F2F4C" stroke-opacity="0.8" stroke-width="0.5"/>
<path d="M62.0002 1L62.2502 101" stroke="#1F2F4C" stroke-opacity="0.8" stroke-width="0.5"/>
<path fill-rule="evenodd" clip-rule="evenodd" d="M34.7071 52.364L39.6569 57.3137L40.364 56.6066L35.4142 51.6569L40.364 46.7071L39.6569 46L34.7071 50.9498L34 51.6569L34.7071 52.364Z" fill="#1F2F4C"/>
<path fill-rule="evenodd" clip-rule="evenodd" d="M59.7071 78.364L64.6569 83.3137L65.364 82.6066L60.4142 77.6569L65.364 72.7071L64.6569 72L59.7071 76.9498L59 77.6569L59.7071 78.364Z" fill="#1F2F4C"/>
<path fill-rule="evenodd" clip-rule="evenodd" d="M59.7071 27.364L64.6569 32.3137L65.364 31.6066L60.4142 26.6569L65.364 21.7071L64.6569 21L59.7071 25.9498L59 26.6569L59.7071 27.364Z" fill="#1F2F4C"/>
<path fill-rule="evenodd" clip-rule="evenodd" d="M39.6066 25.9498L34.6569 21L33.9498 21.7071L38.8995 26.6569L33.9498 31.6066L34.6569 32.3137L39.6066 27.364L40.3137 26.6569L39.6066 25.9498Z" fill="#1F2F4C"/>
<path fill-rule="evenodd" clip-rule="evenodd" d="M39.6066 76.9498L34.6569 72L33.9498 72.7071L38.8995 77.6569L33.9498 82.6066L34.6569 83.3137L39.6066 78.364L40.3137 77.6569L39.6066 76.9498Z" fill="#1F2F4C"/>
<path fill-rule="evenodd" clip-rule="evenodd" d="M64.6066 49.9498L59.6569 45L58.9498 45.7071L63.8995 50.6569L58.9498 55.6066L59.6569 56.3137L64.6066 51.364L65.3137 50.6569L64.6066 49.9498Z" fill="#1F2F4C"/>
<path fill-rule="evenodd" clip-rule="evenodd" d="M23.9498 36.7071L19 41.6569L19.7071 42.364L24.6569 37.4142L29.6066 42.364L30.3137 41.6569L25.364 36.7071L24.6569 36L23.9498 36.7071Z" fill="#1F2F4C"/>
<path fill-rule="evenodd" clip-rule="evenodd" d="M48.9498 36.7071L44 41.6569L44.7071 42.364L49.6569 37.4142L54.6066 42.364L55.3137 41.6569L50.364 36.7071L49.6569 36L48.9498 36.7071Z" fill="#1F2F4C"/>
<path fill-rule="evenodd" clip-rule="evenodd" d="M76.364 41.6066L81.3137 36.6569L80.6066 35.9498L75.6569 40.8995L70.7071 35.9498L70 36.6569L74.9498 41.6066L75.6569 42.3137L76.364 41.6066Z" fill="#1F2F4C"/>
<path fill-rule="evenodd" clip-rule="evenodd" d="M25.364 66.6066L30.3137 61.6569L29.6066 60.9498L24.6569 65.8995L19.7071 60.9498L19 61.6569L23.9498 66.6066L24.6569 67.3137L25.364 66.6066Z" fill="#1F2F4C"/>
<path fill-rule="evenodd" clip-rule="evenodd" d="M50.364 66.6066L55.3137 61.6569L54.6066 60.9498L49.6569 65.8995L44.7071 60.9498L44 61.6569L48.9498 66.6066L49.6569 67.3137L50.364 66.6066Z" fill="#1F2F4C"/>
<path fill-rule="evenodd" clip-rule="evenodd" d="M73.9498 61.7071L69 66.6569L69.7071 67.364L74.6569 62.4142L79.6066 67.364L80.3137 66.6569L75.364 61.7071L74.6569 61L73.9498 61.7071Z" fill="#1F2F4C"/>
<path fill-rule="evenodd" clip-rule="evenodd" d="M0 82H3.13015V80.5884H0V82ZM0 78.6443L0.386897 78.2394C1.05096 77.5646 1.56942 76.9911 1.94229 76.5188C2.31516 76.043 2.57617 75.6115 2.72532 75.2244C2.87802 74.8374 2.95437 74.4414 2.95437 74.0366C2.95437 73.4507 2.807 72.9251 2.51225 72.4599C2.21751 71.9911 1.80735 71.6218 1.28178 71.3519C0.898544 71.1512 0.471283 71.0241 0 70.9708V72.3787C0.15299 72.4149 0.297936 72.4668 0.434837 72.5345C0.729581 72.6765 0.96218 72.8807 1.13264 73.147C1.30309 73.4098 1.38832 73.7223 1.38832 74.0845C1.38832 74.4041 1.3244 74.706 1.19656 74.9901C1.06871 75.2742 0.875178 75.5742 0.615945 75.8903C0.442497 76.1023 0.237182 76.338 0 76.5973V78.6443Z" fill="#1F2F4C"/>
<path fill-rule="evenodd" clip-rule="evenodd" d="M52.5099 101H47.4963C47.6341 100.828 47.7887 100.674 47.9599 100.539C48.2369 100.319 48.5458 100.15 48.8868 100.033C49.2312 99.9119 49.5934 99.8516 49.9734 99.8516C50.6055 99.8516 51.1772 100.006 51.6886 100.315C52.0009 100.5 52.2747 100.729 52.5099 101ZM45.642 101C45.6837 100.412 45.7674 99.8708 45.8931 99.3775C46.0849 98.6389 46.3601 98.0156 46.7188 97.5078C47.0774 96.9965 47.5107 96.6076 48.0185 96.3413C48.5263 96.0749 49.0963 95.9418 49.7284 95.9418C50.3782 95.9418 50.9553 96.0696 51.4595 96.3253C51.9638 96.581 52.3722 96.9343 52.6847 97.3853C53.0007 97.8363 53.2014 98.3494 53.2866 98.9247H51.662C51.5519 98.4702 51.3335 98.0991 51.0068 97.8114C50.6801 97.5238 50.2539 97.38 49.7284 97.38C48.9294 97.38 48.3061 97.728 47.8587 98.424C47.4546 99.0576 47.233 99.9162 47.1938 101H45.642Z" fill="#1F2F4C"/>
<path fill-rule="evenodd" clip-rule="evenodd" d="M100 71.2918L95.4131 78.5376V79.8693H100V78.4737H97.1389V78.3884L100 73.8595V71.2918Z" fill="#1F2F4C"/>
<path fill-rule="evenodd" clip-rule="evenodd" d="M21.1824 1L21.1169 1.58807L22.6243 1.81179C22.8303 1.62713 23.1002 1.47798 23.434 1.36435C23.7678 1.25071 24.0998 1.19389 24.4301 1.19389C24.8633 1.19744 25.2468 1.29865 25.5806 1.49751C25.918 1.69638 26.1826 1.96982 26.3743 2.31783C26.5661 2.66584 26.662 3.06179 26.662 3.50568C26.662 3.94247 26.5679 4.33132 26.3797 4.67223C26.195 5.01314 25.9393 5.28125 25.6126 5.47656C25.2895 5.66832 24.9184 5.7642 24.4993 5.7642C23.9738 5.7642 23.5228 5.61328 23.1463 5.31143C22.7699 5.00959 22.5622 4.62429 22.5231 4.15554H20.9251C20.9464 4.73438 21.1151 5.24929 21.4311 5.70028C21.7472 6.15128 22.1698 6.50639 22.6989 6.76562C23.2316 7.02131 23.8317 7.14915 24.4993 7.14915C25.2309 7.14915 25.8789 6.99112 26.4436 6.67507C27.0118 6.35547 27.4557 5.91868 27.7753 5.3647C28.0984 4.81072 28.2582 4.1804 28.2547 3.47372C28.2582 2.76705 28.1091 2.14205 27.8072 1.59872C27.6884 1.38083 27.5517 1.18125 27.3974 1H21.1824Z" fill="#1F2F4C"/>
<path fill-rule="evenodd" clip-rule="evenodd" d="M34.6569 1L34 1.65686L34.7071 2.36397L39.6569 7.31371L40.364 6.60661L35.4142 1.65686L36.0711 1H34.6569Z" fill="#1F2F4C"/>
<path fill-rule="evenodd" clip-rule="evenodd" d="M63.2427 1L63.8995 1.65686L58.9498 6.60661L59.6569 7.31371L64.6066 2.36397L65.3137 1.65686L64.6569 1H63.2427Z" fill="#1F2F4C"/>
<path fill-rule="evenodd" clip-rule="evenodd" d="M0 37.7574L4.60661 42.364L5.31371 41.6569L0.363967 36.7071L0 36.3431V37.7574Z" fill="#1F2F4C"/>
<path fill-rule="evenodd" clip-rule="evenodd" d="M0 66.9706L0.363967 66.6066L5.31371 61.6569L4.60661 60.9498L0 65.5564V66.9706Z" fill="#1F2F4C"/>
<path fill-rule="evenodd" clip-rule="evenodd" d="M35.7574 101L35.4142 100.657L40.364 95.7071L39.6569 95L34.7071 99.9497L34 100.657L34.3431 101H35.7574Z" fill="#1F2F4C"/>
<path fill-rule="evenodd" clip-rule="evenodd" d="M59.6569 95L64.6066 99.9497L65.3137 100.657L64.9706 101H63.5564L63.8995 100.657L58.9498 95.7071L59.6569 95Z" fill="#1F2F4C"/>
<path fill-rule="evenodd" clip-rule="evenodd" d="M100 61.3431L99.6569 61L98.9497 61.7071L94 66.6569L94.7071 67.364L99.6569 62.4142L100 62.7574V61.3431Z" fill="#1F2F4C"/>
<path fill-rule="evenodd" clip-rule="evenodd" d="M100 40.5564L99.6569 40.8995L94.7071 35.9498L94 36.6569L98.9497 41.6066L99.6569 42.3137L100 41.9706V40.5564Z" fill="#1F2F4C"/>
</svg>
