<svg width="100" height="100" viewBox="0 0 100 100" fill="none" xmlns="http://www.w3.org/2000/svg">
<rect x="75" y="50" width="25" height="25" fill="#828387" fill-opacity="0.3"/>
<rect x="0.5" y="0.5" width="99" height="98.9996" rx="9.5" stroke="#1F2F4C"/>
<path d="M37.4088 6.94176C37.8953 6.94531 38.3747 7.03409 38.847 7.2081C39.3193 7.3821 39.7454 7.66619 40.1254 8.06037C40.5089 8.45455 40.8143 8.98722 41.0416 9.65838C41.2724 10.326 41.3896 11.157 41.3932 12.1513C41.3932 13.1065 41.2973 13.957 41.1055 14.7028C40.9138 15.445 40.6385 16.0717 40.2799 16.5831C39.9248 17.0945 39.4933 17.4833 38.9855 17.7496C38.4777 18.016 37.9059 18.1491 37.2703 18.1491C36.6204 18.1491 36.0434 18.0213 35.5391 17.7656C35.0348 17.5099 34.6247 17.1566 34.3086 16.7056C33.9926 16.2511 33.7955 15.729 33.7174 15.1396H35.342C35.4486 15.6083 35.6652 15.9883 35.9919 16.2795C36.3221 16.5671 36.7483 16.7109 37.2703 16.7109C38.0693 16.7109 38.6925 16.3629 39.14 15.6669C39.5874 14.9673 39.8129 13.9908 39.8165 12.7372H39.7312C39.5466 13.0426 39.3157 13.3054 39.0388 13.5256C38.7653 13.7457 38.4581 13.9162 38.1172 14.0369C37.7763 14.1577 37.4123 14.218 37.0253 14.218C36.3967 14.218 35.825 14.0636 35.3101 13.7546C34.7951 13.4457 34.385 13.0213 34.0796 12.4815C33.7742 11.9418 33.6215 11.3256 33.6215 10.6332C33.6215 9.94425 33.7777 9.31925 34.0902 8.75817C34.4063 8.19709 34.8466 7.7532 35.4113 7.42649C35.9794 7.09624 36.6453 6.93466 37.4088 6.94176ZM37.4141 8.3267C36.9986 8.3267 36.624 8.42969 36.2902 8.63565C35.9599 8.83807 35.6989 9.11328 35.5071 9.46129C35.3154 9.80575 35.2195 10.1893 35.2195 10.6119C35.2195 11.0344 35.3118 11.418 35.4965 11.7624C35.6847 12.1033 35.9404 12.375 36.2635 12.5774C36.5902 12.7763 36.9631 12.8757 37.3821 12.8757C37.6946 12.8757 37.9858 12.8153 38.2557 12.6946C38.5256 12.5739 38.7618 12.407 38.9642 12.1939C39.1666 11.9773 39.3246 11.7322 39.4383 11.4588C39.5519 11.1854 39.6087 10.8977 39.6087 10.5959C39.6087 10.1946 39.5128 9.82173 39.3211 9.47727C39.1329 9.13281 38.8736 8.85582 38.5434 8.64631C38.2131 8.43324 37.8367 8.3267 37.4141 8.3267Z" fill="#1F2F4C"/>
<path d="M58.4131 40.8692V39.5375L63.1272 32.0908H64.1766V34.051H63.5107L60.1389 39.3884V39.4736H66.6002V40.8692H58.4131ZM63.5853 42.9999V40.4644L63.596 39.8571V32.0908H65.1567V42.9999H63.5853Z" fill="#1F2F4C"/>
<path d="M87.4967 43.149C86.7332 43.149 86.0585 43.0176 85.4725 42.7548C84.8901 42.4921 84.4338 42.1298 84.1036 41.6682C83.7733 41.2066 83.61 40.681 83.6135 40.0915C83.61 39.6298 83.7041 39.2055 83.8958 38.8184C84.0911 38.4278 84.3557 38.1029 84.6895 37.8436C85.0233 37.5808 85.3962 37.4139 85.8081 37.3429V37.279C85.2648 37.1476 84.8298 36.8564 84.5031 36.4054C84.1764 35.9544 84.0148 35.436 84.0183 34.85C84.0148 34.2925 84.1622 33.7953 84.4604 33.3585C84.7623 32.9182 85.176 32.572 85.7016 32.3198C86.2271 32.0677 86.8255 31.9416 87.4967 31.9416C88.1607 31.9416 88.7538 32.0695 89.2758 32.3252C89.8014 32.5773 90.2151 32.9235 90.5169 33.3639C90.8188 33.8007 90.9715 34.296 90.975 34.85C90.9715 35.436 90.8046 35.9544 90.4743 36.4054C90.144 36.8564 89.7144 37.1476 89.1852 37.279V37.3429C89.5936 37.4139 89.9612 37.5808 90.2879 37.8436C90.6181 38.1029 90.8809 38.4278 91.0762 38.8184C91.2751 39.2055 91.3763 39.6298 91.3798 40.0915C91.3763 40.681 91.2094 41.2066 90.8791 41.6682C90.5489 42.1298 90.0908 42.4921 89.5048 42.7548C88.9225 43.0176 88.2531 43.149 87.4967 43.149ZM87.4967 41.8014C87.9477 41.8014 88.3383 41.7268 88.6685 41.5776C88.9988 41.4249 89.2545 41.2137 89.4356 40.9438C89.6167 40.6703 89.709 40.3507 89.7126 39.985C89.709 39.605 89.6096 39.2694 89.4143 38.9782C89.2225 38.687 88.9615 38.458 88.6313 38.2911C88.301 38.1242 87.9228 38.0407 87.4967 38.0407C87.067 38.0407 86.6852 38.1242 86.3514 38.2911C86.0176 38.458 85.7548 38.687 85.5631 38.9782C85.3713 39.2694 85.2772 39.605 85.2808 39.985C85.2772 40.3507 85.3642 40.6703 85.5418 40.9438C85.7229 41.2137 85.9803 41.4249 86.3141 41.5776C86.6479 41.7268 87.0421 41.8014 87.4967 41.8014ZM87.4967 36.725C87.8589 36.725 88.1803 36.6522 88.4608 36.5066C88.7413 36.361 88.9615 36.1586 89.1213 35.8994C89.2847 35.6401 89.3681 35.3365 89.3717 34.9885C89.3681 34.6476 89.2864 34.3493 89.1266 34.0936C88.9704 33.8379 88.752 33.6409 88.4715 33.5024C88.1909 33.3603 87.866 33.2893 87.4967 33.2893C87.1203 33.2893 86.79 33.3603 86.5059 33.5024C86.2254 33.6409 86.007 33.8379 85.8507 34.0936C85.6945 34.3493 85.6181 34.6476 85.6217 34.9885C85.6181 35.3365 85.6962 35.6401 85.856 35.8994C86.0158 36.1586 86.236 36.361 86.5166 36.5066C86.8006 36.6522 87.1274 36.725 87.4967 36.725Z" fill="#1F2F4C"/>
<path d="M37.5899 68.149C37.1034 68.1419 36.624 68.0531 36.1517 67.8826C35.6829 67.7122 35.2568 67.4281 34.8733 67.0304C34.4897 66.6326 34.1826 66.0982 33.9517 65.427C33.7245 64.7559 33.6108 63.9178 33.6108 62.9128C33.6108 61.9611 33.7049 61.1159 33.8932 60.3773C34.0849 59.6387 34.3601 59.0154 34.7188 58.5076C35.0775 57.9963 35.5107 57.6074 36.0185 57.3411C36.5263 57.0747 37.0963 56.9416 37.7284 56.9416C38.3782 56.9416 38.9553 57.0694 39.4596 57.3251C39.9638 57.5808 40.3722 57.9341 40.6847 58.3851C41.0008 58.8361 41.2014 59.3492 41.2866 59.9245H39.662C39.5519 59.47 39.3335 59.0989 39.0068 58.8113C38.6801 58.5236 38.254 58.3798 37.7284 58.3798C36.9294 58.3798 36.3062 58.7278 35.8587 59.4238C35.4148 60.1198 35.1911 61.0875 35.1875 62.3269H35.2674C35.4557 62.0179 35.6865 61.7551 35.9599 61.5385C36.2369 61.3184 36.5459 61.1497 36.8868 61.0325C37.2312 60.9117 37.5934 60.8514 37.9734 60.8514C38.6055 60.8514 39.1772 61.0059 39.6886 61.3148C40.2035 61.6202 40.6137 62.0428 40.9191 62.5826C41.2245 63.1223 41.3772 63.7402 41.3772 64.4363C41.3772 65.1323 41.2191 65.7626 40.9031 66.3272C40.5906 66.8919 40.1503 67.3393 39.5821 67.6696C39.0139 67.9963 38.3498 68.1561 37.5899 68.149ZM37.5846 66.764C38.0036 66.764 38.3782 66.661 38.7085 66.4551C39.0388 66.2491 39.2998 65.9721 39.4915 65.6241C39.6833 65.2761 39.7792 64.8872 39.7792 64.4576C39.7792 64.0385 39.6851 63.6568 39.4968 63.3123C39.3122 62.9679 39.0565 62.6944 38.7298 62.492C38.4066 62.2896 38.0373 62.1884 37.6218 62.1884C37.3058 62.1884 37.0128 62.2488 36.7429 62.3695C36.4766 62.4902 36.2422 62.6571 36.0398 62.8702C35.8374 63.0833 35.6776 63.3283 35.5604 63.6053C35.4468 63.8787 35.39 64.1681 35.39 64.4735C35.39 64.8819 35.4841 65.2601 35.6723 65.6081C35.864 65.9561 36.125 66.2367 36.4553 66.4497C36.7891 66.6593 37.1655 66.764 37.5846 66.764Z" fill="#1F2F4C"/>
<path d="M87.4088 81.9415C87.8953 81.945 88.3747 82.0338 88.847 82.2078C89.3193 82.3818 89.7454 82.6659 90.1254 83.0601C90.5089 83.4542 90.8143 83.9869 91.0416 84.6581C91.2724 85.3257 91.3896 86.1567 91.3932 87.151C91.3932 88.1062 91.2973 88.9567 91.1055 89.7025C90.9138 90.4447 90.6385 91.0714 90.2799 91.5828C89.9248 92.0942 89.4933 92.483 88.9855 92.7493C88.4777 93.0157 87.9059 93.1488 87.2703 93.1488C86.6204 93.1488 86.0434 93.021 85.5391 92.7653C85.0348 92.5096 84.6247 92.1563 84.3086 91.7053C83.9926 91.2508 83.7955 90.7287 83.7174 90.1393H85.342C85.4486 90.608 85.6652 90.988 85.9919 91.2792C86.3221 91.5668 86.7483 91.7106 87.2703 91.7106C88.0693 91.7106 88.6925 91.3626 89.14 90.6666C89.5874 89.967 89.8129 88.9905 89.8165 87.7369H89.7312C89.5466 88.0423 89.3157 88.3051 89.0388 88.5253C88.7653 88.7454 88.4581 88.9159 88.1172 89.0366C87.7763 89.1574 87.4123 89.2177 87.0253 89.2177C86.3967 89.2177 85.825 89.0633 85.3101 88.7543C84.7951 88.4454 84.385 88.021 84.0796 87.4812C83.7742 86.9415 83.6215 86.3253 83.6215 85.6329C83.6215 84.9439 83.7777 84.3189 84.0902 83.7579C84.4063 83.1968 84.8466 82.7529 85.4113 82.4262C85.9794 82.0959 86.6453 81.9344 87.4088 81.9415ZM87.4141 83.3264C86.9986 83.3264 86.624 83.4294 86.2902 83.6353C85.9599 83.8378 85.6989 84.113 85.5071 84.461C85.3154 84.8054 85.2195 85.189 85.2195 85.6116C85.2195 86.0341 85.3118 86.4177 85.4965 86.7621C85.6847 87.103 85.9404 87.3747 86.2635 87.5771C86.5902 87.776 86.9631 87.8754 87.3821 87.8754C87.6946 87.8754 87.9858 87.815 88.2557 87.6943C88.5256 87.5736 88.7618 87.4067 88.9642 87.1936C89.1666 86.977 89.3246 86.7319 89.4383 86.4585C89.5519 86.1851 89.6087 85.8974 89.6087 85.5956C89.6087 85.1943 89.5128 84.8214 89.3211 84.477C89.1329 84.1325 88.8736 83.8555 88.5434 83.646C88.2131 83.4329 87.8367 83.3264 87.4141 83.3264Z" fill="#1F2F4C"/>
<path d="M59.2361 7.09091V18H57.5848V8.74219H57.5209L54.9108 10.4467V8.87003L57.6327 7.09091H59.2361ZM61.958 15.8693V14.5376L66.6721 7.09091H67.7215V9.05114H67.0557L63.6839 14.3885V14.4737H70.1452V15.8693H61.958ZM67.1302 18V15.4645L67.1409 14.8572V7.09091H68.7016V18H67.1302Z" fill="#1F2F4C"/>
<path d="M9.23606 32.0908V42.9999H7.58478V33.7421H7.52086L4.91078 35.4466V33.8699L7.63272 32.0908H9.23606ZM11.958 40.8692V39.5375L16.6721 32.0908H17.7215V34.051H17.0557L13.6839 39.3884V39.4736H20.1452V40.8692H11.958ZM17.1302 42.9999V40.4644L17.1409 39.8571V32.0908H18.7016V42.9999H17.1302Z" fill="#1F2F4C"/>
<path d="M9.80003 82.0906V92.9997H8.14875V83.7419H8.08483L5.47474 85.4464V83.8697L8.19669 82.0906H9.80003ZM13.1186 92.9997L17.8806 83.5821V83.5022H12.3728V82.0906H19.5852V83.5501L14.8391 92.9997H13.1186Z" fill="#1F2F4C"/>
<path d="M9.23606 57.0907V67.9998H7.58478V58.742H7.52086L4.91078 60.4466V58.8698L7.63272 57.0907H9.23606ZM11.958 65.8691V64.5375L16.6721 57.0907H17.7215V59.051H17.0557L13.6839 64.3883V64.4735H20.1452V65.8691H11.958ZM17.1302 67.9998V65.4643L17.1409 64.8571V57.0907H18.7016V67.9998H17.1302Z" fill="#1F2F4C"/>
<path d="M79.3501 18V16.8068L83.0415 12.9822C83.4357 12.5668 83.7607 12.2028 84.0163 11.8903C84.2756 11.5742 84.4691 11.2741 84.5969 10.9901C84.7248 10.706 84.7887 10.4041 84.7887 10.0845C84.7887 9.7223 84.7035 9.4098 84.533 9.14702C84.3626 8.88068 84.13 8.67649 83.8352 8.53445C83.5405 8.38885 83.2085 8.31605 82.8391 8.31605C82.4485 8.31605 82.1076 8.39595 81.8164 8.55575C81.5252 8.71555 81.3015 8.94105 81.1452 9.23224C80.989 9.52344 80.9109 9.86435 80.9109 10.255H79.3395C79.3395 9.59091 79.4922 9.0103 79.7976 8.51314C80.103 8.01598 80.522 7.63068 81.0547 7.35724C81.5874 7.08026 82.1928 6.94176 82.8711 6.94176C83.5565 6.94176 84.1602 7.07848 84.6822 7.35192C85.2077 7.6218 85.6179 7.99112 85.9126 8.45987C86.2074 8.92507 86.3548 9.45064 86.3548 10.0366C86.3548 10.4414 86.2784 10.8374 86.1257 11.2244C85.9766 11.6115 85.7156 12.043 85.3427 12.5188C84.9698 12.9911 84.4513 13.5646 83.7873 14.2393L81.6193 16.5085V16.5884H86.5305V18H79.3501ZM88.5494 18V16.8068L92.2408 12.9822C92.6349 12.5668 92.9599 12.2028 93.2156 11.8903C93.4748 11.5742 93.6683 11.2741 93.7962 10.9901C93.924 10.706 93.9879 10.4041 93.9879 10.0845C93.9879 9.7223 93.9027 9.4098 93.7322 9.14702C93.5618 8.88068 93.3292 8.67649 93.0344 8.53445C92.7397 8.38885 92.4077 8.31605 92.0384 8.31605C91.6477 8.31605 91.3068 8.39595 91.0156 8.55575C90.7244 8.71555 90.5007 8.94105 90.3445 9.23224C90.1882 9.52344 90.1101 9.86435 90.1101 10.255H88.5387C88.5387 9.59091 88.6914 9.0103 88.9968 8.51314C89.3022 8.01598 89.7212 7.63068 90.2539 7.35724C90.7866 7.08026 91.392 6.94176 92.0703 6.94176C92.7557 6.94176 93.3594 7.07848 93.8814 7.35192C94.407 7.6218 94.8171 7.99112 95.1119 8.45987C95.4066 8.92507 95.554 9.45064 95.554 10.0366C95.554 10.4414 95.4776 10.8374 95.3249 11.2244C95.1758 11.6115 94.9148 12.043 94.5419 12.5188C94.169 12.9911 93.6506 13.5646 92.9865 14.2393L90.8185 16.5085V16.5884H95.7298V18H88.5494Z" fill="#1F2F4C"/>
<path d="M37.4258 52.446V46.6847H38.5721V52.446H37.4258ZM35.1204 50.1364V48.9901H40.8817V50.1364H35.1204Z" fill="#1F2F4C"/>
<path d="M61.3054 77.7614V72H62.4517V77.7614H61.3054ZM59 75.4517V74.3054H64.7614V75.4517H59Z" fill="#1F2F4C"/>
<path d="M86.3054 77.7614V72H87.4517V77.7614H86.3054ZM84 75.4517V74.3054H89.7614V75.4517H84Z" fill="#1F2F4C"/>
<path d="M49.3054 38.7614V33H50.4517V38.7614H49.3054ZM47 36.4517V35.3054H52.7614V36.4517H47Z" fill="#1F2F4C"/>
<path d="M22 36.1207V35H27.4588V36.1207H22ZM22 38.7457V37.625H27.4588V38.7457H22Z" fill="#1F2F4C"/>
<path d="M38.625 22H39.7457V27.4588H38.625V22ZM36 22H37.1207V27.4588H36V22Z" fill="#1F2F4C"/>
<path d="M63.625 22H64.7457V27.4588H63.625V22ZM61 22H62.1207V27.4588H61V22Z" fill="#1F2F4C"/>
<path fill-rule="evenodd" clip-rule="evenodd" d="M92 25L100 24.9999V23.9999L91.9 23.9999C91.9656 24.323 92 24.6575 92 25ZM82.1 23.9999L67.9 23.9999C67.9656 24.3231 68 24.6575 68 25H82C82 24.6575 82.0344 24.323 82.1 23.9999ZM42.9 24L58.1 23.9999C58.0344 24.3231 58 24.6575 58 25H43C43 24.6575 42.9656 24.3231 42.9 24ZM33.1 24L25 24V25H33C33 24.6575 33.0344 24.3231 33.1 24Z" fill="#1F2F4C"/>
<path d="M87.625 22H88.7457V27.4588H87.625V22ZM85 22H86.1207V27.4588H85V22Z" fill="#1F2F4C"/>
<path d="M22 61.1207V60H27.4588V61.1207H22ZM22 63.7457V62.625H27.4588V63.7457H22Z" fill="#1F2F4C"/>
<path d="M22 86.1207V85H27.4588V86.1207H22ZM22 88.7457V87.625H27.4588V88.7457H22Z" fill="#1F2F4C"/>
<path d="M74.3054 38.7614V33H75.4517V38.7614H74.3054ZM72 36.4517V35.3054H77.7614V36.4517H72Z" fill="#1F2F4C"/>
<path d="M49.3054 64.7614V59H50.4517V64.7614H49.3054ZM47 62.4517V61.3054H52.7614V62.4517H47Z" fill="#1F2F4C"/>
<path d="M74.3054 64.7614V59H75.4517V64.7614H74.3054ZM72 62.4517V61.3054H77.7614V62.4517H72Z" fill="#1F2F4C"/>
<path d="M49.3054 89.7614V84H50.4517V89.7614H49.3054ZM47 87.4517V86.3054H52.7614V87.4517H47Z" fill="#1F2F4C"/>
<path d="M74.3054 89.7614V84H75.4517V89.7614H74.3054ZM72 87.4517V86.3054H77.7614V87.4517H72Z" fill="#1F2F4C"/>
<path d="M61.3054 52.7614V47H62.4517V52.7614H61.3054ZM59 50.4517V49.3054H64.7614V50.4517H59Z" fill="#1F2F4C"/>
<path d="M86.4258 52.446V46.6847H87.5721V52.446H86.4258ZM84.1204 50.1364V48.9901H89.8817V50.1364H84.1204Z" fill="#1F2F4C"/>
<path fill-rule="evenodd" clip-rule="evenodd" d="M42.9 74.9997C42.9656 74.6767 43 74.3424 43 74C43 73.9999 43 73.9998 43 73.9997H57.1001C57.0345 74.3228 57 74.6572 57 74.9997H42.9ZM33.1 74.9997H25V73.9997H33C33 73.9998 33 73.9999 33 74C33 74.3424 33.0344 74.6767 33.1 74.9997ZM82.1 74.9997H67C67 74.6572 66.9655 74.3228 66.8999 73.9997H82V74C82 74.3424 82.0344 74.6767 82.1 74.9997ZM91.9 74.9997C91.9656 74.6767 92 74.3424 92 74V73.9997H100V74.9997H91.9Z" fill="#1F2F4C"/>
<path d="M37.3054 77.7614V72H38.4517V77.7614H37.3054ZM35 75.4517V74.3054H40.7614V75.4517H35Z" fill="#1F2F4C"/>
<path fill-rule="evenodd" clip-rule="evenodd" d="M49.64 66.9872L49.69 82.0095C49.7925 82.0032 49.8959 82 50 82C50.2342 82 50.4646 82.0161 50.6902 82.0472L50.6399 66.9594C50.4304 66.9862 50.2168 67 50 67C49.8789 67 49.7589 66.9957 49.64 66.9872ZM49.6067 57.0152C49.7365 57.0051 49.8676 57 50 57C50.2054 57 50.4079 57.0124 50.6068 57.0364L50.5532 40.9698C50.3716 40.9898 50.187 41 50 41C49.8494 41 49.7004 40.9934 49.5533 40.9803L49.6067 57.0152ZM49.75 100L49.7233 91.9925C49.8149 91.9975 49.9072 92 50 92C50.2456 92 50.487 91.9823 50.7232 91.9481L50.75 99.9971L49.75 100ZM49.5201 31.0228C49.678 31.0077 49.8381 31 50 31C50.1756 31 50.3491 31.0091 50.5201 31.0267L50.5 24.9982L49.5 25.0016L49.5201 31.0228Z" fill="#1F2F4C"/>
<path fill-rule="evenodd" clip-rule="evenodd" d="M66.9 49.9998C66.9656 49.6768 67 49.3424 67 49C67 48.9999 67 48.9999 67 48.9998H82V49C82 49.3424 82.0344 49.6768 82.1 49.9998H66.9ZM57.1 49.9998H42.9C42.9656 49.6768 43 49.3424 43 49V48.9998H57C57 48.9999 57 48.9999 57 49C57 49.3424 57.0344 49.6768 57.1 49.9998ZM92 49C92 49.3424 91.9656 49.6768 91.9 49.9998H100V48.9998H92V49ZM33.1 49.9998H25V48.9998H33V49C33 49.3424 33.0344 49.6768 33.1 49.9998Z" fill="#1F2F4C"/>
<path fill-rule="evenodd" clip-rule="evenodd" d="M74.64 66.9873L74.69 82.0095C74.7925 82.0032 74.8959 82 75 82C75.2342 82 75.4646 82.0161 75.6902 82.0472L75.6399 66.9595C75.4304 66.9862 75.2168 67 75 67C74.8789 67 74.7589 66.9957 74.64 66.9873ZM74.75 100L74.7233 91.9925C74.8149 91.9975 74.9072 92 75 92C75.2456 92 75.487 91.9823 75.7232 91.9481L75.75 99.9971L74.75 100ZM74.6067 57.0153C74.7365 57.0052 74.8676 57 75 57C75.2054 57 75.4079 57.0124 75.6068 57.0365L75.5532 40.9697C75.3716 40.9897 75.187 41 75 41C74.8494 41 74.7004 40.9933 74.5533 40.9803L74.6067 57.0153ZM74.5201 31.0227L74.5 25.0016L75.5 24.9982L75.5201 31.0267C75.3491 31.0091 75.1756 31 75 31C74.8381 31 74.678 31.0077 74.5201 31.0227Z" fill="#1F2F4C"/>
<path fill-rule="evenodd" clip-rule="evenodd" d="M24.6414 66.9873L24.6908 82.0094C24.7931 82.0032 24.8962 82 25 82C25.2344 82 25.4651 82.0161 25.6909 82.0473L25.6413 66.9593C25.4313 66.9861 25.2173 67 25 67C24.8794 67 24.7598 66.9957 24.6414 66.9873ZM24.6086 57.0151C24.7378 57.0051 24.8683 57 25 57C25.206 57 25.4092 57.0125 25.6087 57.0367L25.5591 41.9691C25.3756 41.9895 25.189 42 25 42C24.8514 42 24.7044 41.9935 24.5591 41.9808L24.6086 57.0151ZM24.75 100L24.7237 91.9925C24.8151 91.9975 24.9073 92 25 92C25.2457 92 25.4873 91.9823 25.7235 91.948L25.75 99.9971L24.75 100ZM24.5264 32.0221C24.6823 32.0075 24.8403 32 25 32C25.1778 32 25.3534 32.0093 25.5264 32.0274L25.5 23.9984L24.5 24.0016L24.5264 32.0221Z" fill="#1F2F4C"/>
</svg>
