<svg width="101" height="102" viewBox="0 0 101 102" fill="none" xmlns="http://www.w3.org/2000/svg">
<rect x="12" y="39" width="25" height="25" fill="#828387" fill-opacity="0.3"/>
<rect x="0.500122" y="1.50003" width="99" height="98.9996" rx="9.5" stroke="#1F2F4C"/>
<path d="M87.0001 1.00003L87.2501 101" stroke="#1F2F4C"/>
<path d="M100 39L-6.1214e-05 39" stroke="#1F2F4C" stroke-opacity="0.8" stroke-width="0.5"/>
<path d="M100 88.9997L0.000182927 88.9997" stroke="#1F2F4C"/>
<path d="M100 64L0.0896628 63.9999" stroke="#1F2F4C" stroke-opacity="0.8" stroke-width="0.5"/>
<path d="M37.0001 1.00003L37.2501 101" stroke="#1F2F4C" stroke-opacity="0.8" stroke-width="0.5"/>
<path d="M62.0001 1.00003L62.2501 101" stroke="#1F2F4C" stroke-opacity="0.8" stroke-width="0.5"/>
<path d="M45.4131 54.8693V53.5377L50.1272 46.0909H51.1766V48.0512H50.5107L47.1389 53.3885V53.4738H53.6002V54.8693H45.4131ZM50.5853 57V54.4645L50.596 53.8573V46.0909H52.1567V57H50.5853Z" fill="#1F2F4C"/>
<path d="M71.5736 57L76.3357 47.5824V47.5025H70.8279V46.0909H78.0403V47.5505L73.2942 57H71.5736Z" fill="#1F2F4C"/>
<path d="M24.4993 82.1492C23.8317 82.1492 23.2316 82.0213 22.6989 81.7657C22.1698 81.5064 21.7472 81.1513 21.4312 80.7003C21.1151 80.2493 20.9464 79.7344 20.9251 79.1556H22.5231C22.5622 79.6243 22.7699 80.0096 23.1464 80.3115C23.5228 80.6133 23.9738 80.7642 24.4993 80.7642C24.9184 80.7642 25.2895 80.6684 25.6126 80.4766C25.9393 80.2813 26.195 80.0132 26.3797 79.6723C26.5679 79.3314 26.662 78.9425 26.662 78.5057C26.662 78.0618 26.5661 77.6659 26.3743 77.3179C26.1826 76.9698 25.918 76.6964 25.5807 76.4975C25.2468 76.2987 24.8633 76.1975 24.4301 76.1939C24.0998 76.1939 23.7678 76.2507 23.434 76.3644C23.1002 76.478 22.8303 76.6272 22.6243 76.8118L21.1169 76.5881L21.7294 71.0909H27.7273V72.5025H23.0984L22.7522 75.5547H22.8161C23.0292 75.3488 23.3115 75.1765 23.663 75.038C24.0182 74.8995 24.3981 74.8303 24.803 74.8303C25.467 74.8303 26.0583 74.9883 26.5767 75.3044C27.0988 75.6204 27.5089 76.0519 27.8072 76.5988C28.1091 77.1421 28.2582 77.7671 28.2547 78.4738C28.2582 79.1804 28.0984 79.8108 27.7753 80.3647C27.4557 80.9187 27.0118 81.3555 26.4436 81.6751C25.879 81.9912 25.2309 82.1492 24.4993 82.1492Z" fill="#1F2F4C"/>
<path d="M74.5133 32.1492C73.7818 32.1492 73.1284 32.0231 72.5531 31.771C71.9814 31.5189 71.5286 31.1691 71.1948 30.7216C70.8645 30.2706 70.687 29.7486 70.6621 29.1556H72.3347C72.356 29.4787 72.4643 29.7593 72.6596 29.9972C72.8585 30.2316 73.1177 30.4127 73.4373 30.5405C73.7569 30.6684 74.112 30.7323 74.5027 30.7323C74.9324 30.7323 75.3123 30.6577 75.6426 30.5086C75.9764 30.3594 76.2374 30.1517 76.4256 29.8853C76.6138 29.6154 76.7079 29.3047 76.7079 28.9532C76.7079 28.5874 76.6138 28.266 76.4256 27.989C76.2409 27.7085 75.9693 27.4883 75.6106 27.3285C75.2555 27.1687 74.8258 27.0888 74.3216 27.0888H73.4V25.7465H74.3216C74.7264 25.7465 75.0815 25.6737 75.3869 25.5281C75.6958 25.3825 75.9373 25.1801 76.1113 24.9208C76.2853 24.6581 76.3723 24.3509 76.3723 23.9993C76.3723 23.662 76.296 23.369 76.1433 23.1204C75.9941 22.8683 75.7811 22.6712 75.5041 22.5291C75.2306 22.3871 74.9075 22.3161 74.5346 22.3161C74.1795 22.3161 73.8475 22.3818 73.5385 22.5132C73.2331 22.641 72.9846 22.8257 72.7928 23.0671C72.601 23.3051 72.498 23.5909 72.4838 23.9247H70.8912C70.9089 23.3353 71.0829 22.8168 71.4132 22.3693C71.747 21.9219 72.1873 21.5721 72.7342 21.32C73.2811 21.0679 73.8883 20.9418 74.5559 20.9418C75.2555 20.9418 75.8592 21.0785 76.367 21.3519C76.8784 21.6218 77.2725 21.9823 77.5495 22.4333C77.8301 22.8843 77.9686 23.3779 77.965 23.9141C77.9686 24.5249 77.7981 25.0434 77.4537 25.4695C77.1127 25.8956 76.6582 26.1815 76.09 26.3271V26.4123C76.8145 26.5224 77.3755 26.81 77.7733 27.2752C78.1745 27.7404 78.3734 28.3175 78.3699 29.0064C78.3734 29.6066 78.2065 30.1446 77.8691 30.6204C77.5353 31.0963 77.079 31.4709 76.5002 31.7443C75.9213 32.0142 75.2591 32.1492 74.5133 32.1492Z" fill="#1F2F4C"/>
<path fill-rule="evenodd" clip-rule="evenodd" d="M0 82H3.13015V80.5885H0V82ZM0 78.6443L0.386897 78.2394C1.05096 77.5647 1.56942 76.9912 1.94229 76.5189C2.31516 76.043 2.57617 75.6115 2.72532 75.2245C2.87802 74.8374 2.95437 74.4414 2.95437 74.0366C2.95437 73.4507 2.807 72.9251 2.51225 72.4599C2.21751 71.9912 1.80735 71.6218 1.28178 71.3519C0.898544 71.1512 0.471283 71.0241 0 70.9708V72.3787C0.15299 72.4149 0.297936 72.4669 0.434837 72.5345C0.729581 72.6765 0.96218 72.8807 1.13264 73.147C1.30309 73.4098 1.38832 73.7223 1.38832 74.0845C1.38832 74.4041 1.3244 74.706 1.19656 74.9901C1.06871 75.2742 0.875178 75.5742 0.615945 75.8903C0.442497 76.1023 0.237182 76.338 0 76.5974V78.6443Z" fill="#1F2F4C"/>
<path fill-rule="evenodd" clip-rule="evenodd" d="M75.5251 101H77.316C77.4959 100.724 77.6323 100.466 77.7253 100.224C77.878 99.8374 77.9544 99.4414 77.9544 99.0366C77.9544 98.4507 77.807 97.9251 77.5122 97.4599C77.2175 96.9912 76.8073 96.6218 76.2818 96.3519C75.7598 96.0785 75.1561 95.9418 74.4707 95.9418C73.7924 95.9418 73.187 96.0803 72.6543 96.3573C72.1216 96.6307 71.7026 97.016 71.3972 97.5132C71.0918 98.0103 70.9391 98.5909 70.9391 99.255H72.5105C72.5105 98.8644 72.5886 98.5235 72.7448 98.2323C72.9011 97.9411 73.1248 97.7156 73.416 97.5558C73.7072 97.396 74.0481 97.3161 74.4387 97.3161C74.808 97.3161 75.1401 97.3889 75.4348 97.5345C75.7296 97.6765 75.9622 97.8807 76.1326 98.147C76.3031 98.4098 76.3883 98.7223 76.3883 99.0845C76.3883 99.4041 76.3244 99.706 76.1965 99.9901C76.0687 100.274 75.8752 100.574 75.6159 100.89C75.5866 100.926 75.5563 100.963 75.5251 101Z" fill="#1F2F4C"/>
<path fill-rule="evenodd" clip-rule="evenodd" d="M45.642 1.00003C45.6212 1.29261 45.6108 1.59694 45.6108 1.91303C45.6108 2.918 45.7245 3.75607 45.9517 4.42723C46.1826 5.0984 46.4897 5.63284 46.8733 6.03057C47.2568 6.4283 47.6829 6.71239 48.1517 6.88284C48.624 7.0533 49.1034 7.14208 49.5899 7.14918C50.3498 7.15628 51.0139 6.99648 51.5821 6.66978C52.1503 6.33952 52.5906 5.89208 52.9031 5.32745C53.2191 4.76281 53.3772 4.13249 53.3772 3.43647C53.3772 2.74044 53.2245 2.12254 52.9191 1.58277C52.7989 1.37038 52.6625 1.17613 52.5099 1.00003H47.4963C47.4141 1.1026 47.3378 1.21162 47.2674 1.32709H47.1875C47.1879 1.21588 47.19 1.10686 47.1938 1.00003H45.642ZM50.7085 5.45529C50.3782 5.66125 50.0036 5.76424 49.5846 5.76424C49.1655 5.76424 48.7891 5.65948 48.4553 5.44996C48.125 5.23689 47.864 4.95635 47.6723 4.60834C47.4841 4.26033 47.39 3.88213 47.39 3.47375C47.39 3.16835 47.4468 2.87894 47.5604 2.6055C47.6776 2.32851 47.8374 2.08348 48.0398 1.87041C48.2422 1.65735 48.4766 1.49044 48.7429 1.3697C49.0128 1.24896 49.3058 1.1886 49.6218 1.1886C50.0373 1.1886 50.4066 1.2898 50.7298 1.49222C51.0565 1.69463 51.3122 1.96807 51.4968 2.31253C51.6851 2.65699 51.7792 3.03874 51.7792 3.45777C51.7792 3.88746 51.6833 4.27631 51.4915 4.62432C51.2998 4.97233 51.0388 5.24932 50.7085 5.45529Z" fill="#1F2F4C"/>
<path fill-rule="evenodd" clip-rule="evenodd" d="M22.1329 1.00003C22.3355 1.12624 22.5605 1.21928 22.8081 1.27915V1.34307C22.3962 1.41409 22.0233 1.581 21.6895 1.84378C21.3557 2.10301 21.0911 2.42794 20.8958 2.81857C20.7041 3.20564 20.6099 3.63 20.6135 4.09165C20.6099 4.68114 20.7733 5.20671 21.1036 5.66835C21.4338 6.13 21.8901 6.49222 22.4725 6.755C23.0585 7.01779 23.7332 7.14918 24.4967 7.14918C25.2531 7.14918 25.9224 7.01779 26.5048 6.755C27.0908 6.49222 27.5489 6.13 27.8791 5.66835C28.2094 5.20671 28.3763 4.68114 28.3798 4.09165C28.3763 3.63 28.2751 3.20564 28.0762 2.81857C27.8809 2.42794 27.6181 2.10301 27.2879 1.84378C26.9612 1.581 26.5936 1.41409 26.1852 1.34307V1.27915C26.4263 1.21928 26.6468 1.12624 26.8466 1.00003H22.1329ZM25.6685 5.5778C25.3383 5.72695 24.9477 5.80152 24.4967 5.80152C24.0421 5.80152 23.6479 5.72695 23.3141 5.5778C22.9803 5.4251 22.7229 5.21381 22.5418 4.94392C22.3642 4.67049 22.2772 4.35088 22.2808 3.98512C22.2772 3.60514 22.3713 3.26956 22.5631 2.97837C22.7548 2.68718 23.0176 2.45813 23.3514 2.29122C23.6852 2.12432 24.067 2.04087 24.4967 2.04087C24.9228 2.04087 25.301 2.12432 25.6313 2.29122C25.9615 2.45813 26.2225 2.68718 26.4143 2.97837C26.6096 3.26956 26.709 3.60514 26.7126 3.98512C26.709 4.35088 26.6167 4.67049 26.4356 4.94392C26.2545 5.21381 25.9988 5.4251 25.6685 5.5778Z" fill="#1F2F4C"/>
<path d="M15.1768 9.82325C15.0791 9.72562 14.9209 9.72562 14.8232 9.82325L13.2322 11.4142C13.1346 11.5119 13.1346 11.6702 13.2322 11.7678C13.3299 11.8654 13.4882 11.8654 13.5858 11.7678L15 10.3536L16.4142 11.7678C16.5118 11.8654 16.6701 11.8654 16.7678 11.7678C16.8654 11.6702 16.8654 11.5119 16.7678 11.4142L15.1768 9.82325ZM14.8232 26.1768C14.9209 26.2744 15.0791 26.2744 15.1768 26.1768L16.7678 24.5858C16.8654 24.4882 16.8654 24.3299 16.7678 24.2323C16.6701 24.1346 16.5118 24.1346 16.4142 24.2323L15 25.6465L13.5858 24.2323C13.4882 24.1346 13.3299 24.1346 13.2322 24.2323C13.1346 24.3299 13.1346 24.4882 13.2322 24.5858L14.8232 26.1768ZM14.75 10L14.75 26H15.25L15.25 10H14.75Z" fill="#1F2F4C"/>
<path d="M6.82322 17.8233C6.72559 17.9209 6.72559 18.0792 6.82322 18.1768L8.41421 19.7678C8.51184 19.8654 8.67014 19.8654 8.76777 19.7678C8.8654 19.6702 8.8654 19.5119 8.76777 19.4142L7.35355 18L8.76777 16.5858C8.8654 16.4882 8.8654 16.3299 8.76777 16.2323C8.67014 16.1346 8.51184 16.1346 8.41421 16.2323L6.82322 17.8233ZM23.1768 18.1768C23.2744 18.0792 23.2744 17.9209 23.1768 17.8233L21.5858 16.2323C21.4882 16.1346 21.3299 16.1346 21.2322 16.2323C21.1346 16.3299 21.1346 16.4882 21.2322 16.5858L22.6464 18L21.2322 19.4142C21.1346 19.5119 21.1346 19.6702 21.2322 19.7678C21.3299 19.8654 21.4882 19.8654 21.5858 19.7678L23.1768 18.1768ZM7 18.25H23V17.75H7V18.25Z" fill="#1F2F4C"/>
<rect x="11.25" y="14.25" width="7.5" height="7.5" stroke="#1F2F4C" stroke-width="0.5"/>
<path fill-rule="evenodd" clip-rule="evenodd" d="M25.3704 14.5H100V13.5H24.9327C25.0961 13.8237 25.2424 14.1574 25.3704 14.5ZM7.06729 13.5H0.000183105V14.5H6.62961C6.75764 14.1574 6.90393 13.8237 7.06729 13.5Z" fill="#1F2F4C"/>
<path fill-rule="evenodd" clip-rule="evenodd" d="M11.565 26.9653L11.7501 101.002L12.7501 100.998L12.5661 27.3949C12.2232 27.2695 11.8892 27.1259 11.565 26.9653ZM11.5203 9.05712C11.8436 8.89483 12.177 8.74957 12.5192 8.62249L12.5001 0.997808L11.5001 1.00225L11.5203 9.05712Z" fill="#1F2F4C"/>
<path fill-rule="evenodd" clip-rule="evenodd" d="M100 20.9708C99.8293 20.9515 99.6529 20.9418 99.4707 20.9418C98.7924 20.9418 98.187 21.0803 97.6543 21.3573C97.1216 21.6307 96.7026 22.016 96.3972 22.5132C96.0918 23.0103 95.9391 23.5909 95.9391 24.255H97.5105C97.5105 23.8644 97.5886 23.5235 97.7448 23.2323C97.9011 22.9411 98.1248 22.7156 98.416 22.5558C98.7072 22.396 99.0481 22.3161 99.4387 22.3161C99.6365 22.3161 99.8236 22.337 100 22.3787V20.9708ZM100 26.5974C99.8875 26.7203 99.7679 26.8486 99.6411 26.9823L95.9497 30.8068V32H100V30.5885H98.2189V30.5086L100 28.6443V26.5974Z" fill="#1F2F4C"/>
</svg>
