<svg width="101" height="102" viewBox="0 0 101 102" fill="none" xmlns="http://www.w3.org/2000/svg">
<rect x="0.500183" y="1.5011" width="99" height="98.9996" rx="9.5" stroke="#1F2F4C"/>
<path d="M87.0002 1.0011L87.2502 101.001" stroke="#1F2F4C"/>
<path d="M100 39.0011L-6.1214e-05 39.0011" stroke="#1F2F4C" stroke-opacity="0.8" stroke-width="0.5"/>
<path d="M100 89.0008L0.000182927 89.0008" stroke="#1F2F4C"/>
<path d="M45.9498 57.0011V55.8079L49.6412 51.9833C50.0354 51.5679 50.3603 51.2039 50.616 50.8914C50.8752 50.5753 51.0688 50.2752 51.1966 49.9912C51.3245 49.7071 51.3884 49.4052 51.3884 49.0856C51.3884 48.7234 51.3032 48.4109 51.1327 48.1481C50.9622 47.8818 50.7296 47.6776 50.4349 47.5355C50.1402 47.3899 49.8081 47.3171 49.4388 47.3171C49.0482 47.3171 48.7073 47.397 48.4161 47.5569C48.1249 47.7167 47.9012 47.9421 47.7449 48.2333C47.5887 48.5245 47.5105 48.8654 47.5105 49.2561H45.9392C45.9392 48.592 46.0919 48.0114 46.3973 47.5142C46.7027 47.0171 47.1217 46.6318 47.6544 46.3583C48.187 46.0814 48.7925 45.9429 49.4708 45.9429C50.1561 45.9429 50.7598 46.0796 51.2818 46.353C51.8074 46.6229 52.2176 46.9922 52.5123 47.461C52.8071 47.9262 52.9544 48.4517 52.9544 49.0377C52.9544 49.4425 52.8781 49.8385 52.7254 50.2255C52.5762 50.6126 52.3152 51.0441 51.9424 51.5199C51.5695 51.9922 51.051 52.5657 50.387 53.2404L48.219 55.5096V55.5895H53.1302V57.0011H45.9498Z" fill="#1F2F4C"/>
<path d="M21.5737 32.0011L26.3358 22.5835V22.5036H20.828V21.092H28.0403V22.5515L23.2942 32.0011H21.5737Z" fill="#1F2F4C"/>
<path d="M45.4131 79.8704V78.5387L50.1273 71.092H51.1766V73.0522H50.5108L47.139 78.3896V78.4748H53.6003V79.8704H45.4131ZM50.5854 82.0011V79.4656L50.596 78.8583V71.092H52.1568V82.0011H50.5854Z" fill="#1F2F4C"/>
<path d="M24.4994 82.1502C23.8318 82.1502 23.2316 82.0224 22.699 81.7667C22.1698 81.5075 21.7473 81.1524 21.4312 80.7014C21.1152 80.2504 20.9465 79.7355 20.9252 79.1566H22.5232C22.5623 79.6254 22.77 80.0107 23.1464 80.3125C23.5228 80.6144 23.9738 80.7653 24.4994 80.7653C24.9184 80.7653 25.2895 80.6694 25.6127 80.4777C25.9394 80.2823 26.1951 80.0142 26.3797 79.6733C26.5679 79.3324 26.662 78.9436 26.662 78.5068C26.662 78.0629 26.5662 77.6669 26.3744 77.3189C26.1826 76.9709 25.9181 76.6975 25.5807 76.4986C25.2469 76.2997 24.8634 76.1985 24.4301 76.195C24.0999 76.195 23.7679 76.2518 23.4341 76.3654C23.1002 76.4791 22.8304 76.6282 22.6244 76.8129L21.1169 76.5892L21.7295 71.092H27.7274V72.5036H23.0985L22.7522 75.5558H22.8162C23.0292 75.3498 23.3115 75.1776 23.6631 75.0391C24.0182 74.9006 24.3982 74.8314 24.803 74.8314C25.4671 74.8314 26.0583 74.9894 26.5768 75.3054C27.0988 75.6215 27.509 76.0529 27.8073 76.5998C28.1091 77.1431 28.2583 77.7681 28.2547 78.4748C28.2583 79.1815 28.0985 79.8118 27.7753 80.3658C27.4557 80.9198 27.0118 81.3566 26.4436 81.6762C25.879 81.9922 25.2309 82.1502 24.4994 82.1502Z" fill="#1F2F4C"/>
<path d="M74.5899 32.1502C74.1034 32.1431 73.624 32.0544 73.1517 31.8839C72.683 31.7135 72.2569 31.4294 71.8733 31.0316C71.4898 30.6339 71.1826 30.0995 70.9518 29.4283C70.7245 28.7571 70.6109 27.9191 70.6109 26.9141C70.6109 25.9624 70.705 25.1172 70.8932 24.3786C71.085 23.6399 71.3602 23.0167 71.7189 22.5089C72.0775 21.9975 72.5108 21.6087 73.0186 21.3424C73.5264 21.076 74.0963 20.9429 74.7284 20.9429C75.3783 20.9429 75.9554 21.0707 76.4596 21.3264C76.9639 21.5821 77.3723 21.9354 77.6848 22.3864C78.0008 22.8374 78.2015 23.3505 78.2867 23.9258H76.662C76.552 23.4713 76.3336 23.1002 76.0069 22.8125C75.6801 22.5249 75.254 22.3811 74.7284 22.3811C73.9294 22.3811 73.3062 22.7291 72.8588 23.4251C72.4149 24.1211 72.1912 25.0888 72.1876 26.3282H72.2675C72.4557 26.0192 72.6865 25.7564 72.96 25.5398C73.237 25.3196 73.5459 25.151 73.8868 25.0338C74.2313 24.913 74.5935 24.8527 74.9735 24.8527C75.6056 24.8527 76.1773 25.0071 76.6887 25.3161C77.2036 25.6215 77.6137 26.0441 77.9191 26.5838C78.2245 27.1236 78.3772 27.7415 78.3772 28.4375C78.3772 29.1336 78.2192 29.7639 77.9032 30.3285C77.5907 30.8931 77.1503 31.3406 76.5821 31.6708C76.014 31.9975 75.3499 32.1573 74.5899 32.1502ZM74.5846 30.7653C75.0037 30.7653 75.3783 30.6623 75.7086 30.4564C76.0388 30.2504 76.2998 29.9734 76.4916 29.6254C76.6833 29.2774 76.7792 28.8885 76.7792 28.4588C76.7792 28.0398 76.6851 27.6581 76.4969 27.3136C76.3123 26.9691 76.0566 26.6957 75.7299 26.4933C75.4067 26.2909 75.0374 26.1897 74.6219 26.1897C74.3059 26.1897 74.0129 26.25 73.743 26.3708C73.4767 26.4915 73.2423 26.6584 73.0399 26.8715C72.8375 27.0846 72.6777 27.3296 72.5605 27.6066C72.4468 27.88 72.39 28.1694 72.39 28.4748C72.39 28.8832 72.4841 29.2614 72.6723 29.6094C72.8641 29.9574 73.1251 30.238 73.4554 30.451C73.7892 30.6605 74.1656 30.7653 74.5846 30.7653Z" fill="#1F2F4C"/>
<circle cx="74.5001" cy="39.0011" r="2.5" fill="#1F2F4C"/>
<circle cx="49.5001" cy="64.0011" r="2.5" fill="#1F2F4C"/>
<circle cx="37" cy="27.5" r="2.25" stroke="#1F2F4C" stroke-width="0.5"/>
<circle cx="12" cy="51.5" r="2.25" stroke="#1F2F4C" stroke-width="0.5"/>
<circle cx="48.5" cy="14" r="2.25" stroke="#1F2F4C" stroke-width="0.5"/>
<circle cx="37" cy="77.5" r="2.25" stroke="#1F2F4C" stroke-width="0.5"/>
<circle cx="87.0001" cy="26.5011" r="2.5" fill="#1F2F4C"/>
<path fill-rule="evenodd" clip-rule="evenodd" d="M100 11.0511C99.8384 11.0183 99.6712 11.0011 99.5 11.0011C98.1193 11.0011 97 12.1204 97 13.5011C97 14.8818 98.1193 16.0011 99.5 16.0011C99.6712 16.0011 99.8384 15.9839 100 15.9511V11.0511Z" fill="#1F2F4C"/>
<path fill-rule="evenodd" clip-rule="evenodd" d="M39.45 101.001H34.55C34.7817 99.86 35.7906 99.0011 37 99.0011C38.2095 99.0011 39.2184 99.86 39.45 101.001Z" fill="#1F2F4C"/>
<mask id="path-19-inside-1_230_791" fill="white">
<path fill-rule="evenodd" clip-rule="evenodd" d="M1.00006 41.0013C1.60728 40.5452 2.00006 39.819 2.00006 39.0011C2.00006 38.1832 1.60728 37.457 1.00006 37.0009V41.0013Z"/>
</mask>
<path fill-rule="evenodd" clip-rule="evenodd" d="M1.00006 41.0013C1.60728 40.5452 2.00006 39.819 2.00006 39.0011C2.00006 38.1832 1.60728 37.457 1.00006 37.0009V41.0013Z" fill="#F1EADD"/>
<path d="M1.00006 41.0013H0.500061V42.0022L1.30035 41.4011L1.00006 41.0013ZM1.00006 37.0009L1.30035 36.6011L0.500061 36V37.0009H1.00006ZM1.50006 39.0011C1.50006 39.6551 1.18668 40.2358 0.699772 40.6015L1.30035 41.4011C2.02789 40.8546 2.50006 39.9829 2.50006 39.0011H1.50006ZM0.699772 37.4007C1.18668 37.7664 1.50006 38.3471 1.50006 39.0011H2.50006C2.50006 38.0193 2.02789 37.1476 1.30035 36.6011L0.699772 37.4007ZM0.500061 37.0009V41.0013H1.50006V37.0009H0.500061Z" fill="#1F2F4C" mask="url(#path-19-inside-1_230_791)"/>
<path fill-rule="evenodd" clip-rule="evenodd" d="M25.5251 101.001H27.3161C27.496 100.725 27.6324 100.467 27.7254 100.226C27.8781 99.8385 27.9544 99.4425 27.9544 99.0377C27.9544 98.4517 27.807 97.9262 27.5123 97.461C27.2176 96.9922 26.8074 96.6229 26.2818 96.353C25.7598 96.0796 25.1561 95.9429 24.4708 95.9429C23.7925 95.9429 23.187 96.0814 22.6544 96.3583C22.1217 96.6318 21.7026 97.0171 21.3972 97.5142C21.0919 98.0114 20.9392 98.592 20.9392 99.2561H22.5105C22.5105 98.8654 22.5887 98.5245 22.7449 98.2333C22.9012 97.9421 23.1249 97.7167 23.4161 97.5569C23.7073 97.397 24.0482 97.3171 24.4388 97.3171C24.8081 97.3171 25.1401 97.3899 25.4349 97.5355C25.7296 97.6776 25.9622 97.8818 26.1327 98.1481C26.3031 98.4109 26.3884 98.7234 26.3884 99.0856C26.3884 99.4052 26.3245 99.7071 26.1966 99.9912C26.0688 100.275 25.8752 100.575 25.616 100.891C25.5866 100.927 25.5563 100.964 25.5251 101.001Z" fill="#1F2F4C"/>
<path fill-rule="evenodd" clip-rule="evenodd" d="M100 70.9688C99.8371 70.9515 99.6694 70.9429 99.4968 70.9429C98.8256 70.9429 98.2273 71.0689 97.7017 71.3211C97.1761 71.5732 96.7624 71.9194 96.4606 72.3598C96.1623 72.7966 96.0149 73.2937 96.0184 73.8512C96.0149 74.4372 96.1765 74.9556 96.5032 75.4066C96.8299 75.8576 97.2649 76.1488 97.8082 76.2802V76.3441C97.3963 76.4152 97.0234 76.5821 96.6896 76.8448C96.3558 77.1041 96.0912 77.429 95.8959 77.8196C95.7042 78.2067 95.6101 78.6311 95.6136 79.0927C95.6101 79.6822 95.7734 80.2078 96.1037 80.6694C96.4339 81.1311 96.8902 81.4933 97.4726 81.7561C98.0586 82.0189 98.7333 82.1502 99.4968 82.1502C99.6691 82.1502 99.8369 82.1434 100 82.1298V80.7681C99.8416 80.7911 99.6739 80.8026 99.4968 80.8026C99.0422 80.8026 98.6481 80.728 98.3143 80.5789C97.9804 80.4262 97.723 80.2149 97.5419 79.945C97.3643 79.6716 97.2773 79.352 97.2809 78.9862C97.2773 78.6062 97.3714 78.2706 97.5632 77.9794C97.755 77.6882 98.0177 77.4592 98.3515 77.2923C98.6853 77.1254 99.0671 77.0419 99.4968 77.0419C99.6727 77.0419 99.8405 77.0562 100 77.0846V75.6737C99.8422 75.7087 99.6744 75.7262 99.4968 75.7262C99.1275 75.7262 98.8008 75.6534 98.5167 75.5078C98.2361 75.3622 98.016 75.1598 97.8562 74.9006C97.6964 74.6414 97.6182 74.3377 97.6218 73.9897C97.6182 73.6488 97.6946 73.3505 97.8508 73.0948C98.0071 72.8392 98.2255 72.6421 98.506 72.5036C98.7901 72.3615 99.1204 72.2905 99.4968 72.2905C99.6749 72.2905 99.8427 72.307 100 72.3401V70.9688Z" fill="#1F2F4C"/>
<path fill-rule="evenodd" clip-rule="evenodd" d="M70.8552 1.0011C70.9176 1.16785 70.9924 1.32836 71.0797 1.48263C71.3851 2.02241 71.7952 2.44677 72.3102 2.75572C72.8251 3.06466 73.3968 3.21914 74.0253 3.21914C74.4124 3.21914 74.7764 3.15877 75.1173 3.03803C75.4582 2.91729 75.7654 2.74684 76.0388 2.52667C76.3158 2.3065 76.5467 2.04371 76.7313 1.73831H76.8165C76.813 2.99187 76.5875 3.96843 76.1401 4.668C75.6926 5.36402 75.0694 5.71204 74.2704 5.71204C73.7484 5.71204 73.3222 5.56821 72.992 5.28057C72.6653 4.98938 72.4486 4.60941 72.3421 4.14066H70.7175C70.7956 4.73015 70.9927 5.25216 71.3087 5.70671C71.6248 6.1577 72.0349 6.51104 72.5392 6.76672C73.0435 7.02241 73.6205 7.15025 74.2704 7.15025C74.906 7.15025 75.4778 7.01708 75.9856 6.75074C76.4934 6.48441 76.9249 6.09556 77.28 5.5842C77.6386 5.07283 77.9138 4.44606 78.1056 3.70387C78.2974 2.95813 78.3932 2.10763 78.3932 1.15238C78.3931 1.10152 78.3926 1.0511 78.3918 1.0011H76.1279C76.077 1.06808 76.0225 1.13271 75.9643 1.19499C75.7619 1.40806 75.5257 1.57496 75.2558 1.6957C74.9859 1.81644 74.6947 1.87681 74.3822 1.87681C73.9632 1.87681 73.5903 1.77738 73.2636 1.57851C73.0195 1.42557 72.8138 1.2331 72.6467 1.0011H70.8552Z" fill="#1F2F4C"/>
<path d="M60.0001 58.048V57.5828H62.358V58.048H60.0001ZM60.0001 56.5991V56.1392H62.358V56.5991H60.0001ZM60.9393 57.288V55.4521H61.417V57.288H60.9393Z" fill="#1F2F4C"/>
<path d="M64.573 55.0011V58.6375H64.0226V55.5515H64.0013L63.1313 56.1197V55.5941L64.0386 55.0011H64.573Z" fill="#1F2F4C"/>
<path d="M54.292 64.217L54.3257 63.4677L53.6936 63.8743L53.5001 63.537L54.1712 63.1943L53.5001 62.8516L53.6936 62.5142L54.3257 62.9208L54.292 62.1716H54.6773L54.6435 62.9208L55.2756 62.5142L55.4692 62.8516L54.798 63.1943L55.4692 63.537L55.2756 63.8743L54.6435 63.4677L54.6773 64.217H54.292Z" fill="#1F2F4C"/>
<path d="M57.5297 62.0011L56.3578 66.3548H55.8838L57.0556 62.0011H57.5297Z" fill="#1F2F4C"/>
<path d="M57.9736 65.8079V65.4102L59.2041 64.1353C59.3355 63.9968 59.4438 63.8755 59.529 63.7713C59.6154 63.666 59.6799 63.566 59.7225 63.4713C59.7652 63.3766 59.7865 63.276 59.7865 63.1694C59.7865 63.0487 59.7581 62.9445 59.7012 62.8569C59.6444 62.7681 59.5669 62.7001 59.4686 62.6527C59.3704 62.6042 59.2597 62.5799 59.1366 62.5799C59.0064 62.5799 58.8928 62.6066 58.7957 62.6598C58.6986 62.7131 58.6241 62.7883 58.572 62.8853C58.5199 62.9824 58.4938 63.096 58.4938 63.2262H57.9701C57.9701 63.0049 58.021 62.8113 58.1228 62.6456C58.2246 62.4799 58.3642 62.3515 58.5418 62.2603C58.7193 62.168 58.9212 62.1218 59.1473 62.1218C59.3757 62.1218 59.5769 62.1674 59.7509 62.2586C59.9261 62.3485 60.0629 62.4716 60.1611 62.6279C60.2594 62.7829 60.3085 62.9581 60.3085 63.1534C60.3085 63.2884 60.283 63.4204 60.2321 63.5494C60.1824 63.6784 60.0954 63.8222 59.9711 63.9809C59.8468 64.1383 59.674 64.3295 59.4527 64.5544L58.73 65.3108V65.3374H60.3671V65.8079H57.9736Z" fill="#1F2F4C"/>
<circle cx="62" cy="51.5" r="2.25" stroke="#1F2F4C" stroke-width="0.5"/>
<path fill-rule="evenodd" clip-rule="evenodd" d="M60.9803 64.251C60.9934 64.1688 61.0001 64.0855 61.0001 64.0011C61.0001 63.9167 60.9934 63.8333 60.9803 63.751L100 63.7511V64.2511L60.9803 64.251ZM53.0198 64.251L0.0897217 64.251V63.751L53.0198 63.751C53.0068 63.8333 53.0001 63.9167 53.0001 64.0011C53.0001 64.0855 53.0067 64.1688 53.0198 64.251Z" fill="#1F2F4C" fill-opacity="0.8"/>
<path fill-rule="evenodd" clip-rule="evenodd" d="M50.9498 14.5011C50.9827 14.3392 51 14.1716 51 14C51 13.8292 50.9829 13.6623 50.9502 13.5011H100V14.5011H50.9498ZM46.0502 14.5011H0.000183105V13.5011H46.0498C46.0171 13.6623 46 13.8292 46 14C46 14.1716 46.0173 14.3392 46.0502 14.5011Z" fill="#1F2F4C"/>
<path fill-rule="evenodd" clip-rule="evenodd" d="M62.0002 101.002L61.8964 59.499C61.9308 59.5004 61.9653 59.5011 62.0001 59.5011C62.1349 59.5011 62.2673 59.4904 62.3964 59.4699L62.5002 101L62.0002 101.002ZM62.0001 54.5011C61.9611 54.5011 61.9224 54.502 61.8839 54.5038L61.8827 53.9973C61.9216 53.9991 61.9607 54 62 54C62.1301 54 62.2579 53.9901 62.3826 53.9709L62.384 54.5304C62.2588 54.5111 62.1306 54.5011 62.0001 54.5011ZM62.3702 49.0272C62.2494 49.0093 62.1258 49 62 49C61.9565 49 61.9132 49.0011 61.8702 49.0033L61.7502 1.00222L62.2502 1L62.3702 49.0272Z" fill="#1F2F4C" fill-opacity="0.8"/>
<path fill-rule="evenodd" clip-rule="evenodd" d="M11.6326 53.9732L11.7502 101.003L12.7502 100.999L12.6325 53.9193C12.4305 53.972 12.2185 54 12 54C11.8752 54 11.7525 53.9909 11.6326 53.9732ZM11.6202 49.0287C11.7441 49.0098 11.8709 49 12 49C12.2141 49 12.422 49.0269 12.6204 49.0776L12.5002 0.998876L11.5002 1.00332L11.6202 49.0287Z" fill="#1F2F4C"/>
<path fill-rule="evenodd" clip-rule="evenodd" d="M37.0001 14.0011H46C46.0006 15.3813 47.1197 16.5 48.5 16.5C49.8803 16.5 50.9994 15.3813 51 14.0011H62.0001V39.0011H37.0001V30C38.3807 30 39.5 28.8807 39.5 27.5C39.5 26.1193 38.3807 25 37.0001 25V14.0011Z" fill="#828387" fill-opacity="0.3"/>
<path fill-rule="evenodd" clip-rule="evenodd" d="M36.9352 75.0008L36.8227 29.9938C36.8812 29.9979 36.9404 30 37 30C37.1093 30 37.217 29.993 37.3226 29.9794L37.4353 75.0378C37.2939 75.0129 37.1485 75 37 75C36.9783 75 36.9567 75.0003 36.9352 75.0008ZM36.9477 79.9995L37.0002 101.002L37.5002 101L37.4476 79.96C37.3024 79.9863 37.1528 80 37 80C36.9825 80 36.9651 79.9998 36.9477 79.9995ZM37 25C36.9361 25 36.8728 25.0024 36.8102 25.0071L36.7502 1.00222L37.2502 1L37.3102 25.0191C37.2086 25.0065 37.105 25 37 25Z" fill="#1F2F4C" fill-opacity="0.8"/>
</svg>
