<svg width="100" height="101" viewBox="0 0 100 101" fill="none" xmlns="http://www.w3.org/2000/svg">
<rect x="0.5" y="0.500015" width="99" height="98.9996" rx="9.5" stroke="#1F2F4C"/>
<path d="M87 1.52588e-05L87.25 100" stroke="#1F2F4C" stroke-width="0.5"/>
<path d="M100 38L-6.1214e-05 38" stroke="#1F2F4C" stroke-opacity="0.8" stroke-width="0.5"/>
<path d="M100 87.9997L0.000182927 87.9997" stroke="#1F2F4C" stroke-width="0.5"/>
<path d="M100 63L0.0896628 62.9999" stroke="#1F2F4C" stroke-opacity="0.8" stroke-width="0.5"/>
<path d="M37 1.52588e-05L37.25 100" stroke="#1F2F4C" stroke-opacity="0.8" stroke-width="0.5"/>
<path d="M62 1.52588e-05L62.25 100" stroke="#1F2F4C" stroke-opacity="0.8" stroke-width="0.5"/>
<path d="M24.5899 56.1492C24.1034 56.1421 23.624 56.0533 23.1517 55.8828C22.6829 55.7124 22.2568 55.4283 21.8733 55.0306C21.4897 54.6328 21.1826 54.0984 20.9517 53.4272C20.7245 52.7561 20.6108 51.918 20.6108 50.913C20.6108 49.9613 20.7049 49.1161 20.8932 48.3775C21.0849 47.6389 21.3601 47.0156 21.7188 46.5078C22.0775 45.9965 22.5107 45.6076 23.0185 45.3413C23.5263 45.0749 24.0963 44.9418 24.7284 44.9418C25.3782 44.9418 25.9553 45.0696 26.4596 45.3253C26.9638 45.581 27.3722 45.9343 27.6847 46.3853C28.0008 46.8363 28.2014 47.3494 28.2866 47.9247H26.662C26.5519 47.4702 26.3335 47.0991 26.0068 46.8114C25.6801 46.5238 25.254 46.38 24.7284 46.38C23.9294 46.38 23.3062 46.728 22.8587 47.424C22.4148 48.12 22.1911 49.0877 22.1875 50.3271H22.2674C22.4557 50.0181 22.6865 49.7553 22.9599 49.5387C23.2369 49.3186 23.5459 49.1499 23.8868 49.0327C24.2312 48.9119 24.5934 48.8516 24.9734 48.8516C25.6055 48.8516 26.1772 49.0061 26.6886 49.315C27.2035 49.6204 27.6137 50.043 27.9191 50.5828C28.2245 51.1225 28.3772 51.7404 28.3772 52.4364C28.3772 53.1325 28.2191 53.7628 27.9031 54.3274C27.5906 54.8921 27.1503 55.3395 26.5821 55.6698C26.0139 55.9965 25.3498 56.1563 24.5899 56.1492ZM24.5846 54.7642C25.0036 54.7642 25.3782 54.6612 25.7085 54.4553C26.0388 54.2493 26.2998 53.9723 26.4915 53.6243C26.6833 53.2763 26.7792 52.8874 26.7792 52.4578C26.7792 52.0387 26.6851 51.657 26.4968 51.3125C26.3122 50.9681 26.0565 50.6946 25.7298 50.4922C25.4066 50.2898 25.0373 50.1886 24.6218 50.1886C24.3058 50.1886 24.0128 50.2489 23.7429 50.3697C23.4766 50.4904 23.2422 50.6573 23.0398 50.8704C22.8374 51.0835 22.6776 51.3285 22.5604 51.6055C22.4468 51.8789 22.39 52.1683 22.39 52.4737C22.39 52.8821 22.4841 53.2603 22.6723 53.6083C22.864 53.9563 23.125 54.2369 23.4553 54.4499C23.7891 54.6595 24.1655 54.7642 24.5846 54.7642Z" fill="#1F2F4C"/>
<path d="M76.1433 20.0909V31H74.492V21.7422H74.4281L71.818 23.4467V21.87L74.54 20.0909H76.1433Z" fill="#1F2F4C"/>
<path d="M74.5899 81.1492C74.1034 81.1421 73.624 81.0533 73.1517 80.8828C72.6829 80.7124 72.2568 80.4283 71.8733 80.0306C71.4897 79.6328 71.1826 79.0984 70.9517 78.4272C70.7245 77.7561 70.6108 76.918 70.6108 75.913C70.6108 74.9613 70.7049 74.1161 70.8932 73.3775C71.0849 72.6389 71.3601 72.0156 71.7188 71.5078C72.0775 70.9965 72.5107 70.6076 73.0185 70.3413C73.5263 70.0749 74.0963 69.9418 74.7284 69.9418C75.3782 69.9418 75.9553 70.0696 76.4596 70.3253C76.9638 70.581 77.3722 70.9343 77.6847 71.3853C78.0008 71.8363 78.2014 72.3494 78.2866 72.9247H76.662C76.5519 72.4702 76.3335 72.0991 76.0068 71.8114C75.6801 71.5238 75.254 71.38 74.7284 71.38C73.9294 71.38 73.3062 71.728 72.8587 72.424C72.4148 73.12 72.1911 74.0877 72.1875 75.3271H72.2674C72.4557 75.0181 72.6865 74.7553 72.9599 74.5387C73.2369 74.3186 73.5459 74.1499 73.8868 74.0327C74.2312 73.9119 74.5934 73.8516 74.9734 73.8516C75.6055 73.8516 76.1772 74.0061 76.6886 74.315C77.2035 74.6204 77.6137 75.043 77.9191 75.5828C78.2245 76.1225 78.3772 76.7404 78.3772 77.4364C78.3772 78.1325 78.2191 78.7628 77.9031 79.3274C77.5906 79.8921 77.1503 80.3395 76.5821 80.6698C76.0139 80.9965 75.3498 81.1563 74.5899 81.1492ZM74.5846 79.7642C75.0036 79.7642 75.3782 79.6612 75.7085 79.4553C76.0388 79.2493 76.2998 78.9723 76.4915 78.6243C76.6833 78.2763 76.7792 77.8874 76.7792 77.4578C76.7792 77.0387 76.6851 76.657 76.4968 76.3125C76.3122 75.9681 76.0565 75.6946 75.7298 75.4922C75.4066 75.2898 75.0373 75.1886 74.6218 75.1886C74.3058 75.1886 74.0128 75.2489 73.7429 75.3697C73.4766 75.4904 73.2422 75.6573 73.0398 75.8704C72.8374 76.0835 72.6776 76.3285 72.5604 76.6055C72.4468 76.8789 72.39 77.1683 72.39 77.4737C72.39 77.8821 72.4841 78.2603 72.6723 78.6083C72.864 78.9563 73.125 79.2369 73.4553 79.4499C73.7891 79.6595 74.1655 79.7642 74.5846 79.7642Z" fill="#1F2F4C"/>
<path d="M49.4967 31.1492C48.7332 31.1492 48.0585 31.0178 47.4725 30.755C46.8901 30.4922 46.4338 30.13 46.1036 29.6683C45.7733 29.2067 45.61 28.6811 45.6135 28.0916C45.61 27.63 45.7041 27.2056 45.8958 26.8186C46.0911 26.4279 46.3557 26.103 46.6895 25.8438C47.0233 25.581 47.3962 25.4141 47.8081 25.3431V25.2791C47.2648 25.1477 46.8298 24.8565 46.5031 24.4056C46.1764 23.9546 46.0148 23.4361 46.0183 22.8502C46.0148 22.2926 46.1622 21.7955 46.4604 21.3587C46.7623 20.9183 47.176 20.5721 47.7016 20.32C48.2271 20.0678 48.8255 19.9418 49.4967 19.9418C50.1607 19.9418 50.7538 20.0696 51.2758 20.3253C51.8014 20.5774 52.2151 20.9237 52.5169 21.364C52.8188 21.8008 52.9715 22.2962 52.975 22.8502C52.9715 23.4361 52.8046 23.9546 52.4743 24.4056C52.144 24.8565 51.7144 25.1477 51.1852 25.2791V25.3431C51.5936 25.4141 51.9612 25.581 52.2879 25.8438C52.6181 26.103 52.8809 26.4279 53.0762 26.8186C53.2751 27.2056 53.3763 27.63 53.3798 28.0916C53.3763 28.6811 53.2094 29.2067 52.8791 29.6683C52.5489 30.13 52.0908 30.4922 51.5048 30.755C50.9225 31.0178 50.2531 31.1492 49.4967 31.1492ZM49.4967 29.8015C49.9477 29.8015 50.3383 29.7269 50.6685 29.5778C50.9988 29.4251 51.2545 29.2138 51.4356 28.9439C51.6167 28.6705 51.709 28.3509 51.7126 27.9851C51.709 27.6051 51.6096 27.2695 51.4143 26.9784C51.2225 26.6872 50.9615 26.4581 50.6313 26.2912C50.301 26.1243 49.9228 26.0409 49.4967 26.0409C49.067 26.0409 48.6852 26.1243 48.3514 26.2912C48.0176 26.4581 47.7548 26.6872 47.5631 26.9784C47.3713 27.2695 47.2772 27.6051 47.2808 27.9851C47.2772 28.3509 47.3642 28.6705 47.5418 28.9439C47.7229 29.2138 47.9803 29.4251 48.3141 29.5778C48.6479 29.7269 49.0421 29.8015 49.4967 29.8015ZM49.4967 24.7252C49.8589 24.7252 50.1803 24.6524 50.4608 24.5068C50.7413 24.3612 50.9615 24.1588 51.1213 23.8995C51.2847 23.6403 51.3681 23.3367 51.3717 22.9887C51.3681 22.6477 51.2864 22.3494 51.1266 22.0938C50.9704 21.8381 50.752 21.641 50.4715 21.5025C50.1909 21.3605 49.866 21.2894 49.4967 21.2894C49.1203 21.2894 48.79 21.3605 48.5059 21.5025C48.2254 21.641 48.007 21.8381 47.8507 22.0938C47.6945 22.3494 47.6181 22.6477 47.6217 22.9887C47.6181 23.3367 47.6962 23.6403 47.856 23.8995C48.0158 24.1588 48.236 24.3612 48.5166 24.5068C48.8006 24.6524 49.1274 24.7252 49.4967 24.7252Z" fill="#1F2F4C"/>
<path d="M24.4967 81.1492C23.7332 81.1492 23.0585 81.0178 22.4725 80.755C21.8901 80.4922 21.4338 80.13 21.1036 79.6683C20.7733 79.2067 20.61 78.6811 20.6135 78.0916C20.61 77.63 20.7041 77.2056 20.8958 76.8186C21.0911 76.4279 21.3557 76.103 21.6895 75.8438C22.0233 75.581 22.3962 75.4141 22.8081 75.3431V75.2791C22.2648 75.1477 21.8298 74.8565 21.5031 74.4056C21.1764 73.9546 21.0148 73.4361 21.0183 72.8502C21.0148 72.2926 21.1622 71.7955 21.4604 71.3587C21.7623 70.9183 22.176 70.5721 22.7016 70.32C23.2271 70.0678 23.8255 69.9418 24.4967 69.9418C25.1607 69.9418 25.7538 70.0696 26.2758 70.3253C26.8014 70.5774 27.2151 70.9237 27.5169 71.364C27.8188 71.8008 27.9715 72.2962 27.975 72.8502C27.9715 73.4361 27.8046 73.9546 27.4743 74.4056C27.144 74.8565 26.7144 75.1477 26.1852 75.2791V75.3431C26.5936 75.4141 26.9612 75.581 27.2879 75.8438C27.6181 76.103 27.8809 76.4279 28.0762 76.8186C28.2751 77.2056 28.3763 77.63 28.3798 78.0916C28.3763 78.6811 28.2094 79.2067 27.8791 79.6683C27.5489 80.13 27.0908 80.4922 26.5048 80.755C25.9225 81.0178 25.2531 81.1492 24.4967 81.1492ZM24.4967 79.8015C24.9477 79.8015 25.3383 79.7269 25.6685 79.5778C25.9988 79.4251 26.2545 79.2138 26.4356 78.9439C26.6167 78.6705 26.709 78.3509 26.7126 77.9851C26.709 77.6051 26.6096 77.2695 26.4143 76.9784C26.2225 76.6872 25.9615 76.4581 25.6313 76.2912C25.301 76.1243 24.9228 76.0409 24.4967 76.0409C24.067 76.0409 23.6852 76.1243 23.3514 76.2912C23.0176 76.4581 22.7548 76.6872 22.5631 76.9784C22.3713 77.2695 22.2772 77.6051 22.2808 77.9851C22.2772 78.3509 22.3642 78.6705 22.5418 78.9439C22.7229 79.2138 22.9803 79.4251 23.3141 79.5778C23.6479 79.7269 24.0421 79.8015 24.4967 79.8015ZM24.4967 74.7252C24.8589 74.7252 25.1803 74.6524 25.4608 74.5068C25.7413 74.3612 25.9615 74.1588 26.1213 73.8995C26.2847 73.6403 26.3681 73.3367 26.3717 72.9887C26.3681 72.6477 26.2864 72.3494 26.1266 72.0938C25.9704 71.8381 25.752 71.641 25.4715 71.5025C25.1909 71.3605 24.866 71.2894 24.4967 71.2894C24.1203 71.2894 23.79 71.3605 23.5059 71.5025C23.2254 71.641 23.007 71.8381 22.8507 72.0938C22.6945 72.3494 22.6181 72.6477 22.6217 72.9887C22.6181 73.3367 22.6962 73.6403 22.856 73.8995C23.0158 74.1588 23.236 74.3612 23.5166 74.5068C23.8006 74.6524 24.1274 74.7252 24.4967 74.7252Z" fill="#1F2F4C"/>
<path fill-rule="evenodd" clip-rule="evenodd" d="M0 56.1287C0.553495 56.0825 1.05511 55.9579 1.50484 55.755C2.09078 55.4922 2.54887 55.13 2.87913 54.6683C3.20938 54.2067 3.37629 53.6811 3.37984 53.0916C3.37629 52.63 3.27508 52.2056 3.07622 51.8185C2.8809 51.4279 2.61812 51.103 2.28786 50.8438C1.96116 50.581 1.59362 50.4141 1.18524 50.343V50.2791C1.71436 50.1477 2.14404 49.8565 2.4743 49.4055C2.80455 48.9545 2.97146 48.4361 2.97501 47.8501C2.97146 47.2962 2.81876 46.8008 2.51691 46.364C2.21507 45.9237 1.80136 45.5774 1.27579 45.3253C0.889432 45.1361 0.464169 45.0168 0 44.9677V46.339C0.169052 46.3744 0.326205 46.4289 0.471458 46.5025C0.751998 46.641 0.970393 46.8381 1.12664 47.0938C1.28644 47.3494 1.36812 47.6477 1.37167 47.9886C1.36812 48.3367 1.28467 48.6403 1.12132 48.8995C0.961515 49.1587 0.741344 49.3612 0.460804 49.5068C0.317813 49.581 0.164211 49.6363 0 49.6726V51.0835C0.226944 51.124 0.437364 51.1932 0.631259 51.2912C0.961515 51.4581 1.22252 51.6871 1.41428 51.9783C1.6096 52.2695 1.70903 52.6051 1.71258 52.9851C1.70903 53.3509 1.6167 53.6705 1.43559 53.9439C1.25448 54.2138 0.998802 54.4251 0.668546 54.5778C0.467966 54.6684 0.245117 54.7314 0 54.767V56.1287Z" fill="#1F2F4C"/>
<path fill-rule="evenodd" clip-rule="evenodd" d="M100 19.9708C99.8295 19.9515 99.653 19.9418 99.4708 19.9418C98.7925 19.9418 98.1871 20.0803 97.6544 20.3573C97.1217 20.6307 96.7027 21.016 96.3973 21.5132C96.0919 22.0103 95.9392 22.5909 95.9392 23.255H97.5106C97.5106 22.8644 97.5887 22.5235 97.745 22.2323C97.9012 21.9411 98.1249 21.7156 98.4161 21.5558C98.7073 21.396 99.0482 21.3161 99.4389 21.3161C99.6366 21.3161 99.8237 21.337 100 21.3787V19.9708ZM100 25.5974C99.8877 25.7203 99.768 25.8486 99.6413 25.9823L95.9499 29.8068V31H100V29.5884H98.219V29.5085L100 27.6443V25.5974Z" fill="#1F2F4C"/>
<path fill-rule="evenodd" clip-rule="evenodd" d="M50.8471 95.2081C50.3748 95.0341 49.8954 94.9453 49.4089 94.9418C48.6454 94.9347 47.9795 95.0962 47.4114 95.4265C46.8467 95.7532 46.4064 96.1971 46.0903 96.7582C45.7778 97.3192 45.6216 97.9442 45.6216 98.6332C45.6216 99.1277 45.6995 99.5833 45.8552 100H47.6467C47.5926 99.9249 47.5426 99.8457 47.4966 99.7624C47.3119 99.418 47.2196 99.0344 47.2196 98.6119C47.2196 98.1893 47.3155 97.8057 47.5072 97.4613C47.699 97.1133 47.96 96.8381 48.2903 96.6356C48.6241 96.4297 48.9987 96.3267 49.4142 96.3267C49.8368 96.3267 50.2132 96.4332 50.5435 96.6463C50.8737 96.8558 51.1329 97.1328 51.3212 97.4773C51.5129 97.8217 51.6088 98.1946 51.6088 98.5959C51.6088 98.8977 51.552 99.1854 51.4383 99.4588C51.3574 99.6536 51.2539 99.834 51.1279 100H53.3918C53.3774 99.0724 53.2607 98.2918 53.0417 97.6584C52.8144 96.9872 52.509 96.4545 52.1255 96.0604C51.7455 95.6662 51.3194 95.3821 50.8471 95.2081Z" fill="#1F2F4C"/>
<path fill-rule="evenodd" clip-rule="evenodd" d="M70.8553 1.52588e-05C70.9176 0.166763 70.9925 0.327275 71.0797 0.481549C71.3851 1.02132 71.7953 1.44568 72.3102 1.75463C72.8251 2.06358 73.3969 2.21806 74.0254 2.21806C74.4125 2.21806 74.7765 2.15769 75.1174 2.03695C75.4583 1.91621 75.7655 1.74575 76.0389 1.52558C76.3159 1.30541 76.5467 1.04263 76.7314 0.737231H76.8166C76.8131 1.99078 76.5876 2.96734 76.1401 3.66692C75.6927 4.36294 75.0694 4.71095 74.2704 4.71095C73.7484 4.71095 73.3223 4.56713 72.992 4.27949C72.6653 3.9883 72.4487 3.60832 72.3422 3.13957H70.7175C70.7957 3.72906 70.9927 4.25108 71.3088 4.70563C71.6248 5.15662 72.035 5.50996 72.5393 5.76564C73.0435 6.02132 73.6206 6.14916 74.2704 6.14916C74.9061 6.14916 75.4778 6.016 75.9856 5.74966C76.4935 5.48333 76.9249 5.09448 77.28 4.58311C77.6387 4.07175 77.9139 3.44497 78.1057 2.70279C78.2974 1.95705 78.3933 1.10655 78.3933 0.151294C78.3931 0.10044 78.3927 0.0500141 78.3919 1.52588e-05H76.1279C76.0771 0.0669944 76.0225 0.131625 75.9643 0.193907C75.7619 0.406975 75.5258 0.573879 75.2559 0.694617C74.986 0.815356 74.6948 0.875725 74.3823 0.875725C73.9633 0.875725 73.5904 0.776293 73.2637 0.57743C73.0195 0.424491 72.8139 0.232019 72.6468 1.52588e-05H70.8553Z" fill="#1F2F4C"/>
<path fill-rule="evenodd" clip-rule="evenodd" d="M25.6172 13.25H100.001V12.75H25.4601C25.5167 12.9148 25.5691 13.0815 25.6172 13.25ZM6.54004 12.75H0.000244141V13.25H6.38294C6.43104 13.0815 6.48345 12.9148 6.54004 12.75Z" fill="#1F2F4C"/>
<path fill-rule="evenodd" clip-rule="evenodd" d="M11.8102 24.0826L12 100.001L12.5 99.9989L12.3107 24.2975C12.1416 24.2303 11.9747 24.1586 11.8102 24.0826ZM11.7648 5.93851C11.9289 5.86168 12.0955 5.78918 12.2643 5.72115L12.25 -0.00108337L11.75 0.00113885L11.7648 5.93851Z" fill="#1F2F4C"/>
<path d="M16.1768 6.82324C16.0791 6.72561 15.9209 6.72561 15.8232 6.82324L14.2322 8.41423C14.1346 8.51186 14.1346 8.67015 14.2322 8.76778C14.3299 8.86541 14.4882 8.86541 14.5858 8.76778L16 7.35357L17.4142 8.76778C17.5118 8.86541 17.6701 8.86541 17.7678 8.76778C17.8654 8.67015 17.8654 8.51186 17.7678 8.41423L16.1768 6.82324ZM15.8232 23.1768C15.9209 23.2744 16.0791 23.2744 16.1768 23.1768L17.7678 21.5858C17.8654 21.4882 17.8654 21.3299 17.7678 21.2322C17.6701 21.1346 17.5118 21.1346 17.4142 21.2322L16 22.6465L14.5858 21.2322C14.4882 21.1346 14.3299 21.1346 14.2322 21.2322C14.1346 21.3299 14.1346 21.4882 14.2322 21.5858L15.8232 23.1768ZM15.75 7.00002L15.75 23H16.25V7.00002H15.75Z" fill="#1F2F4C"/>
<path d="M7.82322 14.8232C7.72559 14.9209 7.72559 15.0792 7.82322 15.1768L9.41421 16.7678C9.51184 16.8654 9.67014 16.8654 9.76777 16.7678C9.8654 16.6702 9.8654 16.5119 9.76777 16.4142L8.35355 15L9.76777 13.5858C9.8654 13.4882 9.8654 13.3299 9.76777 13.2322C9.67014 13.1346 9.51184 13.1346 9.41421 13.2322L7.82322 14.8232ZM24.1768 15.1768C24.2744 15.0792 24.2744 14.9209 24.1768 14.8232L22.5858 13.2322C22.4882 13.1346 22.3299 13.1346 22.2322 13.2322C22.1346 13.3299 22.1346 13.4882 22.2322 13.5858L23.6464 15L22.2322 16.4142C22.1346 16.5119 22.1346 16.6702 22.2322 16.7678C22.3299 16.8654 22.4882 16.8654 22.5858 16.7678L24.1768 15.1768ZM8 15.25H24V14.75H8V15.25Z" fill="#1F2F4C"/>
<rect x="37" y="38" width="25" height="25" fill="#828387" fill-opacity="0.3"/>
</svg>
