<svg width="100" height="100" viewBox="0 0 100 100" fill="none" xmlns="http://www.w3.org/2000/svg">
<rect x="50" y="74" width="25" height="25" fill="#828387" fill-opacity="0.3"/>
<rect x="0.5" y="0.5" width="99" height="98.9996" rx="9.5" stroke="#1F2F4C"/>
<path d="M34.1795 18V7.09091H41.019V8.50781H35.8254V11.8317H40.6621V13.2433H35.8254V16.5831H41.0829V18H34.1795Z" fill="#1F2F4C"/>
<path d="M59.3686 68H57.6214L61.5472 57.0909H63.4488L67.3746 68H65.6274L62.5433 59.0724H62.4581L59.3686 68ZM59.6615 63.728H65.3291V65.1129H59.6615V63.728Z" fill="#1F2F4C"/>
<path d="M84.3686 93H82.6214L86.5472 82.0909H88.4488L92.3746 93H90.6274L87.5433 84.0724H87.4581L84.3686 93ZM84.6615 88.728H90.3291V90.1129H84.6615V88.728Z" fill="#1F2F4C"/>
<path d="M34.1795 43V32.0909H41.019V33.5078H35.8254V36.8317H40.6621V38.2433H35.8254V41.5831H41.0829V43H34.1795Z" fill="#1F2F4C"/>
<path d="M59.3686 18H57.6214L61.5472 7.09091H63.4488L67.3746 18H65.6274L62.5433 9.07244H62.4581L59.3686 18ZM59.6615 13.728H65.3291V15.1129H59.6615V13.728Z" fill="#1F2F4C"/>
<path d="M9.17947 42.9999V32.0908H16.019V33.5077H10.8254V36.8316H15.6621V38.2431H10.8254V41.583H16.0829V42.9999H9.17947Z" fill="#1F2F4C"/>
<path d="M9.17947 92.9997V82.0906H16.019V83.5075H10.8254V86.8314H15.6621V88.2429H10.8254V91.5828H16.0829V92.9997H9.17947Z" fill="#1F2F4C"/>
<path d="M8.79128 67.9998V57.0907H12.7863C13.5605 57.0907 14.2014 57.2186 14.7093 57.4742C15.2171 57.7264 15.597 58.0691 15.8492 58.5023C16.1013 58.932 16.2274 59.4167 16.2274 59.9565C16.2274 60.411 16.1439 60.7946 15.977 61.1071C15.8101 61.416 15.5864 61.6646 15.3058 61.8528C15.0289 62.0375 14.7235 62.1724 14.3896 62.2576V62.3642C14.7519 62.3819 15.1052 62.4991 15.4497 62.7157C15.7977 62.9288 16.0853 63.2324 16.3126 63.6266C16.5399 64.0208 16.6535 64.5002 16.6535 65.0648C16.6535 65.6223 16.5221 66.123 16.2593 66.5669C16.0001 67.0073 15.5988 67.3571 15.0555 67.6163C14.5122 67.872 13.8179 67.9998 12.9727 67.9998H8.79128ZM10.4372 66.5882H12.8129C13.6013 66.5882 14.1659 66.4355 14.5068 66.1301C14.8477 65.8247 15.0182 65.443 15.0182 64.9849C15.0182 64.6404 14.9312 64.3244 14.7572 64.0367C14.5832 63.7491 14.3346 63.5201 14.0115 63.3496C13.6919 63.1791 13.3119 63.0939 12.8715 63.0939H10.4372V66.5882ZM10.4372 61.8102H12.6425C13.0118 61.8102 13.3438 61.7392 13.6386 61.5971C13.9369 61.4551 14.173 61.2562 14.347 61.0005C14.5246 60.7413 14.6134 60.4359 14.6134 60.0843C14.6134 59.6333 14.4553 59.2551 14.1393 58.9497C13.8232 58.6443 13.3385 58.4916 12.6851 58.4916H10.4372V61.8102Z" fill="#1F2F4C"/>
<path d="M84.1795 18V7.09091H91.019V8.50781H85.8254V11.8317H90.6621V13.2433H85.8254V16.5831H91.0829V18H84.1795Z" fill="#1F2F4C"/>
<path fill-rule="evenodd" clip-rule="evenodd" d="M100 24.9999L25 25L25 24L100 23.9999L100 24.9999Z" fill="#1F2F4C"/>
<path fill-rule="evenodd" clip-rule="evenodd" d="M100 74.9997L25 74.9997L25 73.9997L100 73.9997L100 74.9997Z" fill="#1F2F4C"/>
<path fill-rule="evenodd" clip-rule="evenodd" d="M49.75 100L49.5 25.0016L50.5 24.9982L50.75 99.9971L49.75 100Z" fill="#1F2F4C"/>
<path fill-rule="evenodd" clip-rule="evenodd" d="M100 49.9998L25 49.9998L25 48.9998L100 48.9998L100 49.9998Z" fill="#1F2F4C"/>
<path fill-rule="evenodd" clip-rule="evenodd" d="M74.75 100L74.5 25.0016L75.5 24.9982L75.75 99.9971L74.75 100Z" fill="#1F2F4C"/>
<path fill-rule="evenodd" clip-rule="evenodd" d="M24.75 100L24.5 24.0016L25.5 23.9984L25.75 99.9971L24.75 100Z" fill="#1F2F4C"/>
<path d="M62.8232 55.1768C62.9209 55.2744 63.0791 55.2744 63.1768 55.1768L64.7678 53.5858C64.8654 53.4882 64.8654 53.3299 64.7678 53.2322C64.6701 53.1346 64.5118 53.1346 64.4142 53.2322L63 54.6464L61.5858 53.2322C61.4882 53.1346 61.3299 53.1346 61.2322 53.2322C61.1346 53.3299 61.1346 53.4882 61.2322 53.5858L62.8232 55.1768ZM62.75 18V19.5417H63.25V18H62.75ZM62.75 20.5694V23.6528H63.25V20.5694H62.75ZM62.75 24.6806V27.7639H63.25V24.6806H62.75ZM62.75 28.7917V31.875H63.25V28.7917H62.75ZM62.75 32.9028V35.9861H63.25V32.9028H62.75ZM62.75 37.0139V40.0972H63.25V37.0139H62.75ZM62.75 41.125V44.2083H63.25V41.125H62.75ZM62.75 45.2361V48.3194H63.25V45.2361H62.75ZM62.75 49.3472V52.4306H63.25V49.3472H62.75ZM62.75 53.4583V55H63.25V53.4583H62.75ZM62.6464 55.3536C62.8417 55.5488 63.1583 55.5488 63.3536 55.3536L66.5355 52.1716C66.7308 51.9763 66.7308 51.6597 66.5355 51.4645C66.3403 51.2692 66.0237 51.2692 65.8284 51.4645L63 54.2929L60.1716 51.4645C59.9763 51.2692 59.6597 51.2692 59.4645 51.4645C59.2692 51.6597 59.2692 51.9763 59.4645 52.1716L62.6464 55.3536ZM62.5 18V19.5417H63.5V18H62.5ZM62.5 20.5694V23.6528H63.5V20.5694H62.5ZM62.5 24.6806V27.7639H63.5V24.6806H62.5ZM62.5 28.7917V31.875H63.5V28.7917H62.5ZM62.5 32.9028V35.9861H63.5V32.9028H62.5ZM62.5 37.0139V40.0972H63.5V37.0139H62.5ZM62.5 41.125V44.2083H63.5V41.125H62.5ZM62.5 45.2361V48.3194H63.5V45.2361H62.5ZM62.5 49.3472V52.4306H63.5V49.3472H62.5ZM62.5 53.4583V55H63.5V53.4583H62.5Z" fill="#1F2F4C"/>
<path d="M36.8232 30.1768C36.9209 30.2744 37.0791 30.2744 37.1768 30.1768L38.7678 28.5858C38.8654 28.4882 38.8654 28.3299 38.7678 28.2322C38.6701 28.1346 38.5118 28.1346 38.4142 28.2322L37 29.6464L35.5858 28.2322C35.4882 28.1346 35.3299 28.1346 35.2322 28.2322C35.1346 28.3299 35.1346 28.4882 35.2322 28.5858L36.8232 30.1768ZM36.75 18V19.5H37.25V18H36.75ZM36.75 20.5V23.5H37.25V20.5H36.75ZM36.75 24.5V27.5H37.25V24.5H36.75ZM36.75 28.5V30H37.25V28.5H36.75ZM36.6464 30.3536C36.8417 30.5488 37.1583 30.5488 37.3536 30.3536L40.5355 27.1716C40.7308 26.9763 40.7308 26.6597 40.5355 26.4645C40.3403 26.2692 40.0237 26.2692 39.8284 26.4645L37 29.2929L34.1716 26.4645C33.9763 26.2692 33.6597 26.2692 33.4645 26.4645C33.2692 26.6597 33.2692 26.9763 33.4645 27.1716L36.6464 30.3536ZM36.5 18V19.5H37.5V18H36.5ZM36.5 20.5V23.5H37.5V20.5H36.5ZM36.5 24.5V27.5H37.5V24.5H36.5ZM36.5 28.5V30H37.5V28.5H36.5Z" fill="#1F2F4C"/>
<path d="M32.1768 37.6768C32.2744 37.5791 32.2744 37.4209 32.1768 37.3232L30.5858 35.7322C30.4882 35.6346 30.3299 35.6346 30.2322 35.7322C30.1346 35.8299 30.1346 35.9882 30.2322 36.0858L31.6464 37.5L30.2322 38.9142C30.1346 39.0118 30.1346 39.1701 30.2322 39.2678C30.3299 39.3654 30.4882 39.3654 30.5858 39.2678L32.1768 37.6768ZM17 37.75H18.4063V37.25H17V37.75ZM19.3438 37.75H22.1563V37.25H19.3438V37.75ZM23.0938 37.75H25.9063V37.25H23.0938V37.75ZM26.8438 37.75H29.6563V37.25H26.8438V37.75ZM30.5938 37.75H32V37.25H30.5938V37.75ZM32.3536 37.8536C32.5488 37.6583 32.5488 37.3417 32.3536 37.1464L29.1716 33.9645C28.9763 33.7692 28.6597 33.7692 28.4645 33.9645C28.2692 34.1597 28.2692 34.4763 28.4645 34.6716L31.2929 37.5L28.4645 40.3284C28.2692 40.5237 28.2692 40.8403 28.4645 41.0355C28.6597 41.2308 28.9763 41.2308 29.1716 41.0355L32.3536 37.8536ZM17 38H18.4063V37H17V38ZM19.3438 38H22.1563V37H19.3438V38ZM23.0938 38H25.9063V37H23.0938V38ZM26.8438 38H29.6563V37H26.8438V38ZM30.5938 38H32V37H30.5938V38Z" fill="#1F2F4C"/>
</svg>
