<svg width="101" height="102" viewBox="0 0 101 102" fill="none" xmlns="http://www.w3.org/2000/svg">
<rect x="62" y="39" width="25" height="25" fill="#828387" fill-opacity="0.3"/>
<rect x="0.5" y="1.5" width="99" height="98.9996" rx="9.5" stroke="#1F2F4C"/>
<path d="M21 42.967V42.5H23.2745V42.967H21ZM21 44.0607V43.5938H23.2745V44.0607H21Z" fill="#1F2F4C"/>
<path d="M91.2944 45.2358C91.0399 45.2358 90.815 45.192 90.6197 45.1044C90.4256 45.0168 90.2735 44.8961 90.1634 44.7422C90.0533 44.5883 89.9988 44.4131 90 44.2166C89.9988 44.0627 90.0302 43.9213 90.0941 43.7923C90.1592 43.6621 90.2474 43.5537 90.3587 43.4673C90.47 43.3797 90.5943 43.3241 90.7316 43.3004V43.2791C90.5505 43.2353 90.4055 43.1383 90.2966 42.9879C90.1877 42.8376 90.1338 42.6648 90.135 42.4695C90.1338 42.2836 90.1829 42.1179 90.2823 41.9723C90.383 41.8255 90.5209 41.7101 90.6961 41.6261C90.8712 41.542 91.0707 41.5 91.2944 41.5C91.5158 41.5 91.7135 41.5426 91.8875 41.6278C92.0627 41.7119 92.2006 41.8273 92.3012 41.9741C92.4018 42.1197 92.4527 42.2848 92.4539 42.4695C92.4527 42.6648 92.397 42.8376 92.287 42.9879C92.1769 43.1383 92.0336 43.2353 91.8573 43.2791V43.3004C91.9934 43.3241 92.1159 43.3797 92.2248 43.4673C92.3349 43.5537 92.4225 43.6621 92.4876 43.7923C92.5539 43.9213 92.5876 44.0627 92.5888 44.2166C92.5876 44.4131 92.532 44.5883 92.4219 44.7422C92.3118 44.8961 92.1591 45.0168 91.9638 45.1044C91.7697 45.192 91.5466 45.2358 91.2944 45.2358ZM91.2944 44.7866C91.4448 44.7866 91.575 44.7617 91.685 44.712C91.7951 44.6611 91.8804 44.5907 91.9407 44.5007C92.0011 44.4096 92.0319 44.303 92.0331 44.1811C92.0319 44.0545 91.9987 43.9426 91.9336 43.8455C91.8697 43.7485 91.7827 43.6721 91.6726 43.6165C91.5625 43.5608 91.4365 43.533 91.2944 43.533C91.1512 43.533 91.0239 43.5608 90.9127 43.6165C90.8014 43.6721 90.7138 43.7485 90.6499 43.8455C90.586 43.9426 90.5546 44.0545 90.5558 44.1811C90.5546 44.303 90.5836 44.4096 90.6428 44.5007C90.7032 44.5907 90.789 44.6611 90.9002 44.712C91.0115 44.7617 91.1429 44.7866 91.2944 44.7866ZM91.2944 43.0945C91.4152 43.0945 91.5223 43.0702 91.6158 43.0217C91.7093 42.9731 91.7827 42.9057 91.836 42.8192C91.8904 42.7328 91.9182 42.6316 91.9194 42.5156C91.9182 42.402 91.891 42.3026 91.8377 42.2173C91.7857 42.1321 91.7129 42.0664 91.6194 42.0202C91.5258 41.9729 91.4175 41.9492 91.2944 41.9492C91.1689 41.9492 91.0589 41.9729 90.9642 42.0202C90.8707 42.0664 90.7979 42.1321 90.7458 42.2173C90.6937 42.3026 90.6682 42.402 90.6694 42.5156C90.6682 42.6316 90.6943 42.7328 90.7475 42.8192C90.8008 42.9057 90.8742 42.9731 90.9677 43.0217C91.0624 43.0702 91.1713 43.0945 91.2944 43.0945Z" fill="#1F2F4C"/>
<path d="M91.2624 17.0001C91.4246 17.0013 91.5844 17.0309 91.7418 17.0889C91.8993 17.1469 92.0413 17.2416 92.168 17.3729C92.2958 17.5043 92.3976 17.6819 92.4734 17.9056C92.5503 18.1282 92.5894 18.4051 92.5906 18.7366C92.5906 19.055 92.5586 19.3385 92.4947 19.5871C92.4308 19.8345 92.339 20.0434 92.2195 20.2139C92.1011 20.3843 91.9573 20.5139 91.788 20.6027C91.6187 20.6915 91.4281 20.7359 91.2163 20.7359C90.9996 20.7359 90.8073 20.6933 90.6392 20.608C90.4711 20.5228 90.3344 20.405 90.229 20.2547C90.1237 20.1032 90.058 19.9292 90.032 19.7327H90.5735C90.609 19.8889 90.6812 20.0156 90.7901 20.1126C90.9002 20.2085 91.0423 20.2565 91.2163 20.2565C91.4826 20.2565 91.6903 20.1405 91.8395 19.9085C91.9886 19.6753 92.0638 19.3497 92.065 18.9319H92.0366C91.975 19.0337 91.8981 19.1213 91.8058 19.1947C91.7146 19.2681 91.6122 19.3249 91.4986 19.3651C91.3849 19.4054 91.2636 19.4255 91.1346 19.4255C90.9251 19.4255 90.7345 19.374 90.5629 19.271C90.3912 19.168 90.2545 19.0266 90.1527 18.8467C90.0509 18.6667 90 18.4614 90 18.2305C90 18.0009 90.0521 17.7926 90.1562 17.6055C90.2616 17.4185 90.4084 17.2706 90.5966 17.1617C90.786 17.0516 91.0079 16.9977 91.2624 17.0001ZM91.2642 17.4617C91.1257 17.4617 91.0008 17.4961 90.8896 17.5647C90.7795 17.6322 90.6925 17.7239 90.6286 17.8399C90.5646 17.9547 90.5327 18.0826 90.5327 18.2234C90.5327 18.3643 90.5634 18.4921 90.625 18.607C90.6877 18.7206 90.773 18.8112 90.8807 18.8786C90.9896 18.9449 91.1139 18.9781 91.2536 18.9781C91.3577 18.9781 91.4548 18.9579 91.5447 18.9177C91.6347 18.8774 91.7134 18.8218 91.7809 18.7508C91.8484 18.6786 91.901 18.5969 91.9389 18.5058C91.9768 18.4146 91.9957 18.3187 91.9957 18.2181C91.9957 18.0844 91.9638 17.9601 91.8999 17.8452C91.8371 17.7304 91.7507 17.6381 91.6406 17.5683C91.5305 17.4972 91.4051 17.4617 91.2642 17.4617Z" fill="#1F2F4C"/>
<path d="M91.8263 95.7358C91.6642 95.7334 91.5044 95.7038 91.3469 95.647C91.1907 95.5902 91.0487 95.4955 90.9208 95.3629C90.793 95.2304 90.6906 95.0522 90.6136 94.8285C90.5379 94.6048 90.5 94.3254 90.5 93.9904C90.5 93.6732 90.5314 93.3915 90.5941 93.1452C90.658 92.899 90.7498 92.6913 90.8693 92.522C90.9889 92.3516 91.1333 92.2219 91.3026 92.1332C91.4718 92.0444 91.6618 92 91.8725 92C92.0891 92 92.2815 92.0426 92.4496 92.1278C92.6177 92.2131 92.7538 92.3308 92.858 92.4812C92.9633 92.6315 93.0302 92.8026 93.0586 92.9943H92.517C92.4804 92.8428 92.4076 92.7191 92.2987 92.6232C92.1897 92.5273 92.0477 92.4794 91.8725 92.4794C91.6062 92.4794 91.3984 92.5954 91.2493 92.8274C91.1013 93.0594 91.0268 93.382 91.0256 93.7951H91.0522C91.1149 93.6921 91.1919 93.6045 91.283 93.5323C91.3754 93.4589 91.4783 93.4027 91.592 93.3636C91.7068 93.3234 91.8275 93.3033 91.9542 93.3033C92.1649 93.3033 92.3555 93.3548 92.5259 93.4577C92.6976 93.5595 92.8343 93.7004 92.9361 93.8803C93.0379 94.0603 93.0888 94.2662 93.0888 94.4982C93.0888 94.7302 93.0361 94.9403 92.9308 95.1286C92.8266 95.3168 92.6798 95.4659 92.4904 95.576C92.301 95.6849 92.0797 95.7382 91.8263 95.7358ZM91.8246 95.2741C91.9643 95.2741 92.0891 95.2398 92.1992 95.1712C92.3093 95.1025 92.3963 95.0102 92.4602 94.8942C92.5241 94.7782 92.5561 94.6486 92.5561 94.5053C92.5561 94.3656 92.5247 94.2384 92.462 94.1236C92.4004 94.0088 92.3152 93.9176 92.2063 93.8501C92.0986 93.7827 91.9755 93.7489 91.837 93.7489C91.7317 93.7489 91.634 93.7691 91.544 93.8093C91.4553 93.8496 91.3771 93.9052 91.3097 93.9762C91.2422 94.0472 91.1889 94.1289 91.1499 94.2212C91.112 94.3124 91.093 94.4089 91.093 94.5107C91.093 94.6468 91.1244 94.7728 91.1871 94.8888C91.2511 95.0049 91.3381 95.0984 91.4482 95.1694C91.5594 95.2392 91.6849 95.2741 91.8246 95.2741Z" fill="#1F2F4C"/>
<path d="M16.2944 95.7358C16.0399 95.7358 15.815 95.692 15.6197 95.6044C15.4256 95.5168 15.2735 95.3961 15.1634 95.2422C15.0533 95.0883 14.9988 94.9131 15 94.7166C14.9988 94.5627 15.0302 94.4213 15.0941 94.2923C15.1592 94.1621 15.2474 94.0537 15.3587 93.9673C15.47 93.8797 15.5943 93.8241 15.7316 93.8004V93.7791C15.5505 93.7353 15.4055 93.6383 15.2966 93.4879C15.1877 93.3376 15.1338 93.1648 15.135 92.9695C15.1338 92.7836 15.1829 92.6179 15.2823 92.4723C15.383 92.3255 15.5209 92.2101 15.6961 92.1261C15.8712 92.042 16.0707 92 16.2944 92C16.5158 92 16.7135 92.0426 16.8875 92.1278C17.0627 92.2119 17.2006 92.3273 17.3012 92.4741C17.4018 92.6197 17.4527 92.7848 17.4539 92.9695C17.4527 93.1648 17.397 93.3376 17.287 93.4879C17.1769 93.6383 17.0336 93.7353 16.8573 93.7791V93.8004C16.9934 93.8241 17.1159 93.8797 17.2248 93.9673C17.3349 94.0537 17.4225 94.1621 17.4876 94.2923C17.5539 94.4213 17.5876 94.5627 17.5888 94.7166C17.5876 94.9131 17.532 95.0883 17.4219 95.2422C17.3118 95.3961 17.1591 95.5168 16.9638 95.6044C16.7697 95.692 16.5466 95.7358 16.2944 95.7358ZM16.2944 95.2866C16.4448 95.2866 16.575 95.2617 16.685 95.212C16.7951 95.1611 16.8804 95.0907 16.9407 95.0007C17.0011 94.9096 17.0319 94.803 17.0331 94.6811C17.0319 94.5545 16.9987 94.4426 16.9336 94.3455C16.8697 94.2485 16.7827 94.1721 16.6726 94.1165C16.5625 94.0608 16.4365 94.033 16.2944 94.033C16.1512 94.033 16.0239 94.0608 15.9127 94.1165C15.8014 94.1721 15.7138 94.2485 15.6499 94.3455C15.586 94.4426 15.5546 94.5545 15.5558 94.6811C15.5546 94.803 15.5836 94.9096 15.6428 95.0007C15.7032 95.0907 15.789 95.1611 15.9002 95.212C16.0115 95.2617 16.1429 95.2866 16.2944 95.2866ZM16.2944 93.5945C16.4152 93.5945 16.5223 93.5702 16.6158 93.5217C16.7093 93.4731 16.7827 93.4057 16.836 93.3192C16.8904 93.2328 16.9182 93.1316 16.9194 93.0156C16.9182 92.902 16.891 92.8026 16.8377 92.7173C16.7857 92.6321 16.7129 92.5664 16.6194 92.5202C16.5258 92.4729 16.4175 92.4492 16.2944 92.4492C16.1689 92.4492 16.0589 92.4729 15.9642 92.5202C15.8707 92.5664 15.7979 92.6321 15.7458 92.7173C15.6937 92.8026 15.6682 92.902 15.6694 93.0156C15.6682 93.1316 15.6943 93.2328 15.7475 93.3192C15.8008 93.4057 15.8742 93.4731 15.9677 93.5217C16.0624 93.5702 16.1713 93.5945 16.2944 93.5945Z" fill="#1F2F4C"/>
<path d="M41.4418 67V70.6364H40.8913V67.5504H40.87L40 68.1186V67.593L40.9073 67H41.4418Z" fill="#1F2F4C"/>
<path d="M43.6257 70.6861C43.4032 70.6861 43.2031 70.6435 43.0256 70.5582C42.8492 70.4718 42.7083 70.3535 42.603 70.2031C42.4976 70.0528 42.4414 69.8812 42.4343 69.6882H42.967C42.98 69.8445 43.0492 69.9729 43.1747 70.0735C43.3002 70.1741 43.4505 70.2244 43.6257 70.2244C43.7654 70.2244 43.8891 70.1925 43.9968 70.1286C44.1057 70.0634 44.1909 69.9741 44.2525 69.8604C44.3152 69.7468 44.3466 69.6172 44.3466 69.4716C44.3466 69.3236 44.3146 69.1916 44.2507 69.0756C44.1868 68.9596 44.0986 68.8685 43.9862 68.8022C43.8749 68.7359 43.747 68.7022 43.6026 68.701C43.4925 68.701 43.3819 68.7199 43.2706 68.7578C43.1593 68.7957 43.0694 68.8454 43.0007 68.907L42.4982 68.8324L42.7024 67H44.7017V67.4705H43.1587L43.0433 68.4879H43.0646C43.1357 68.4193 43.2298 68.3619 43.3469 68.3157C43.4653 68.2695 43.592 68.2464 43.7269 68.2464C43.9483 68.2464 44.1454 68.2991 44.3182 68.4045C44.4922 68.5098 44.6289 68.6536 44.7283 68.8359C44.829 69.017 44.8787 69.2254 44.8775 69.4609C44.8787 69.6965 44.8254 69.9066 44.7177 70.0913C44.6112 70.2759 44.4632 70.4215 44.2738 70.5281C44.0856 70.6334 43.8696 70.6861 43.6257 70.6861Z" fill="#1F2F4C"/>
<path d="M66.4418 67V70.6364H65.8913V67.5504H65.87L65 68.1186V67.593L65.9073 67H66.4418Z" fill="#1F2F4C"/>
<path d="M68.6257 70.6861C68.4032 70.6861 68.2031 70.6435 68.0256 70.5582C67.8492 70.4718 67.7083 70.3535 67.603 70.2031C67.4976 70.0528 67.4414 69.8812 67.4343 69.6882H67.967C67.98 69.8445 68.0492 69.9729 68.1747 70.0735C68.3002 70.1741 68.4505 70.2244 68.6257 70.2244C68.7654 70.2244 68.8891 70.1925 68.9968 70.1286C69.1057 70.0634 69.1909 69.9741 69.2525 69.8604C69.3152 69.7468 69.3466 69.6172 69.3466 69.4716C69.3466 69.3236 69.3146 69.1916 69.2507 69.0756C69.1868 68.9596 69.0986 68.8685 68.9862 68.8022C68.8749 68.7359 68.747 68.7022 68.6026 68.701C68.4925 68.701 68.3819 68.7199 68.2706 68.7578C68.1593 68.7957 68.0694 68.8454 68.0007 68.907L67.4982 68.8324L67.7024 67H69.7017V67.4705H68.1587L68.0433 68.4879H68.0646C68.1357 68.4193 68.2298 68.3619 68.3469 68.3157C68.4653 68.2695 68.592 68.2464 68.7269 68.2464C68.9483 68.2464 69.1454 68.2991 69.3182 68.4045C69.4922 68.5098 69.6289 68.6536 69.7283 68.8359C69.829 69.017 69.8787 69.2254 69.8775 69.4609C69.8787 69.6965 69.8254 69.9066 69.7177 70.0913C69.6112 70.2759 69.4632 70.4215 69.2738 70.5281C69.0856 70.6334 68.8696 70.6861 68.6257 70.6861Z" fill="#1F2F4C"/>
<path d="M16.1914 20.6861C15.9689 20.6861 15.7688 20.6435 15.5913 20.5582C15.4149 20.4718 15.274 20.3535 15.1687 20.2031C15.0633 20.0528 15.0071 19.8812 15 19.6882H15.5327C15.5457 19.8445 15.6149 19.9729 15.7404 20.0735C15.8659 20.1741 16.0162 20.2244 16.1914 20.2244C16.3311 20.2244 16.4548 20.1925 16.5625 20.1286C16.6714 20.0634 16.7566 19.9741 16.8182 19.8604C16.8809 19.7468 16.9123 19.6172 16.9123 19.4716C16.9123 19.3236 16.8803 19.1916 16.8164 19.0756C16.7525 18.9596 16.6643 18.8685 16.5518 18.8022C16.4406 18.7359 16.3127 18.7022 16.1683 18.701C16.0582 18.701 15.9476 18.7199 15.8363 18.7578C15.725 18.7957 15.6351 18.8454 15.5664 18.907L15.0639 18.8324L15.2681 17H17.2674V17.4705H15.7244L15.609 18.4879H15.6303C15.7013 18.4193 15.7955 18.3619 15.9126 18.3157C16.031 18.2695 16.1577 18.2464 16.2926 18.2464C16.514 18.2464 16.7111 18.2991 16.8839 18.4045C17.0579 18.5098 17.1946 18.6536 17.294 18.8359C17.3946 19.017 17.4444 19.2254 17.4432 19.4609C17.4444 19.6965 17.3911 19.9066 17.2834 20.0913C17.1768 20.2759 17.0289 20.4215 16.8395 20.5281C16.6513 20.6334 16.4353 20.6861 16.1914 20.6861Z" fill="#1F2F4C"/>
<path d="M65.0036 20.6861V20.2884L66.234 19.0135C66.3654 18.875 66.4737 18.7537 66.5589 18.6495C66.6454 18.5442 66.7099 18.4441 66.7525 18.3494C66.7951 18.2547 66.8164 18.1541 66.8164 18.0476C66.8164 17.9268 66.788 17.8227 66.7312 17.7351C66.6744 17.6463 66.5968 17.5782 66.4986 17.5309C66.4003 17.4824 66.2897 17.4581 66.1665 17.4581C66.0363 17.4581 65.9227 17.4847 65.8256 17.538C65.7286 17.5913 65.654 17.6664 65.6019 17.7635C65.5498 17.8606 65.5238 17.9742 65.5238 18.1044H65C65 17.883 65.0509 17.6895 65.1527 17.5238C65.2545 17.3581 65.3942 17.2296 65.5717 17.1385C65.7493 17.0462 65.9511 17 66.1772 17C66.4057 17 66.6069 17.0456 66.7809 17.1367C66.9561 17.2267 67.0928 17.3498 67.1911 17.506C67.2893 17.6611 67.3384 17.8363 67.3384 18.0316C67.3384 18.1665 67.313 18.2985 67.2621 18.4276C67.2124 18.5566 67.1254 18.7004 67.0011 18.859C66.8768 19.0165 66.704 19.2076 66.4826 19.4325L65.7599 20.1889V20.2156H67.397V20.6861H65.0036Z" fill="#1F2F4C"/>
<path d="M12 1L12.25 101" stroke="#1F2F4C"/>
<path d="M87 1L87.25 101" stroke="#1F2F4C"/>
<path d="M100 39L-6.1214e-05 39" stroke="#1F2F4C" stroke-opacity="0.8" stroke-width="0.5"/>
<path d="M100 14L0.000182927 14" stroke="#1F2F4C"/>
<path d="M100 88.9997L0.000182927 88.9997" stroke="#1F2F4C"/>
<path fill-rule="evenodd" clip-rule="evenodd" d="M14 62.5H13.75H13.5V62.75V63V63.5417H13.75H14V63V62.5ZM35.5 63V63.5417H35.75H36V63V62.75V62.5H35.75H35.5V63ZM35.75 64.5833H36V66.6667H35.75H35.5V64.5833H35.75ZM35.75 67.7083H36V69.7917H35.75H35.5V67.7083H35.75ZM35.75 70.8333H36V72.9167H35.75H35.5V70.8333H35.75ZM35.75 73.9583H36V76.0417H35.75H35.5V73.9583H35.75ZM35.75 77.0833H36V79.1667H35.75H35.5V77.0833H35.75ZM35.75 80.2083H36V82.2917H35.75H35.5V80.2083H35.75ZM35.75 83.3333H36V85.4167H35.75H35.5V83.3333H35.75ZM35.75 86.4583H36V87V87.25V87.5H35.75H35.5H35.0625V87.25V87H35.5V86.4583H35.75ZM34.125 87.25V87.5H32.25V87.25V87H34.125V87.25ZM31.3125 87.25V87.5H29.4375V87.25V87H31.3125V87.25ZM28.5 87.25V87.5H26.625V87.25V87H28.5V87.25ZM25.6875 87.25V87.5H23.8125V87.25V87H25.6875V87.25ZM22.875 87.25V87.5H21V87.25V87H22.875V87.25ZM20.0625 87.25V87.5H18.1875V87.25V87H20.0625V87.25ZM17.25 87.25V87.5H15.375V87.25V87H17.25V87.25ZM14.4375 87.25V87.5H14H13.75H13.5V87.25V87V86.4583H13.75H14V87H14.4375V87.25ZM13.75 85.4167H13.5V83.3333H13.75H14V85.4167H13.75ZM13.75 82.2917H13.5V80.2083H13.75H14V82.2917H13.75ZM13.75 79.1667H13.5V77.0833H13.75H14V79.1667H13.75ZM13.75 76.0417H13.5V73.9583H13.75H14V76.0417H13.75ZM13.75 72.9167H13.5V70.8333H13.75H14V72.9167H13.75ZM13.75 69.7917H13.5V67.7083H13.75H14V69.7917H13.75ZM13.75 66.6667H13.5V64.5833H13.75H14V66.6667H13.75Z" fill="#1F2F4C"/>
<path fill-rule="evenodd" clip-rule="evenodd" d="M13.5 40.9583H13.75H14V40.5H14.5V40.25V40H14H13.75H13.5V40.25V40.5V40.9583ZM15.5 40H17.5V40.25V40.5H15.5V40.25V40ZM18.5 40.25V40H20.5V40.25V40.5H18.5V40.25ZM21.5 40.25V40H23.5V40.25V40.5H21.5V40.25ZM24.5 40.25V40H26.5V40.25V40.5H24.5V40.25ZM27.5 40.25V40H29.5V40.25V40.5H27.5V40.25ZM30.5 40.25V40H32.5V40.25V40.5H30.5V40.25ZM33.5 40.25V40H35.5V40.25V40.5H33.5V40.25ZM36.5 40.25V40H38.5V40.25V40.5H36.5V40.25ZM39.5 40.25V40H41.5V40.25V40.5H39.5V40.25ZM42.5 40.25V40H44.5V40.25V40.5H42.5V40.25ZM45.5 40.25V40H47.5V40.25V40.5H45.5V40.25ZM48.5 40.25V40H50.5V40.25V40.5H48.5V40.25ZM51.5 40.25V40H53.5V40.25V40.5H51.5V40.25ZM54.5 40.25V40H56.5V40.25V40.5H54.5V40.25ZM57.5 40.25V40H59.5V40.25V40.5H57.5V40.25ZM60.5 40.25V40H62.5V40.25V40.5H60.5V40.25ZM63.5 40.25V40H65.5V40.25V40.5H63.5V40.25ZM66.5 40.25V40H68.5V40.25V40.5H66.5V40.25ZM69.5 40.25V40H71.5V40.25V40.5H69.5V40.25ZM72.5 40.25V40H74.5V40.25V40.5H72.5V40.25ZM75.5 40.25V40H77.5V40.25V40.5H75.5V40.25ZM78.5 40.25V40H80.5V40.25V40.5H78.5V40.25ZM81.5 40.25V40H83.5V40.25V40.5H81.5V40.25ZM84.5 40.25V40H85H85.25H85.5V40.25V40.5V40.9583H85.25H85V40.5H84.5V40.25ZM85.25 41.9167H85.5V43.8333H85.25H85V41.9167H85.25ZM85.25 44.7917H85.5V46.7083H85.25H85V44.7917H85.25ZM85.25 47.6667H85.5V49.5833H85.25H85V47.6667H85.25ZM85.25 50.5417H85.5V52.4583H85.25H85V50.5417H85.25ZM85.25 53.4167H85.5V55.3333H85.25H85V53.4167H85.25ZM85.25 56.2917H85.5V58.2083H85.25H85V56.2917H85.25ZM85.25 59.1667H85.5V61.0833H85.25H85V59.1667H85.25ZM85.25 62.0417H85.5V62.5V62.75V63H85.25H85H84.5V62.75V62.5H85V62.0417H85.25ZM83.5 62.75V63H81.5V62.75V62.5H83.5V62.75ZM80.5 62.75V63H78.5V62.75V62.5H80.5V62.75ZM77.5 62.75V63H75.5V62.75V62.5H77.5V62.75ZM74.5 62.75V63H72.5V62.75V62.5H74.5V62.75ZM71.5 62.75V63H69.5V62.75V62.5H71.5V62.75ZM68.5 62.75V63H66.5V62.75V62.5H68.5V62.75ZM65.5 62.75V63H63.5V62.75V62.5H65.5V62.75ZM62.5 62.75V63H60.5V62.75V62.5H62.5V62.75ZM59.5 62.75V63H57.5V62.75V62.5H59.5V62.75ZM56.5 62.75V63H54.5V62.75V62.5H56.5V62.75ZM53.5 62.75V63H51.5V62.75V62.5H53.5V62.75ZM50.5 62.75V63H48.5V62.75V62.5H50.5V62.75ZM47.5 62.75V63H45.5V62.75V62.5H47.5V62.75ZM44.5 62.75V63H42.5V62.75V62.5H44.5V62.75ZM41.5 62.75V63H39.5V62.75V62.5H41.5V62.75ZM38.5 62.75V63H36.5V62.75V62.5H38.5V62.75ZM14 63V62.5V62.0417H13.75H13.5V62.5V62.75V63H13.75H14ZM13.75 61.0833H13.5V59.1667H13.75H14V61.0833H13.75ZM13.75 58.2083H13.5V56.2917H13.75H14V58.2083H13.75ZM13.75 55.3333H13.5V53.4167H13.75H14V55.3333H13.75ZM13.75 52.4583H13.5V50.5417H13.75H14V52.4583H13.75ZM13.75 49.5833H13.5V47.6667H13.75H14V49.5833H13.75ZM13.75 46.7083H13.5V44.7917H13.75H14V46.7083H13.75ZM13.75 43.8333H13.5V41.9167H13.75H14V43.8333H13.75Z" fill="#1F2F4C"/>
<path d="M15.0036 45.1861V44.7884L16.234 43.5135C16.3654 43.375 16.4737 43.2537 16.5589 43.1495C16.6454 43.0442 16.7099 42.9441 16.7525 42.8494C16.7951 42.7547 16.8164 42.6541 16.8164 42.5476C16.8164 42.4268 16.788 42.3227 16.7312 42.2351C16.6744 42.1463 16.5968 42.0782 16.4986 42.0309C16.4003 41.9824 16.2897 41.9581 16.1665 41.9581C16.0363 41.9581 15.9227 41.9847 15.8256 42.038C15.7286 42.0913 15.654 42.1664 15.6019 42.2635C15.5498 42.3606 15.5238 42.4742 15.5238 42.6044H15C15 42.383 15.0509 42.1895 15.1527 42.0238C15.2545 41.8581 15.3942 41.7296 15.5717 41.6385C15.7493 41.5462 15.9511 41.5 16.1772 41.5C16.4057 41.5 16.6069 41.5456 16.7809 41.6367C16.9561 41.7267 17.0928 41.8498 17.1911 42.006C17.2893 42.1611 17.3384 42.3363 17.3384 42.5316C17.3384 42.6665 17.313 42.7985 17.2621 42.9276C17.2124 43.0566 17.1254 43.2004 17.0011 43.359C16.8768 43.5165 16.704 43.7076 16.4826 43.9325L15.7599 44.6889V44.7156H17.397V45.1861H15.0036Z" fill="#1F2F4C"/>
<path d="M19.3359 45.2358C19.0921 45.2358 18.8743 45.1938 18.6825 45.1097C18.492 45.0257 18.341 44.9091 18.2298 44.7599C18.1197 44.6096 18.0605 44.4356 18.0522 44.2379H18.6097C18.6168 44.3456 18.6529 44.4392 18.718 44.5185C18.7843 44.5966 18.8707 44.657 18.9773 44.6996C19.0838 44.7422 19.2022 44.7635 19.3324 44.7635C19.4756 44.7635 19.6023 44.7386 19.7124 44.6889C19.8236 44.6392 19.9106 44.57 19.9734 44.4812C20.0361 44.3912 20.0675 44.2876 20.0675 44.1705C20.0675 44.0485 20.0361 43.9414 19.9734 43.8491C19.9118 43.7556 19.8213 43.6822 19.7017 43.6289C19.5833 43.5756 19.4401 43.549 19.272 43.549H18.9648V43.1016H19.272C19.407 43.1016 19.5253 43.0773 19.6271 43.0288C19.7301 42.9802 19.8106 42.9128 19.8686 42.8263C19.9266 42.7388 19.9556 42.6364 19.9556 42.5192C19.9556 42.4067 19.9302 42.3091 19.8793 42.2262C19.8295 42.1422 19.7585 42.0765 19.6662 42.0291C19.575 41.9818 19.4673 41.9581 19.343 41.9581C19.2247 41.9581 19.114 41.98 19.011 42.0238C18.9092 42.0664 18.8263 42.128 18.7624 42.2085C18.6985 42.2878 18.6642 42.383 18.6594 42.4943H18.1286C18.1345 42.2978 18.1925 42.125 18.3026 41.9759C18.4138 41.8267 18.5606 41.7101 18.7429 41.6261C18.9252 41.542 19.1276 41.5 19.3501 41.5C19.5833 41.5 19.7846 41.5456 19.9538 41.6367C20.1243 41.7267 20.2557 41.8468 20.348 41.9972C20.4415 42.1475 20.4877 42.312 20.4865 42.4908C20.4877 42.6944 20.4309 42.8672 20.3161 43.0092C20.2024 43.1513 20.0509 43.2466 19.8615 43.2951V43.3235C20.103 43.3602 20.29 43.4561 20.4226 43.6112C20.5563 43.7662 20.6226 43.9586 20.6214 44.1882C20.6226 44.3883 20.567 44.5676 20.4545 44.7262C20.3433 44.8848 20.1912 45.0097 19.9982 45.1009C19.8053 45.1908 19.5845 45.2358 19.3359 45.2358Z" fill="#1F2F4C"/>
<path d="M21.5736 82L26.3357 72.5824V72.5025H20.8279V71.0909H28.0403V72.5504L23.2942 82H21.5736Z" fill="#1F2F4C"/>
<path d="M24.5133 57.1491C23.7818 57.1491 23.1284 57.0231 22.5531 56.771C21.9814 56.5188 21.5286 56.169 21.1948 55.7216C20.8645 55.2706 20.687 54.7486 20.6621 54.1555H22.3347C22.356 54.4787 22.4643 54.7592 22.6596 54.9972C22.8585 55.2315 23.1177 55.4126 23.4373 55.5405C23.7569 55.6683 24.112 55.7322 24.5027 55.7322C24.9324 55.7322 25.3123 55.6577 25.6426 55.5085C25.9764 55.3594 26.2374 55.1516 26.4256 54.8853C26.6138 54.6154 26.7079 54.3047 26.7079 53.9531C26.7079 53.5874 26.6138 53.266 26.4256 52.989C26.2409 52.7085 25.9693 52.4883 25.6106 52.3285C25.2555 52.1687 24.8258 52.0888 24.3216 52.0888H23.4V50.7464H24.3216C24.7264 50.7464 25.0815 50.6737 25.3869 50.5281C25.6958 50.3825 25.9373 50.18 26.1113 49.9208C26.2853 49.658 26.3723 49.3509 26.3723 48.9993C26.3723 48.6619 26.296 48.369 26.1433 48.1204C25.9941 47.8683 25.7811 47.6712 25.5041 47.5291C25.2306 47.3871 24.9075 47.3161 24.5346 47.3161C24.1795 47.3161 23.8475 47.3817 23.5385 47.5131C23.2331 47.641 22.9846 47.8256 22.7928 48.0671C22.601 48.305 22.498 48.5909 22.4838 48.9247H20.8912C20.9089 48.3352 21.0829 47.8168 21.4132 47.3693C21.747 46.9219 22.1873 46.5721 22.7342 46.32C23.2811 46.0678 23.8883 45.9418 24.5559 45.9418C25.2555 45.9418 25.8592 46.0785 26.367 46.3519C26.8784 46.6218 27.2725 46.9822 27.5495 47.4332C27.8301 47.8842 27.9686 48.3778 27.965 48.9141C27.9686 49.5249 27.7981 50.0433 27.4537 50.4695C27.1127 50.8956 26.6582 51.1815 26.09 51.3271V51.4123C26.8145 51.5224 27.3755 51.81 27.7733 52.2752C28.1745 52.7404 28.3734 53.3175 28.3699 54.0064C28.3734 54.6065 28.2065 55.1445 27.8691 55.6204C27.5353 56.0962 27.079 56.4709 26.5002 56.7443C25.9213 57.0142 25.2591 57.1491 24.5133 57.1491Z" fill="#1F2F4C"/>
<path d="M74.5899 82.1491C74.1034 82.142 73.624 82.0533 73.1517 81.8828C72.6829 81.7124 72.2568 81.4283 71.8733 81.0305C71.4897 80.6328 71.1826 80.0984 70.9517 79.4272C70.7245 78.756 70.6108 77.918 70.6108 76.913C70.6108 75.9613 70.7049 75.1161 70.8932 74.3775C71.0849 73.6388 71.3601 73.0156 71.7188 72.5078C72.0775 71.9964 72.5107 71.6076 73.0185 71.3413C73.5263 71.0749 74.0963 70.9418 74.7284 70.9418C75.3782 70.9418 75.9553 71.0696 76.4596 71.3253C76.9638 71.581 77.3722 71.9343 77.6847 72.3853C78.0008 72.8363 78.2014 73.3494 78.2866 73.9247H76.662C76.5519 73.4702 76.3335 73.0991 76.0068 72.8114C75.6801 72.5238 75.254 72.38 74.7284 72.38C73.9294 72.38 73.3062 72.728 72.8587 73.424C72.4148 74.12 72.1911 75.0877 72.1875 76.3271H72.2674C72.4557 76.0181 72.6865 75.7553 72.9599 75.5387C73.2369 75.3185 73.5459 75.1499 73.8868 75.0327C74.2312 74.9119 74.5934 74.8516 74.9734 74.8516C75.6055 74.8516 76.1772 75.006 76.6886 75.315C77.2035 75.6204 77.6137 76.043 77.9191 76.5827C78.2245 77.1225 78.3772 77.7404 78.3772 78.4364C78.3772 79.1325 78.2191 79.7628 77.9031 80.3274C77.5906 80.892 77.1503 81.3395 76.5821 81.6697C76.0139 81.9964 75.3498 82.1562 74.5899 82.1491ZM74.5846 80.7642C75.0036 80.7642 75.3782 80.6612 75.7085 80.4553C76.0388 80.2493 76.2998 79.9723 76.4915 79.6243C76.6833 79.2763 76.7792 78.8874 76.7792 78.4577C76.7792 78.0387 76.6851 77.657 76.4968 77.3125C76.3122 76.968 76.0565 76.6946 75.7298 76.4922C75.4066 76.2898 75.0373 76.1886 74.6218 76.1886C74.3058 76.1886 74.0128 76.2489 73.7429 76.3697C73.4766 76.4904 73.2422 76.6573 73.0398 76.8704C72.8374 77.0835 72.6776 77.3285 72.5604 77.6055C72.4468 77.8789 72.39 78.1683 72.39 78.4737C72.39 78.8821 72.4841 79.2603 72.6723 79.6083C72.864 79.9563 73.125 80.2369 73.4553 80.4499C73.7891 80.6594 74.1655 80.7642 74.5846 80.7642Z" fill="#1F2F4C"/>
<rect x="63.75" y="15.75" width="21.5" height="21.5" stroke="#1F2F4C" stroke-width="0.5" stroke-dasharray="2 1"/>
<rect x="13.75" y="15.75" width="46.5" height="21.5" stroke="#1F2F4C" stroke-width="0.5" stroke-dasharray="2 1"/>
<path fill-rule="evenodd" clip-rule="evenodd" d="M100 65.5H98.5V65.75V66H100V65.5ZM100 87.0316H98.5V87.2816V87.5316H100V87.0316ZM63.75 66.5491H63.5V66V65.75V65.5H63.75H64H64.5V65.75V66H64V66.5491H63.75ZM67.5 65.5H65.5V65.75V66H67.5V65.75V65.5ZM68.5 65.5V65.75V66H70.5V65.75V65.5H68.5ZM71.5 65.5V65.75V66H73.5V65.75V65.5H71.5ZM74.5 65.5V65.75V66H76.5V65.75V65.5H74.5ZM77.5 65.5V65.75V66H79.5V65.75V65.5H77.5ZM80.5 65.5V65.75V66H82.5V65.75V65.5H80.5ZM83.5 65.5V65.75V66H85.5V65.75V65.5H83.5ZM86.5 65.5V65.75V66H88.5V65.75V65.5H86.5ZM89.5 65.5V65.75V66H91.5V65.75V65.5H89.5ZM92.5 65.5V65.75V66H94.5V65.75V65.5H92.5ZM95.5 65.5V65.75V66H97.5V65.75V65.5H95.5ZM97.5 87.5316V87.2816V87.0316H95.5V87.2816V87.5316H97.5ZM94.5 87.5316V87.2816V87.0316H92.5V87.2816V87.5316H94.5ZM91.5 87.5316V87.2816V87.0316H89.5V87.2816V87.5316H91.5ZM88.5 87.5316V87.2816V87.0316H86.5V87.2816V87.5316H88.5ZM64 87.0316V87.5316H63.75H63.5V87.2816V87.0316V86.4825H63.75H64V86.5737V87.0316ZM63.5 85.4333H63.75H64V83.3351H63.75H63.5V85.4333ZM63.5 82.286H63.75H64V80.1877H63.75H63.5V82.286ZM63.5 79.1386H63.75H64V77.0404H63.75H63.5V79.1386ZM63.5 75.9912H63.75H64V73.893H63.75H63.5V75.9912ZM63.5 72.8439H63.75H64V70.7456H63.75H63.5V72.8439ZM63.5 69.6965H63.75H64V67.5982H63.75H63.5V69.6965Z" fill="#1F2F4C"/>
<path fill-rule="evenodd" clip-rule="evenodd" d="M63.75 87.0526H64V87.5316H64.4375V87.5526H64V88.0504H63.75H63.5V87.5526V87.3026V87.0526H63.75ZM65.375 87.5526V87.5316H67.25V87.5526H65.375ZM68.1875 87.5526V87.5316H70.0625V87.5526H68.1875ZM71 87.5526V87.5316H72.875V87.5526H71ZM73.8125 87.5526V87.5316H75.6875V87.5526H73.8125ZM76.625 87.5526V87.5316H78.5V87.5526H76.625ZM79.4375 87.5526V87.5316H81.3125V87.5526H79.4375ZM82.25 87.5526V87.5316H84.125V87.5526H82.25ZM85.0625 87.5526V87.5316H85.5V87.0526H85.75H86V87.3026V87.5526V88.0504H85.75H85.5V87.5526H85.0625ZM86 89.0482H85.75H85.5V91.0439H85.75H86V89.0482ZM86 92.0417H85.75H85.5V94.0373H85.75H86V92.0417ZM86 95.0351H85.75H85.5V97.0307H85.75H86V95.0351ZM86 98.0285H85.75H85.5V100.024H85.75H86V98.0285ZM63.5 100.024H63.75H64V98.0285H63.75H63.5V100.024ZM63.5 97.0307H63.75H64V95.0351H63.75H63.5V97.0307ZM63.5 94.0373H63.75H64V92.0417H63.75H63.5V94.0373ZM63.5 91.0439H63.75H64V89.0482H63.75H63.5V91.0439Z" fill="#1F2F4C"/>
<path fill-rule="evenodd" clip-rule="evenodd" d="M38.5 101H39V99.7708H38.75H38.5V101ZM60.5 101H60V99.7708H60.25H60.5V101ZM38.75 98.7917H38.5V96.8333H38.75H39V98.7917H38.75ZM38.75 95.8542H38.5V93.8958H38.75H39V95.8542H38.75ZM38.75 92.9167H38.5V90.9583H38.75H39V92.9167H38.75ZM38.75 89.9792H38.5V88.0208H38.75H39V89.9792H38.75ZM38.75 87.0417H38.5V85.0833H38.75H39V87.0417H38.75ZM38.75 84.1042H38.5V82.1458H38.75H39V84.1042H38.75ZM38.75 81.1667H38.5V79.2083H38.75H39V81.1667H38.75ZM38.75 78.2292H38.5V76.2708H38.75H39V78.2292H38.75ZM38.75 75.2917H38.5V73.3333H38.75H39V75.2917H38.75ZM38.75 72.3542H38.5V70.3958H38.75H39V72.3542H38.75ZM38.75 69.4167H38.5V67.4583H38.75H39V69.4167H38.75ZM38.75 66.4792H38.5V66V65.75V65.5H38.75H39H39.5476V65.75V66H39V66.4792H38.75ZM40.5952 65.75V65.5H42.6905V65.75V66H40.5952V65.75ZM43.7381 65.75V65.5H45.8333V65.75V66H43.7381V65.75ZM46.881 65.75V65.5H48.9762V65.75V66H46.881V65.75ZM50.0238 65.75V65.5H52.119V65.75V66H50.0238V65.75ZM53.1667 65.75V65.5H55.2619V65.75V66H53.1667V65.75ZM56.3095 65.75V65.5H58.4048V65.75V66H56.3095V65.75ZM59.4524 65.75V65.5H60H60.25H60.5V65.75V66V66.4792H60.25H60V66H59.4524V65.75ZM60.25 67.4583H60.5V69.4167H60.25H60V67.4583H60.25ZM60.25 70.3958H60.5V72.3542H60.25H60V70.3958H60.25ZM60.25 73.3333H60.5V75.2917H60.25H60V73.3333H60.25ZM60.25 76.2708H60.5V78.2292H60.25H60V76.2708H60.25ZM60.25 79.2083H60.5V81.1667H60.25H60V79.2083H60.25ZM60.25 82.1458H60.5V84.1042H60.25H60V82.1458H60.25ZM60.25 85.0833H60.5V87.0417H60.25H60V85.0833H60.25ZM60.25 88.0208H60.5V89.9792H60.25H60V88.0208H60.25ZM60.25 90.9583H60.5V92.9167H60.25H60V90.9583H60.25ZM60.25 93.8958H60.5V95.8542H60.25H60V93.8958H60.25ZM60.25 96.8333H60.5V98.7917H60.25H60V96.8333H60.25Z" fill="#1F2F4C"/>
<path fill-rule="evenodd" clip-rule="evenodd" d="M85.25 2.0238H85.5V4.11904H85.25H85V2.0238H85.25ZM85.25 5.16666H85.5V7.2619H85.25H85V5.16666H85.25ZM85.25 8.30952H85.5V10.4048H85.25H85V8.30952H85.25ZM85.25 11.4524H85.5V12V12.25V12.5H85.25H85H84.5208V12.25V12H85V11.4524H85.25ZM83.5417 12.25V12.5H81.5833V12.25V12H83.5417V12.25ZM80.6042 12.25V12.5H78.6458V12.25V12H80.6042V12.25ZM77.6667 12.25V12.5H75.7083V12.25V12H77.6667V12.25ZM74.7292 12.25V12.5H72.7708V12.25V12H74.7292V12.25ZM71.7917 12.25V12.5H69.8333V12.25V12H71.7917V12.25ZM68.8542 12.25V12.5H66.8958V12.25V12H68.8542V12.25ZM65.9167 12.25V12.5H63.9583V12.25V12H65.9167V12.25ZM62.9792 12.25V12.5H61.0208V12.25V12H62.9792V12.25ZM60.0417 12.25V12.5H58.0833V12.25V12H60.0417V12.25ZM57.1042 12.25V12.5H55.1458V12.25V12H57.1042V12.25ZM54.1667 12.25V12.5H52.2083V12.25V12H54.1667V12.25ZM51.2292 12.25V12.5H49.2708V12.25V12H51.2292V12.25ZM48.2917 12.25V12.5H46.3333V12.25V12H48.2917V12.25ZM45.3542 12.25V12.5H43.3958V12.25V12H45.3542V12.25ZM42.4167 12.25V12.5H40.4583V12.25V12H42.4167V12.25ZM39.4792 12.25V12.5H39H38.75H38.5V12.25V12V11.4524H38.75H39V12H39.4792V12.25ZM38.75 10.4048H38.5V8.30951H38.75H39V10.4048H38.75ZM38.75 7.2619H38.5V5.16666H38.75H39V7.2619H38.75ZM38.75 4.11904H38.5V2.0238H38.75H39V4.11904H38.75Z" fill="#1F2F4C"/>
<path fill-rule="evenodd" clip-rule="evenodd" d="M13.5 91.5476H13.75H14V91H14.4375V90.75V90.5H14H13.75H13.5V90.75V91V91.5476ZM15.375 90.5H17.25V90.75V91H15.375V90.75V90.5ZM18.1875 90.75V90.5H20.0625V90.75V91H18.1875V90.75ZM21 90.75V90.5H22.875V90.75V91H21V90.75ZM23.8125 90.75V90.5H25.6875V90.75V91H23.8125V90.75ZM26.625 90.75V90.5H28.5V90.75V91H26.625V90.75ZM29.4375 90.75V90.5H31.3125V90.75V91H29.4375V90.75ZM32.25 90.75V90.5H34.125V90.75V91H32.25V90.75ZM35.0625 90.75V90.5H35.5H35.75H36V90.75V91V91.5476H35.75H35.5V91H35.0625V90.75ZM35.75 92.5952H36V94.6905H35.75H35.5V92.5952H35.75ZM35.75 95.7381H36V97.8333H35.75H35.5V95.7381H35.75ZM35.75 98.881H36V100.976H35.75H35.5V98.881H35.75ZM13.75 100.976H13.5V98.881H13.75H14V100.976H13.75ZM13.75 97.8333H13.5V95.7381H13.75H14V97.8333H13.75ZM13.75 94.6905H13.5V92.5952H13.75H14V94.6905H13.75Z" fill="#1F2F4C"/>
<path fill-rule="evenodd" clip-rule="evenodd" d="M89.25 91.5476H89V91V90.75V90.5H89.25H89.5H90.0476V90.75V91H89.5V91.5476H89.25ZM93.1905 90.5H91.0952V90.75V91H93.1905V90.75V90.5ZM94.2381 90.5V90.75V91H96.3333V90.75V90.5H94.2381ZM97.381 90.5V90.75V91H99.4762V90.75V90.5H97.381ZM89 100.976H89.25H89.5V98.881H89.25H89V100.976ZM89 97.8333H89.25H89.5V95.7381H89.25H89V97.8333ZM89 94.6905H89.25H89.5V92.5952H89.25H89V94.6905Z" fill="#1F2F4C"/>
<path fill-rule="evenodd" clip-rule="evenodd" d="M9.45238 90.75V90.5H10H10.25H10.5V90.75V91V91.5476H10.25H10V91H9.45238V90.75ZM10.5 94.6905V92.5952H10.25H10V94.6905H10.25H10.5ZM10.5 95.7381H10.25H10L10 97.8333H10.25H10.5L10.5 95.7381ZM10.5 98.881H10.25H10V100.976H10.25H10.5V98.881ZM0.0238094 90.5V90.75V91H2.11905V90.75V90.5H0.0238094ZM3.16667 90.5V90.75V91H5.2619V90.75V90.5H3.16667ZM6.30952 90.5V90.75V91H8.40476V90.75V90.5H6.30952Z" fill="#1F2F4C"/>
<path fill-rule="evenodd" clip-rule="evenodd" d="M89.5476 12.2262V12.4762H89H88.75H88.5V12.2262V11.9762V11.4286H88.75H89V11.9762H89.5476V12.2262ZM88.5 8.28572V10.381H88.75H89V8.28572H88.75H88.5ZM88.5 7.2381H88.75H89V5.14286H88.75H88.5V7.2381ZM88.5 4.09524H88.75H89V2H88.75H88.5V4.09524ZM98.9762 12.4762V12.2262V11.9762H96.881V12.2262V12.4762H98.9762ZM95.8333 12.4762V12.2262V11.9762H93.7381V12.2262V12.4762H95.8333ZM92.6905 12.4762V12.2262V11.9762H90.5952V12.2262V12.4762H92.6905Z" fill="#1F2F4C"/>
<path fill-rule="evenodd" clip-rule="evenodd" d="M0 12.5H1.22917V12.25V12H0V12.5ZM35.5 2.0238H35.25H35V4.11904H35.25H35.5V2.0238ZM35.5 5.16666H35.25H35V7.2619H35.25H35.5V5.16666ZM35.5 8.30952H35.25H35V10.4048H35.25H35.5V8.30952ZM35.5 11.4524H35.25H35V12H34.5208V12.25V12.5H35H35.25H35.5V12.25V12V11.4524ZM33.5417 12.5V12.25V12H31.5833V12.25V12.5H33.5417ZM30.6042 12.5V12.25V12H28.6458V12.25V12.5H30.6042ZM27.6667 12.5V12.25V12H25.7083V12.25V12.5H27.6667ZM24.7292 12.5V12.25V12H22.7708V12.25V12.5H24.7292ZM21.7917 12.5V12.25V12H19.8333V12.25V12.5H21.7917ZM18.8542 12.5V12.25V12H16.8958V12.25V12.5H18.8542ZM15.9167 12.5V12.25V12H13.9583V12.25V12.5H15.9167ZM12.9792 12.5V12.25V12H11.0208V12.25V12.5H12.9792ZM10.0417 12.5V12.25V12H8.08333V12.25V12.5H10.0417ZM7.10417 12.5V12.25V12H5.14583V12.25V12.5H7.10417ZM4.16667 12.5V12.25V12H2.20833V12.25V12.5H4.16667Z" fill="#1F2F4C"/>
<path fill-rule="evenodd" clip-rule="evenodd" d="M88.5 16.5476H88.75H89V16H89.5476V15.75V15.5H89H88.75H88.5V15.75V16V16.5476ZM90.5952 15.5H92.6905V15.75V16H90.5952V15.75V15.5ZM93.7381 15.75V15.5H95.8333V15.75V16H93.7381V15.75ZM96.881 15.75V15.5H98.9762V15.75V16H96.881V15.75ZM98.9762 37.25V37.5H96.881V37.25V37H98.9762V37.25ZM95.8333 37.25V37.5H93.7381V37.25V37H95.8333V37.25ZM92.6905 37.25V37.5H90.5952V37.25V37H92.6905V37.25ZM89.5476 37.25V37.5H89H88.75H88.5V37.25V37V36.4524H88.75H89V37H89.5476V37.25ZM88.75 35.4048H88.5V33.3095H88.75H89V35.4048H88.75ZM88.75 32.2619H88.5V30.1667H88.75H89V32.2619H88.75ZM88.75 29.119H88.5V27.0238H88.75H89V29.119H88.75ZM88.75 25.9762H88.5V23.881H88.75H89V25.9762H88.75ZM88.75 22.8333H88.5V20.7381H88.75H89V22.8333H88.75ZM88.75 19.6905H88.5V17.5952H88.75H89V19.6905H88.75Z" fill="#1F2F4C"/>
<path fill-rule="evenodd" clip-rule="evenodd" d="M88.5 40.9583H88.75H89V40.5H89.5476V40.25V40H89H88.75H88.5V40.25V40.5V40.9583ZM90.5952 40H92.6905V40.25V40.5H90.5952V40.25V40ZM93.7381 40.25V40H95.8333V40.25V40.5H93.7381V40.25ZM96.881 40.25V40H98.9762V40.25V40.5H96.881V40.25ZM98.9762 62.75V63H96.881V62.75V62.5H98.9762V62.75ZM95.8333 62.75V63H93.7381V62.75V62.5H95.8333V62.75ZM92.6905 62.75V63H90.5952V62.75V62.5H92.6905V62.75ZM89.5476 62.75V63H89H88.75H88.5V62.75V62.5V62.0417H88.75H89V62.5H89.5476V62.75ZM88.75 61.0833H88.5V59.1667H88.75H89V61.0833H88.75ZM88.75 58.2083H88.5V56.2917H88.75H89V58.2083H88.75ZM88.75 55.3333H88.5V53.4167H88.75H89V55.3333H88.75ZM88.75 52.4583H88.5V50.5417H88.75H89V52.4583H88.75ZM88.75 49.5833H88.5V47.6667H88.75H89V49.5833H88.75ZM88.75 46.7083H88.5V44.7917H88.75H89V46.7083H88.75ZM88.75 43.8333H88.5V41.9167H88.75H89V43.8333H88.75Z" fill="#1F2F4C"/>
<path fill-rule="evenodd" clip-rule="evenodd" d="M0.523932 15.75V15.5H2.61917V15.75V16H0.523932V15.75ZM3.66679 15.75V15.5H5.76203V15.75V16H3.66679V15.75ZM6.80965 15.75V15.5H8.90488V15.75V16H6.80965V15.75ZM9.9525 15.75V15.5H10.5001H10.7501H11.0001V15.75V16V16.5H10.7501H10.5001V16H9.9525V15.75ZM10.7501 17.5H11.0001V19.5H10.7501H10.5001V17.5H10.7501ZM10.7501 20.5H11.0001V22.5H10.7501H10.5001V20.5H10.7501ZM10.7501 23.5H11.0001V25.5H10.7501H10.5001V23.5H10.7501ZM10.7501 26.5H11.0001V28.5H10.7501H10.5001V26.5H10.7501ZM10.7501 29.5H11.0001V31.5H10.7501H10.5001V29.5H10.7501ZM10.7501 32.5H11.0001V34.5H10.7501H10.5001V32.5H10.7501ZM10.7501 35.5H11.0001V37.5H10.7501H10.5001V35.5H10.7501ZM10.7501 38.5H11.0001V40.5H10.7501H10.5001V38.5H10.7501ZM10.7501 41.5H11.0001V43.5H10.7501H10.5001V41.5H10.7501ZM10.7501 44.5H11.0001V46.5H10.7501H10.5001V44.5H10.7501ZM10.7501 47.5H11.0001V49.5H10.7501H10.5001V47.5H10.7501ZM10.7501 50.5H11.0001V52.5H10.7501H10.5001V50.5H10.7501ZM10.7501 53.5H11.0001V55.5H10.7501H10.5001V53.5H10.7501ZM10.7501 56.5H11.0001V58.5H10.7501H10.5001V56.5H10.7501ZM10.7501 59.5H11.0001V61.5H10.7501H10.5001V59.5H10.7501ZM10.7501 62.5H11.0001V64.5H10.7501H10.5001V62.5H10.7501ZM10.7501 65.5H11.0001V67.5H10.7501H10.5001V65.5H10.7501ZM10.7501 68.5H11.0001V70.5H10.7501H10.5001V68.5H10.7501ZM10.7501 71.5H11.0001V73.5H10.7501H10.5001V71.5H10.7501ZM10.7501 74.5H11.0001V76.5H10.7501H10.5001V74.5H10.7501ZM10.7501 77.5H11.0001V79.5H10.7501H10.5001V77.5H10.7501ZM10.7501 80.5H11.0001V82.5H10.7501H10.5001V80.5H10.7501ZM10.7501 83.5H11.0001V85.5H10.7501H10.5001V83.5H10.7501ZM10.7501 86.5H11.0001V87V87.25V87.5H10.7501H10.5001H9.9525V87.25V87H10.5001V86.5H10.7501ZM8.90488 87.25V87.5H6.80964V87.25V87H8.90488V87.25ZM5.76203 87.25V87.5H3.66679V87.25V87H5.76203V87.25ZM2.61917 87.25V87.5H0.523931V87.25V87H2.61917V87.25Z" fill="#1F2F4C"/>
<path fill-rule="evenodd" clip-rule="evenodd" d="M100 20.9886C99.8042 20.9588 99.6071 20.9432 99.4089 20.9418C98.6454 20.9347 97.9795 21.0962 97.4114 21.4265C96.8467 21.7532 96.4064 22.1971 96.0903 22.7582C95.7778 23.3192 95.6216 23.9442 95.6216 24.6332C95.6216 25.3256 95.7743 25.9418 96.0797 26.4815C96.3851 27.0213 96.7952 27.4457 97.3102 27.7546C97.8251 28.0636 98.3968 28.218 99.0253 28.218C99.3684 28.218 99.6933 28.1706 100 28.0758V26.7891C99.8043 26.8468 99.5984 26.8757 99.3822 26.8757C98.9632 26.8757 98.5903 26.7763 98.2636 26.5774C97.9405 26.375 97.6848 26.1033 97.4966 25.7624C97.3119 25.418 97.2196 25.0344 97.2196 24.6119C97.2196 24.1893 97.3155 23.8057 97.5072 23.4613C97.699 23.1133 97.96 22.8381 98.2903 22.6356C98.6241 22.4297 98.9987 22.3267 99.4142 22.3267C99.6205 22.3267 99.8158 22.3521 100 22.4029V20.9886ZM100 30.5985C99.7758 30.6735 99.5325 30.7109 99.2704 30.7109C98.7484 30.7109 98.3222 30.5671 97.992 30.2795C97.6653 29.9883 97.4486 29.6083 97.3421 29.1396H95.7175C95.7956 29.729 95.9927 30.2511 96.3087 30.7056C96.6248 31.1566 97.0349 31.5099 97.5392 31.7656C98.0435 32.0213 98.6205 32.1491 99.2704 32.1491C99.5238 32.1491 99.767 32.128 100 32.0857V30.5985Z" fill="#1F2F4C"/>
<path fill-rule="evenodd" clip-rule="evenodd" d="M70.8553 1C70.9176 1.16675 70.9925 1.32726 71.0797 1.48153C71.3851 2.02131 71.7953 2.44567 72.3102 2.75462C72.8251 3.06357 73.3969 3.21804 74.0254 3.21804C74.4125 3.21804 74.7765 3.15767 75.1174 3.03693C75.4583 2.91619 75.7655 2.74574 76.0389 2.52557C76.3159 2.3054 76.5467 2.04261 76.7314 1.73722H76.8166C76.8131 2.99077 76.5876 3.96733 76.1401 4.6669C75.6927 5.36293 75.0694 5.71094 74.2704 5.71094C73.7484 5.71094 73.3223 5.56712 72.992 5.27947C72.6653 4.98828 72.4487 4.60831 72.3422 4.13956H70.7175C70.7957 4.72905 70.9927 5.25107 71.3088 5.70561C71.6248 6.15661 72.035 6.50994 72.5393 6.76562C73.0435 7.02131 73.6206 7.14915 74.2704 7.14915C74.9061 7.14915 75.4778 7.01598 75.9856 6.74964C76.4935 6.48331 76.9249 6.09446 77.28 5.5831C77.6387 5.07173 77.9139 4.44496 78.1057 3.70277C78.2974 2.95703 78.3933 2.10653 78.3933 1.15128C78.3931 1.10042 78.3926 1.05 78.3919 1H76.1279C76.0771 1.06698 76.0225 1.13161 75.9643 1.19389C75.7619 1.40696 75.5258 1.57386 75.2559 1.6946C74.986 1.81534 74.6948 1.87571 74.3823 1.87571C73.9633 1.87571 73.5904 1.77628 73.2637 1.57741C73.0195 1.42448 72.8139 1.232 72.6468 1H70.8553Z" fill="#1F2F4C"/>
<path fill-rule="evenodd" clip-rule="evenodd" d="M0 79.8693H0.585316V82H2.15669V79.8693H3.60023V78.4737H2.15669V71.0909H1.17658H0.59597H0.12722L0 71.2919V73.8596L0.510742 73.0511H0.59597V78.4737H0V79.8693Z" fill="#1F2F4C"/>
<path d="M23.3817 67.7017V60.5H24.8146V67.7017H23.3817ZM20.5 64.8146V63.3817H27.7017V64.8146H20.5Z" fill="#1F2F4C"/>
<path d="M36.3817 54.7017V47.5H37.8146V54.7017H36.3817ZM33.5 51.8146V50.3817H40.7017V51.8146H33.5Z" fill="#1F2F4C"/>
<path d="M61.3817 54.7017V47.5H62.8146V54.7017H61.3817ZM58.5 51.8146V50.3817H65.7017V51.8146H58.5Z" fill="#1F2F4C"/>
<path fill-rule="evenodd" clip-rule="evenodd" d="M28.9938 64.2499C28.9979 64.1671 28.9999 64.0838 28.9999 64C28.9999 63.9161 28.9979 63.8328 28.9938 63.7499L100 63.75V64.25L28.9938 64.2499ZM19.0061 64.2499L0.0895996 64.2499V63.7499L19.0061 63.7499C19.002 63.8327 18.9999 63.9161 18.9999 64C18.9999 64.0838 19.002 64.1671 19.0061 64.2499Z" fill="#1F2F4C" fill-opacity="0.8"/>
<path fill-rule="evenodd" clip-rule="evenodd" d="M36.8875 55.9988L37 101.001L37.5 100.999L37.3875 55.9852C37.2596 55.995 37.1304 56 37 56C36.9624 56 36.9249 55.9996 36.8875 55.9988ZM36.8625 46.0019C36.9082 46.0006 36.954 46 37 46C37.1219 46 37.2428 46.0044 37.3625 46.013L37.25 0.998904L36.75 1.00113L36.8625 46.0019Z" fill="#1F2F4C" fill-opacity="0.8"/>
<path fill-rule="evenodd" clip-rule="evenodd" d="M61.8875 55.9988L62 101.001L62.5 100.999L62.3875 55.9852C62.2596 55.995 62.1304 56 62 56C61.9624 56 61.9249 55.9996 61.8875 55.9988ZM61.8625 46.0019C61.9082 46.0006 61.954 46 62 46C62.1219 46 62.2428 46.0044 62.3625 46.013L62.25 0.998904L61.75 1.00113L61.8625 46.0019Z" fill="#1F2F4C" fill-opacity="0.8"/>
</svg>
