<svg width="100" height="102" viewBox="0 0 100 102" fill="none" xmlns="http://www.w3.org/2000/svg">
<rect x="62" y="64" width="25" height="25" fill="#828387" fill-opacity="0.3"/>
<rect x="0.5" y="1.5" width="99" height="98.9996" rx="9.5" stroke="#1F2F4C"/>
<path d="M12 1L12.25 101" stroke="#1F2F4C" stroke-width="0.5"/>
<path d="M87 1L87.25 101" stroke="#1F2F4C" stroke-width="0.5"/>
<path d="M100 39L-6.1214e-05 39" stroke="#1F2F4C" stroke-opacity="0.8" stroke-width="0.5"/>
<path d="M100 14L0.000182927 14" stroke="#1F2F4C" stroke-width="0.5"/>
<path d="M100 88.9997L0.000182927 88.9997" stroke="#1F2F4C" stroke-width="0.5"/>
<path d="M100 64L0.0896628 63.9999" stroke="#1F2F4C" stroke-opacity="0.8" stroke-width="0.5"/>
<path d="M37 1L37.25 101" stroke="#1F2F4C" stroke-opacity="0.8" stroke-width="0.5"/>
<path d="M62 1L62.25 101" stroke="#1F2F4C" stroke-opacity="0.8" stroke-width="0.5"/>
<path d="M49.4088 20.9418C49.8953 20.9453 50.3747 21.0341 50.847 21.2081C51.3193 21.3821 51.7454 21.6662 52.1254 22.0604C52.5089 22.4545 52.8143 22.9872 53.0416 23.6584C53.2724 24.326 53.3896 25.157 53.3932 26.1513C53.3932 27.1065 53.2973 27.957 53.1055 28.7028C52.9138 29.445 52.6385 30.0717 52.2799 30.5831C51.9248 31.0945 51.4933 31.4833 50.9855 31.7496C50.4777 32.016 49.9059 32.1491 49.2703 32.1491C48.6204 32.1491 48.0434 32.0213 47.5391 31.7656C47.0348 31.5099 46.6247 31.1566 46.3086 30.7056C45.9926 30.2511 45.7955 29.729 45.7174 29.1396H47.342C47.4486 29.6083 47.6652 29.9883 47.9919 30.2795C48.3221 30.5671 48.7483 30.7109 49.2703 30.7109C50.0693 30.7109 50.6925 30.3629 51.14 29.6669C51.5874 28.9673 51.8129 27.9908 51.8165 26.7372H51.7312C51.5466 27.0426 51.3157 27.3054 51.0388 27.5256C50.7653 27.7457 50.4581 27.9162 50.1172 28.0369C49.7763 28.1577 49.4123 28.218 49.0253 28.218C48.3967 28.218 47.825 28.0636 47.3101 27.7546C46.7951 27.4457 46.385 27.0213 46.0796 26.4815C45.7742 25.9418 45.6215 25.3256 45.6215 24.6332C45.6215 23.9442 45.7777 23.3192 46.0902 22.7582C46.4063 22.1971 46.8466 21.7532 47.4113 21.4265C47.9794 21.0962 48.6453 20.9347 49.4088 20.9418ZM49.4141 22.3267C48.9986 22.3267 48.624 22.4297 48.2902 22.6357C47.9599 22.8381 47.6989 23.1133 47.5071 23.4613C47.3154 23.8058 47.2195 24.1893 47.2195 24.6119C47.2195 25.0344 47.3118 25.418 47.4965 25.7624C47.6847 26.1033 47.9404 26.375 48.2635 26.5774C48.5902 26.7763 48.9631 26.8757 49.3821 26.8757C49.6946 26.8757 49.9858 26.8153 50.2557 26.6946C50.5256 26.5739 50.7618 26.407 50.9642 26.1939C51.1666 25.9773 51.3246 25.7322 51.4383 25.4588C51.5519 25.1854 51.6087 24.8977 51.6087 24.5959C51.6087 24.1946 51.5128 23.8217 51.3211 23.4773C51.1329 23.1328 50.8736 22.8558 50.5434 22.6463C50.2131 22.4332 49.8367 22.3267 49.4141 22.3267Z" fill="#1F2F4C"/>
<path d="M24.4993 82.1491C23.8317 82.1491 23.2316 82.0213 22.6989 81.7656C22.1698 81.5064 21.7472 81.1513 21.4312 80.7003C21.1151 80.2493 20.9464 79.7344 20.9251 79.1555H22.5231C22.5622 79.6243 22.7699 80.0096 23.1464 80.3114C23.5228 80.6133 23.9738 80.7642 24.4993 80.7642C24.9184 80.7642 25.2895 80.6683 25.6126 80.4766C25.9393 80.2812 26.195 80.0131 26.3797 79.6722C26.5679 79.3313 26.662 78.9425 26.662 78.5057C26.662 78.0618 26.5661 77.6658 26.3743 77.3178C26.1826 76.9698 25.918 76.6964 25.5807 76.4975C25.2468 76.2987 24.8633 76.1974 24.4301 76.1939C24.0998 76.1939 23.7678 76.2507 23.434 76.3643C23.1002 76.478 22.8303 76.6271 22.6243 76.8118L21.1169 76.5881L21.7294 71.0909H27.7273V72.5025H23.0984L22.7522 75.5547H22.8161C23.0292 75.3487 23.3115 75.1765 23.663 75.038C24.0182 74.8995 24.3981 74.8303 24.803 74.8303C25.467 74.8303 26.0583 74.9883 26.5767 75.3043C27.0988 75.6204 27.5089 76.0518 27.8072 76.5987C28.1091 77.142 28.2582 77.767 28.2547 78.4737C28.2582 79.1804 28.0984 79.8107 27.7753 80.3647C27.4557 80.9187 27.0118 81.3555 26.4436 81.6751C25.879 81.9911 25.2309 82.1491 24.4993 82.1491Z" fill="#1F2F4C"/>
<path d="M74.5133 57.1491C73.7818 57.1491 73.1284 57.0231 72.5531 56.771C71.9814 56.5188 71.5286 56.169 71.1948 55.7216C70.8645 55.2706 70.687 54.7486 70.6621 54.1555H72.3347C72.356 54.4787 72.4643 54.7592 72.6596 54.9972C72.8585 55.2315 73.1177 55.4126 73.4373 55.5405C73.7569 55.6683 74.112 55.7322 74.5027 55.7322C74.9324 55.7322 75.3123 55.6577 75.6426 55.5085C75.9764 55.3594 76.2374 55.1516 76.4256 54.8853C76.6138 54.6154 76.7079 54.3047 76.7079 53.9531C76.7079 53.5874 76.6138 53.266 76.4256 52.989C76.2409 52.7085 75.9693 52.4883 75.6106 52.3285C75.2555 52.1687 74.8258 52.0888 74.3216 52.0888H73.4V50.7464H74.3216C74.7264 50.7464 75.0815 50.6737 75.3869 50.5281C75.6958 50.3825 75.9373 50.18 76.1113 49.9208C76.2853 49.658 76.3723 49.3509 76.3723 48.9993C76.3723 48.6619 76.296 48.369 76.1433 48.1204C75.9941 47.8683 75.7811 47.6712 75.5041 47.5291C75.2306 47.3871 74.9075 47.3161 74.5346 47.3161C74.1795 47.3161 73.8475 47.3817 73.5385 47.5131C73.2331 47.641 72.9846 47.8256 72.7928 48.0671C72.601 48.305 72.498 48.5909 72.4838 48.9247H70.8912C70.9089 48.3352 71.0829 47.8168 71.4132 47.3693C71.747 46.9219 72.1873 46.5721 72.7342 46.32C73.2811 46.0678 73.8883 45.9418 74.5559 45.9418C75.2555 45.9418 75.8592 46.0785 76.367 46.3519C76.8784 46.6218 77.2725 46.9822 77.5495 47.4332C77.8301 47.8842 77.9686 48.3778 77.965 48.9141C77.9686 49.5249 77.7981 50.0433 77.4537 50.4695C77.1127 50.8956 76.6582 51.1815 76.09 51.3271V51.4123C76.8145 51.5224 77.3755 51.81 77.7733 52.2752C78.1745 52.7404 78.3734 53.3175 78.3699 54.0064C78.3734 54.6065 78.2065 55.1445 77.8691 55.6204C77.5353 56.0962 77.079 56.4709 76.5002 56.7443C75.9213 57.0142 75.2591 57.1491 74.5133 57.1491Z" fill="#1F2F4C"/>
<path d="M24.4967 32.1491C23.7332 32.1491 23.0585 32.0178 22.4725 31.755C21.8901 31.4922 21.4338 31.13 21.1036 30.6683C20.7733 30.2067 20.61 29.6811 20.6135 29.0916C20.61 28.63 20.7041 28.2056 20.8958 27.8185C21.0911 27.4279 21.3557 27.103 21.6895 26.8438C22.0233 26.581 22.3962 26.4141 22.8081 26.343V26.2791C22.2648 26.1477 21.8298 25.8565 21.5031 25.4055C21.1764 24.9545 21.0148 24.4361 21.0183 23.8501C21.0148 23.2926 21.1622 22.7955 21.4604 22.3587C21.7623 21.9183 22.176 21.5721 22.7016 21.32C23.2271 21.0678 23.8255 20.9418 24.4967 20.9418C25.1607 20.9418 25.7538 21.0696 26.2758 21.3253C26.8014 21.5774 27.2151 21.9237 27.5169 22.364C27.8188 22.8008 27.9715 23.2962 27.975 23.8501C27.9715 24.4361 27.8046 24.9545 27.4743 25.4055C27.144 25.8565 26.7144 26.1477 26.1852 26.2791V26.343C26.5936 26.4141 26.9612 26.581 27.2879 26.8438C27.6181 27.103 27.8809 27.4279 28.0762 27.8185C28.2751 28.2056 28.3763 28.63 28.3798 29.0916C28.3763 29.6811 28.2094 30.2067 27.8791 30.6683C27.5489 31.13 27.0908 31.4922 26.5048 31.755C25.9225 32.0178 25.2531 32.1491 24.4967 32.1491ZM24.4967 30.8015C24.9477 30.8015 25.3383 30.7269 25.6685 30.5778C25.9988 30.4251 26.2545 30.2138 26.4356 29.9439C26.6167 29.6705 26.709 29.3509 26.7126 28.9851C26.709 28.6051 26.6096 28.2695 26.4143 27.9783C26.2225 27.6871 25.9615 27.4581 25.6313 27.2912C25.301 27.1243 24.9228 27.0408 24.4967 27.0408C24.067 27.0408 23.6852 27.1243 23.3514 27.2912C23.0176 27.4581 22.7548 27.6871 22.5631 27.9783C22.3713 28.2695 22.2772 28.6051 22.2808 28.9851C22.2772 29.3509 22.3642 29.6705 22.5418 29.9439C22.7229 30.2138 22.9803 30.4251 23.3141 30.5778C23.6479 30.7269 24.0421 30.8015 24.4967 30.8015ZM24.4967 25.7251C24.8589 25.7251 25.1803 25.6523 25.4608 25.5067C25.7413 25.3612 25.9615 25.1587 26.1213 24.8995C26.2847 24.6403 26.3681 24.3366 26.3717 23.9886C26.3681 23.6477 26.2864 23.3494 26.1266 23.0938C25.9704 22.8381 25.752 22.641 25.4715 22.5025C25.1909 22.3604 24.866 22.2894 24.4967 22.2894C24.1203 22.2894 23.79 22.3604 23.5059 22.5025C23.2254 22.641 23.007 22.8381 22.8507 23.0938C22.6945 23.3494 22.6181 23.6477 22.6217 23.9886C22.6181 24.3366 22.6962 24.6403 22.856 24.8995C23.0158 25.1587 23.236 25.3612 23.5166 25.5067C23.8006 25.6523 24.1274 25.7251 24.4967 25.7251Z" fill="#1F2F4C"/>
<path d="M45.4131 54.8693V53.5376L50.1272 46.0909H51.1766V48.0511H50.5107L47.1389 53.3885V53.4737H53.6002V54.8693H45.4131ZM50.5853 57V54.4645L50.596 53.8572V46.0909H52.1567V57H50.5853Z" fill="#1F2F4C"/>
<rect x="36" y="17" width="2" height="19" rx="1" fill="#1F2F4C"/>
<rect x="61" y="42" width="2" height="19" rx="1" fill="#1F2F4C"/>
<rect x="65" y="40" width="2" height="19" rx="1" transform="rotate(-90 65 40)" fill="#1F2F4C"/>
<rect x="65" y="65" width="2" height="19" rx="1" transform="rotate(-90 65 65)" fill="#1F2F4C"/>
<rect x="40" y="90" width="2" height="19" rx="1" transform="rotate(-90 40 90)" fill="#1F2F4C"/>
<rect x="15" y="90" width="2" height="19" rx="1" transform="rotate(-90 15 90)" fill="#1F2F4C"/>
<rect x="86" y="67" width="2" height="19" rx="1" fill="#1F2F4C"/>
<path fill-rule="evenodd" clip-rule="evenodd" d="M0 65H8C8.55229 65 9 64.5523 9 64C9 63.4477 8.55229 63 8 63H0V65Z" fill="#1F2F4C"/>
<path fill-rule="evenodd" clip-rule="evenodd" d="M49.4919 1V7H51.1432V1H49.4919Z" fill="#1F2F4C"/>
<path fill-rule="evenodd" clip-rule="evenodd" d="M100 71.0909H99.5401L96.8181 72.87V74.4467L99.4282 72.7422H99.4921V82H100V71.0909Z" fill="#1F2F4C"/>
<path fill-rule="evenodd" clip-rule="evenodd" d="M27.51 101H22.4964C22.6343 100.828 22.7888 100.674 22.96 100.539C23.237 100.319 23.546 100.15 23.8869 100.033C24.2313 99.9119 24.5935 99.8516 24.9735 99.8516C25.6056 99.8516 26.1774 100.006 26.6887 100.315C27.001 100.5 27.2748 100.729 27.51 101ZM20.6421 101C20.6838 100.412 20.7676 99.8708 20.8933 99.3775C21.085 98.6389 21.3602 98.0156 21.7189 97.5078C22.0776 96.9965 22.5108 96.6076 23.0186 96.3413C23.5264 96.0749 24.0964 95.9418 24.7285 95.9418C25.3783 95.9418 25.9554 96.0696 26.4597 96.3253C26.9639 96.581 27.3723 96.9343 27.6848 97.3853C28.0009 97.8363 28.2015 98.3494 28.2867 98.9247H26.6621C26.552 98.4702 26.3336 98.0991 26.0069 97.8114C25.6802 97.5238 25.2541 97.38 24.7285 97.38C23.9295 97.38 23.3063 97.728 22.8588 98.424C22.4548 99.0576 22.2331 99.9162 22.1939 101H20.6421Z" fill="#1F2F4C"/>
<path fill-rule="evenodd" clip-rule="evenodd" d="M51.8466 101H47.1329C46.8909 100.849 46.681 100.651 46.5031 100.406C46.1764 99.9546 46.0148 99.4361 46.0184 98.8502C46.0148 98.2926 46.1622 97.7955 46.4605 97.3587C46.7623 96.9183 47.176 96.5721 47.7016 96.32C48.2272 96.0678 48.8255 95.9418 49.4967 95.9418C50.1608 95.9418 50.7538 96.0696 51.2758 96.3253C51.8014 96.5774 52.2151 96.9237 52.517 97.364C52.8188 97.8008 52.9715 98.2962 52.975 98.8502C52.9715 99.4361 52.8046 99.9546 52.4743 100.406C52.2946 100.651 52.0853 100.849 51.8466 101ZM50.4608 100.507C50.1803 100.652 49.8589 100.725 49.4967 100.725C49.1274 100.725 48.8007 100.652 48.5166 100.507C48.2361 100.361 48.0159 100.159 47.8561 99.8995C47.6963 99.6403 47.6182 99.3367 47.6217 98.9886C47.6182 98.6477 47.6945 98.3494 47.8508 98.0938C48.007 97.8381 48.2254 97.641 48.5059 97.5025C48.79 97.3605 49.1203 97.2894 49.4967 97.2894C49.866 97.2894 50.191 97.3605 50.4715 97.5025C50.752 97.641 50.9704 97.8381 51.1267 98.0938C51.2865 98.3494 51.3682 98.6477 51.3717 98.9886C51.3682 99.3367 51.2847 99.6403 51.1214 99.8995C50.9616 100.159 50.7414 100.361 50.4608 100.507Z" fill="#1F2F4C"/>
</svg>
