<svg width="101" height="102" viewBox="0 0 101 102" fill="none" xmlns="http://www.w3.org/2000/svg">
<rect x="12" y="64" width="25" height="25" fill="#828387" fill-opacity="0.3"/>
<rect x="0.5" y="1.5" width="99" height="98.9996" rx="9.5" stroke="#1F2F4C"/>
<path d="M12 1L12.25 101" stroke="#1F2F4C"/>
<path d="M87 1L87.25 101" stroke="#1F2F4C"/>
<path d="M100 39L-6.1214e-05 39" stroke="#1F2F4C" stroke-opacity="0.8" stroke-width="0.5"/>
<path d="M100 14L0.000182927 14" stroke="#1F2F4C"/>
<path d="M100 88.9997L0.000182927 88.9997" stroke="#1F2F4C"/>
<path d="M100 64L0.0896628 63.9999" stroke="#1F2F4C" stroke-opacity="0.8" stroke-width="0.5"/>
<path d="M37 1L37.25 101" stroke="#1F2F4C" stroke-opacity="0.8" stroke-width="0.5"/>
<path d="M62 1L62.25 101" stroke="#1F2F4C" stroke-opacity="0.8" stroke-width="0.5"/>
<path d="M24.4967 57.1491C23.7332 57.1491 23.0585 57.0178 22.4725 56.755C21.8901 56.4922 21.4338 56.13 21.1036 55.6683C20.7733 55.2067 20.61 54.6811 20.6135 54.0916C20.61 53.63 20.7041 53.2056 20.8958 52.8185C21.0911 52.4279 21.3557 52.103 21.6895 51.8438C22.0233 51.581 22.3962 51.4141 22.8081 51.343V51.2791C22.2648 51.1477 21.8298 50.8565 21.5031 50.4055C21.1764 49.9545 21.0148 49.4361 21.0183 48.8501C21.0148 48.2926 21.1622 47.7955 21.4604 47.3587C21.7623 46.9183 22.176 46.5721 22.7016 46.32C23.2271 46.0678 23.8255 45.9418 24.4967 45.9418C25.1607 45.9418 25.7538 46.0696 26.2758 46.3253C26.8014 46.5774 27.2151 46.9237 27.5169 47.364C27.8188 47.8008 27.9715 48.2962 27.975 48.8501C27.9715 49.4361 27.8046 49.9545 27.4743 50.4055C27.144 50.8565 26.7144 51.1477 26.1852 51.2791V51.343C26.5936 51.4141 26.9612 51.581 27.2879 51.8438C27.6181 52.103 27.8809 52.4279 28.0762 52.8185C28.2751 53.2056 28.3763 53.63 28.3798 54.0916C28.3763 54.6811 28.2094 55.2067 27.8791 55.6683C27.5489 56.13 27.0908 56.4922 26.5048 56.755C25.9225 57.0178 25.2531 57.1491 24.4967 57.1491ZM24.4967 55.8015C24.9477 55.8015 25.3383 55.7269 25.6685 55.5778C25.9988 55.4251 26.2545 55.2138 26.4356 54.9439C26.6167 54.6705 26.709 54.3509 26.7126 53.9851C26.709 53.6051 26.6096 53.2695 26.4143 52.9783C26.2225 52.6871 25.9615 52.4581 25.6313 52.2912C25.301 52.1243 24.9228 52.0408 24.4967 52.0408C24.067 52.0408 23.6852 52.1243 23.3514 52.2912C23.0176 52.4581 22.7548 52.6871 22.5631 52.9783C22.3713 53.2695 22.2772 53.6051 22.2808 53.9851C22.2772 54.3509 22.3642 54.6705 22.5418 54.9439C22.7229 55.2138 22.9803 55.4251 23.3141 55.5778C23.6479 55.7269 24.0421 55.8015 24.4967 55.8015ZM24.4967 50.7251C24.8589 50.7251 25.1803 50.6523 25.4608 50.5067C25.7413 50.3612 25.9615 50.1587 26.1213 49.8995C26.2847 49.6403 26.3681 49.3366 26.3717 48.9886C26.3681 48.6477 26.2864 48.3494 26.1266 48.0938C25.9704 47.8381 25.752 47.641 25.4715 47.5025C25.1909 47.3604 24.866 47.2894 24.4967 47.2894C24.1203 47.2894 23.79 47.3604 23.5059 47.5025C23.2254 47.641 23.007 47.8381 22.8507 48.0938C22.6945 48.3494 22.6181 48.6477 22.6217 48.9886C22.6181 49.3366 22.6962 49.6403 22.856 49.8995C23.0158 50.1587 23.236 50.3612 23.5166 50.5067C23.8006 50.6523 24.1274 50.7251 24.4967 50.7251Z" fill="#1F2F4C"/>
<path d="M21.5736 32L26.3357 22.5824V22.5025H20.8279V21.0909H28.0403V22.5504L23.2942 32H21.5736Z" fill="#1F2F4C"/>
<path d="M49.5133 57.1491C48.7818 57.1491 48.1284 57.0231 47.5531 56.771C46.9814 56.5188 46.5286 56.169 46.1948 55.7216C45.8645 55.2706 45.687 54.7486 45.6621 54.1555H47.3347C47.356 54.4787 47.4643 54.7592 47.6596 54.9972C47.8585 55.2315 48.1177 55.4126 48.4373 55.5405C48.7569 55.6683 49.112 55.7322 49.5027 55.7322C49.9324 55.7322 50.3123 55.6577 50.6426 55.5085C50.9764 55.3594 51.2374 55.1516 51.4256 54.8853C51.6138 54.6154 51.7079 54.3047 51.7079 53.9531C51.7079 53.5874 51.6138 53.266 51.4256 52.989C51.2409 52.7085 50.9693 52.4883 50.6106 52.3285C50.2555 52.1687 49.8258 52.0888 49.3216 52.0888H48.4V50.7464H49.3216C49.7264 50.7464 50.0815 50.6737 50.3869 50.5281C50.6958 50.3825 50.9373 50.18 51.1113 49.9208C51.2853 49.658 51.3723 49.3509 51.3723 48.9993C51.3723 48.6619 51.296 48.369 51.1433 48.1204C50.9941 47.8683 50.7811 47.6712 50.5041 47.5291C50.2306 47.3871 49.9075 47.3161 49.5346 47.3161C49.1795 47.3161 48.8475 47.3817 48.5385 47.5131C48.2331 47.641 47.9846 47.8256 47.7928 48.0671C47.601 48.305 47.498 48.5909 47.4838 48.9247H45.8912C45.9089 48.3352 46.0829 47.8168 46.4132 47.3693C46.747 46.9219 47.1873 46.5721 47.7342 46.32C48.2811 46.0678 48.8883 45.9418 49.5559 45.9418C50.2555 45.9418 50.8592 46.0785 51.367 46.3519C51.8784 46.6218 52.2725 46.9822 52.5495 47.4332C52.8301 47.8842 52.9686 48.3778 52.965 48.9141C52.9686 49.5249 52.7981 50.0433 52.4537 50.4695C52.1127 50.8956 51.6582 51.1815 51.09 51.3271V51.4123C51.8145 51.5224 52.3755 51.81 52.7733 52.2752C53.1745 52.7404 53.3734 53.3175 53.3699 54.0064C53.3734 54.6065 53.2065 55.1445 52.8691 55.6204C52.5353 56.0962 52.079 56.4709 51.5002 56.7443C50.9213 57.0142 50.2591 57.1491 49.5133 57.1491Z" fill="#1F2F4C"/>
<path d="M74.4993 82.1491C73.8317 82.1491 73.2316 82.0213 72.6989 81.7656C72.1698 81.5064 71.7472 81.1513 71.4312 80.7003C71.1151 80.2493 70.9464 79.7344 70.9251 79.1555H72.5231C72.5622 79.6243 72.7699 80.0096 73.1464 80.3114C73.5228 80.6133 73.9738 80.7642 74.4993 80.7642C74.9184 80.7642 75.2895 80.6683 75.6126 80.4766C75.9393 80.2812 76.195 80.0131 76.3797 79.6722C76.5679 79.3313 76.662 78.9425 76.662 78.5057C76.662 78.0618 76.5661 77.6658 76.3743 77.3178C76.1826 76.9698 75.918 76.6964 75.5807 76.4975C75.2468 76.2987 74.8633 76.1974 74.4301 76.1939C74.0998 76.1939 73.7678 76.2507 73.434 76.3643C73.1002 76.478 72.8303 76.6271 72.6243 76.8118L71.1169 76.5881L71.7294 71.0909H77.7273V72.5025H73.0984L72.7522 75.5547H72.8161C73.0292 75.3487 73.3115 75.1765 73.663 75.038C74.0182 74.8995 74.3981 74.8303 74.803 74.8303C75.467 74.8303 76.0583 74.9883 76.5767 75.3043C77.0988 75.6204 77.5089 76.0518 77.8072 76.5987C78.1091 77.142 78.2582 77.767 78.2547 78.4737C78.2582 79.1804 78.0984 79.8107 77.7753 80.3647C77.4557 80.9187 77.0118 81.3555 76.4436 81.6751C75.879 81.9911 75.2309 82.1491 74.4993 82.1491Z" fill="#1F2F4C"/>
<path d="M70.4131 29.8693V28.5376L75.1272 21.0909H76.1766V23.0511H75.5107L72.1389 28.3885V28.4737H78.6002V29.8693H70.4131ZM75.5853 32V29.4645L75.596 28.8572V21.0909H77.1567V32H75.5853Z" fill="#1F2F4C"/>
<circle cx="49.5" cy="51.5" r="11.25" stroke="#1F2F4C" stroke-width="0.5"/>
<circle cx="24.5" cy="76.5" r="11.25" stroke="#1F2F4C" stroke-width="0.5"/>
<circle cx="74.5" cy="76.5" r="11.25" stroke="#1F2F4C" stroke-width="0.5"/>
<path fill-rule="evenodd" clip-rule="evenodd" d="M100 40.0107C99.8342 40.0036 99.6675 40 99.5 40C93.1487 40 88 45.1487 88 51.5C88 57.8513 93.1487 63 99.5 63C99.6675 63 99.8342 62.9964 100 62.9893V62.4888C99.8343 62.4963 99.6676 62.5 99.5 62.5C93.4249 62.5 88.5 57.5751 88.5 51.5C88.5 45.4249 93.4249 40.5 99.5 40.5C99.6676 40.5 99.8343 40.5037 100 40.5112V40.0107Z" fill="#1F2F4C"/>
<circle cx="49.5" cy="26.5" r="11.25" stroke="#1F2F4C" stroke-width="0.5"/>
<circle cx="24.5" cy="26.5" r="11.25" stroke="#1F2F4C" stroke-width="0.5"/>
<path fill-rule="evenodd" clip-rule="evenodd" d="M13.0107 1C13.0036 1.16578 13 1.33247 13 1.5C13 7.85127 18.1487 13 24.5 13C30.8513 13 36 7.85127 36 1.5C36 1.33247 35.9964 1.16578 35.9893 1H35.4888C35.4963 1.16574 35.5 1.33243 35.5 1.5C35.5 7.57513 30.5751 12.5 24.5 12.5C18.4249 12.5 13.5 7.57513 13.5 1.5C13.5 1.33243 13.5037 1.16574 13.5112 1H13.0107Z" fill="#1F2F4C"/>
<path fill-rule="evenodd" clip-rule="evenodd" d="M63.0107 1C63.0036 1.16578 63 1.33247 63 1.5C63 7.85127 68.1487 13 74.5 13C80.8513 13 86 7.85127 86 1.5C86 1.33247 85.9964 1.16578 85.9893 1H85.4888C85.4963 1.16574 85.5 1.33243 85.5 1.5C85.5 7.57513 80.5751 12.5 74.5 12.5C68.4249 12.5 63.5 7.57513 63.5 1.5C63.5 1.33243 63.5037 1.16574 63.5112 1H63.0107Z" fill="#1F2F4C"/>
<path fill-rule="evenodd" clip-rule="evenodd" d="M100 15.0107C99.8342 15.0036 99.6675 15 99.5 15C93.1487 15 88 20.1487 88 26.5C88 32.8513 93.1487 38 99.5 38C99.6675 38 99.8342 37.9964 100 37.9893V37.4888C99.8343 37.4963 99.6676 37.5 99.5 37.5C93.4249 37.5 88.5 32.5751 88.5 26.5C88.5 20.4249 93.4249 15.5 99.5 15.5C99.6676 15.5 99.8343 15.5037 100 15.5112V15.0107Z" fill="#1F2F4C"/>
<path fill-rule="evenodd" clip-rule="evenodd" d="M100 65.0107C99.8342 65.0036 99.6675 65 99.5 65C93.1487 65 88 70.1487 88 76.5C88 82.8513 93.1487 88 99.5 88C99.6675 88 99.8342 87.9964 100 87.9893V87.4888C99.8343 87.4963 99.6676 87.5 99.5 87.5C93.4249 87.5 88.5 82.5751 88.5 76.5C88.5 70.4249 93.4249 65.5 99.5 65.5C99.6676 65.5 99.8343 65.5037 100 65.5112V65.0107Z" fill="#1F2F4C"/>
<path fill-rule="evenodd" clip-rule="evenodd" d="M99.5001 90C99.6676 90 99.8343 90.0036 100 90.0107V90.5112C99.8343 90.5037 99.6676 90.5 99.5001 90.5C93.5925 90.5 88.7726 95.1569 88.5112 101H88.0107C88.2725 94.8807 93.3163 90 99.5001 90Z" fill="#1F2F4C"/>
<path fill-rule="evenodd" clip-rule="evenodd" d="M85.4889 101C85.2275 95.1569 80.4076 90.5 74.5001 90.5C68.5925 90.5 63.7726 95.1569 63.5112 101H63.0107C63.2725 94.8807 68.3163 90 74.5001 90C80.6838 90 85.7276 94.8807 85.9894 101H85.4889Z" fill="#1F2F4C"/>
<path fill-rule="evenodd" clip-rule="evenodd" d="M60.4889 101C60.2275 95.1569 55.4076 90.5 49.5001 90.5C43.5925 90.5 38.7726 95.1569 38.5112 101H38.0107C38.2725 94.8807 43.3163 90 49.5001 90C55.6838 90 60.7276 94.8807 60.9894 101H60.4889Z" fill="#1F2F4C"/>
<path fill-rule="evenodd" clip-rule="evenodd" d="M0 90.5112C5.67736 90.7651 10.2349 95.3227 10.4889 101H10.9894C10.7347 95.0465 5.95356 90.2653 0 90.0107V90.5112Z" fill="#1F2F4C"/>
<path fill-rule="evenodd" clip-rule="evenodd" d="M0 12.9893C6.11931 12.7275 11 7.68375 11 1.5C11 1.33247 10.9964 1.16578 10.9893 1H10.4888C10.4963 1.16574 10.5 1.33243 10.5 1.5C10.5 7.40756 5.84307 12.2274 0 12.4888V12.9893Z" fill="#1F2F4C"/>
<path fill-rule="evenodd" clip-rule="evenodd" d="M0 79.8693H0.585316V82H2.15669V79.8693H3.60023V78.4737H2.15669V71.0909H1.17658H0.59597H0.12722L0 71.2918V73.8596L0.510742 73.0511H0.59597V78.4737H0V79.8693Z" fill="#1F2F4C"/>
<path fill-rule="evenodd" clip-rule="evenodd" d="M21.1823 1L21.1168 1.58807L22.6243 1.81179C22.8302 1.62713 23.1001 1.47798 23.4339 1.36435C23.7677 1.25071 24.0998 1.19389 24.43 1.19389C24.8633 1.19744 25.2468 1.29865 25.5806 1.49751C25.9179 1.69638 26.1825 1.96982 26.3743 2.31783C26.566 2.66584 26.6619 3.06179 26.6619 3.50568C26.6619 3.94247 26.5678 4.33132 26.3796 4.67223C26.1949 5.01314 25.9393 5.28125 25.6125 5.47656C25.2894 5.66832 24.9183 5.7642 24.4993 5.7642C23.9737 5.7642 23.5227 5.61328 23.1463 5.31143C22.7699 5.00959 22.5621 4.62429 22.5231 4.15554H20.925C20.9464 4.73438 21.115 5.24929 21.4311 5.70028C21.7471 6.15128 22.1697 6.50639 22.6988 6.76562C23.2315 7.02131 23.8317 7.14915 24.4993 7.14915C25.2308 7.14915 25.8789 6.99112 26.4435 6.67507C27.0117 6.35547 27.4556 5.91868 27.7752 5.3647C28.0983 4.81072 28.2581 4.1804 28.2546 3.47372C28.2581 2.76705 28.109 2.14205 27.8072 1.59872C27.6883 1.38083 27.5517 1.18125 27.3973 1H21.1823Z" fill="#1F2F4C"/>
<path fill-rule="evenodd" clip-rule="evenodd" d="M100 20.9886C99.8042 20.9588 99.6071 20.9432 99.4089 20.9418C98.6454 20.9347 97.9795 21.0962 97.4114 21.4265C96.8467 21.7532 96.4064 22.1971 96.0903 22.7582C95.7778 23.3192 95.6216 23.9442 95.6216 24.6332C95.6216 25.3256 95.7743 25.9418 96.0797 26.4815C96.3851 27.0213 96.7952 27.4457 97.3101 27.7546C97.8251 28.0636 98.3968 28.218 99.0253 28.218C99.3684 28.218 99.6933 28.1706 100 28.0758V26.7891C99.8043 26.8468 99.5984 26.8757 99.3822 26.8757C98.9632 26.8757 98.5903 26.7763 98.2636 26.5774C97.9405 26.375 97.6848 26.1033 97.4966 25.7624C97.3119 25.418 97.2196 25.0344 97.2196 24.6119C97.2196 24.1893 97.3155 23.8057 97.5072 23.4613C97.699 23.1133 97.96 22.8381 98.2903 22.6356C98.6241 22.4297 98.9987 22.3267 99.4142 22.3267C99.6205 22.3267 99.8158 22.3521 100 22.4029V20.9886ZM100 30.5985C99.7758 30.6735 99.5325 30.7109 99.2704 30.7109C98.7484 30.7109 98.3222 30.5671 97.992 30.2795C97.6653 29.9883 97.4486 29.6083 97.3421 29.1396H95.7175C95.7956 29.729 95.9927 30.2511 96.3087 30.7056C96.6248 31.1566 97.0349 31.5099 97.5392 31.7656C98.0435 32.0213 98.6205 32.1491 99.2704 32.1491C99.5238 32.1491 99.767 32.128 100 32.0857V30.5985Z" fill="#1F2F4C"/>
<path fill-rule="evenodd" clip-rule="evenodd" d="M100 71.0909H99.5401L96.8181 72.87V74.4467L99.4282 72.7422H99.4921V82H100V71.0909Z" fill="#1F2F4C"/>
<path fill-rule="evenodd" clip-rule="evenodd" d="M26.5252 101H28.3161C28.496 100.724 28.6325 100.466 28.7254 100.224C28.8781 99.8374 28.9545 99.4414 28.9545 99.0366C28.9545 98.4507 28.8071 97.9251 28.5124 97.4599C28.2176 96.9911 27.8075 96.6218 27.2819 96.3519C26.7599 96.0785 26.1562 95.9418 25.4708 95.9418C24.7925 95.9418 24.1871 96.0803 23.6544 96.3573C23.1217 96.6307 22.7027 97.016 22.3973 97.5132C22.0919 98.0103 21.9392 98.5909 21.9392 99.255H23.5106C23.5106 98.8644 23.5887 98.5234 23.745 98.2323C23.9012 97.9411 24.1249 97.7156 24.4161 97.5558C24.7073 97.396 25.0482 97.3161 25.4389 97.3161C25.8082 97.3161 26.1402 97.3889 26.4349 97.5345C26.7297 97.6765 26.9623 97.8807 27.1327 98.147C27.3032 98.4098 27.3884 98.7223 27.3884 99.0845C27.3884 99.4041 27.3245 99.706 27.1967 99.9901C27.0688 100.274 26.8753 100.574 26.6161 100.89C26.5867 100.926 26.5564 100.963 26.5252 101Z" fill="#1F2F4C"/>
<path fill-rule="evenodd" clip-rule="evenodd" d="M50.525 1C50.2847 1.28707 49.99 1.61449 49.6411 1.98224L45.9497 5.80682V7H53.1301V5.58842H48.2189V5.50852L50.3869 3.23935C51.0509 2.56463 51.5694 1.99112 51.9422 1.51882C52.0827 1.33958 52.2073 1.16664 52.316 1H50.525Z" fill="#1F2F4C"/>
</svg>
