<svg width="100" height="100" viewBox="0 0 100 100" fill="none" xmlns="http://www.w3.org/2000/svg">
<rect x="25" y="24" width="25" height="25" fill="#828387" fill-opacity="0.3"/>
<rect x="0.5" y="0.5" width="99" height="98.9996" rx="9.5" stroke="#1F2F4C"/>
<path d="M33.9498 18V16.8068L37.6412 12.9822C38.0353 12.5668 38.3603 12.2028 38.6159 11.8903C38.8752 11.5742 39.0687 11.2741 39.1966 10.9901C39.3244 10.706 39.3883 10.4041 39.3883 10.0845C39.3883 9.7223 39.3031 9.4098 39.1326 9.14702C38.9622 8.88068 38.7296 8.67649 38.4348 8.53445C38.1401 8.38885 37.8081 8.31605 37.4387 8.31605C37.0481 8.31605 36.7072 8.39595 36.416 8.55575C36.1248 8.71555 35.9011 8.94105 35.7449 9.23224C35.5886 9.52344 35.5105 9.86435 35.5105 10.255H33.9391C33.9391 9.59091 34.0918 9.0103 34.3972 8.51314C34.7026 8.01598 35.1216 7.63068 35.6543 7.35724C36.187 7.08026 36.7924 6.94176 37.4707 6.94176C38.1561 6.94176 38.7598 7.07848 39.2818 7.35192C39.8074 7.6218 40.2175 7.99112 40.5123 8.45987C40.807 8.92507 40.9544 9.45064 40.9544 10.0366C40.9544 10.4414 40.878 10.8374 40.7253 11.2244C40.5762 11.6115 40.3152 12.043 39.9423 12.5188C39.5694 12.9911 39.051 13.5646 38.3869 14.2393L36.2189 16.5085V16.5884H41.1301V18H33.9498Z" fill="#1F2F4C"/>
<path d="M84.5736 67L89.3357 57.5824V57.5025H83.8279V56.0909H91.0403V57.5504L86.2942 67H84.5736Z" fill="#1F2F4C"/>
<path d="M62.4967 68.1491C61.7332 68.1491 61.0585 68.0178 60.4725 67.755C59.8901 67.4922 59.4338 67.13 59.1036 66.6683C58.7733 66.2067 58.61 65.6811 58.6135 65.0916C58.61 64.63 58.7041 64.2056 58.8958 63.8185C59.0911 63.4279 59.3557 63.103 59.6895 62.8438C60.0233 62.581 60.3962 62.4141 60.8081 62.343V62.2791C60.2648 62.1477 59.8298 61.8565 59.5031 61.4055C59.1764 60.9545 59.0148 60.4361 59.0183 59.8501C59.0148 59.2926 59.1622 58.7955 59.4604 58.3587C59.7623 57.9183 60.176 57.5721 60.7016 57.32C61.2271 57.0678 61.8255 56.9418 62.4967 56.9418C63.1607 56.9418 63.7538 57.0696 64.2758 57.3253C64.8014 57.5774 65.2151 57.9237 65.5169 58.364C65.8188 58.8008 65.9715 59.2962 65.975 59.8501C65.9715 60.4361 65.8046 60.9545 65.4743 61.4055C65.144 61.8565 64.7144 62.1477 64.1852 62.2791V62.343C64.5936 62.4141 64.9612 62.581 65.2879 62.8438C65.6181 63.103 65.8809 63.4279 66.0762 63.8185C66.2751 64.2056 66.3763 64.63 66.3798 65.0916C66.3763 65.6811 66.2094 66.2067 65.8791 66.6683C65.5489 67.13 65.0908 67.4922 64.5048 67.755C63.9225 68.0178 63.2531 68.1491 62.4967 68.1491ZM62.4967 66.8015C62.9477 66.8015 63.3383 66.7269 63.6685 66.5778C63.9988 66.4251 64.2545 66.2138 64.4356 65.9439C64.6167 65.6705 64.709 65.3509 64.7126 64.9851C64.709 64.6051 64.6096 64.2695 64.4143 63.9783C64.2225 63.6871 63.9615 63.4581 63.6313 63.2912C63.301 63.1243 62.9228 63.0408 62.4967 63.0408C62.067 63.0408 61.6852 63.1243 61.3514 63.2912C61.0176 63.4581 60.7548 63.6871 60.5631 63.9783C60.3713 64.2695 60.2772 64.6051 60.2808 64.9851C60.2772 65.3509 60.3642 65.6705 60.5418 65.9439C60.7229 66.2138 60.9803 66.4251 61.3141 66.5778C61.6479 66.7269 62.0421 66.8015 62.4967 66.8015ZM62.4967 61.7251C62.8589 61.7251 63.1803 61.6523 63.4608 61.5067C63.7413 61.3612 63.9615 61.1587 64.1213 60.8995C64.2847 60.6403 64.3681 60.3366 64.3717 59.9886C64.3681 59.6477 64.2864 59.3494 64.1266 59.0938C63.9704 58.8381 63.752 58.641 63.4715 58.5025C63.1909 58.3604 62.866 58.2894 62.4967 58.2894C62.1203 58.2894 61.79 58.3604 61.5059 58.5025C61.2254 58.641 61.007 58.8381 60.8507 59.0938C60.6945 59.3494 60.6181 59.6477 60.6217 59.9886C60.6181 60.3366 60.6962 60.6403 60.856 60.8995C61.0158 61.1587 61.236 61.3612 61.5166 61.5067C61.8006 61.6523 62.1274 61.7251 62.4967 61.7251Z" fill="#1F2F4C"/>
<path d="M58.9498 92V90.8068L62.6412 86.9822C63.0353 86.5668 63.3603 86.2028 63.6159 85.8903C63.8752 85.5742 64.0687 85.2741 64.1966 84.9901C64.3244 84.706 64.3883 84.4041 64.3883 84.0845C64.3883 83.7223 64.3031 83.4098 64.1326 83.147C63.9622 82.8807 63.7296 82.6765 63.4348 82.5344C63.1401 82.3888 62.8081 82.3161 62.4387 82.3161C62.0481 82.3161 61.7072 82.396 61.416 82.5558C61.1248 82.7156 60.9011 82.9411 60.7449 83.2322C60.5886 83.5234 60.5105 83.8643 60.5105 84.255H58.9391C58.9391 83.5909 59.0918 83.0103 59.3972 82.5131C59.7026 82.016 60.1216 81.6307 60.6543 81.3572C61.187 81.0803 61.7924 80.9418 62.4707 80.9418C63.1561 80.9418 63.7598 81.0785 64.2818 81.3519C64.8074 81.6218 65.2175 81.9911 65.5123 82.4599C65.807 82.9251 65.9544 83.4506 65.9544 84.0366C65.9544 84.4414 65.878 84.8374 65.7253 85.2244C65.5762 85.6115 65.3152 86.043 64.9423 86.5188C64.5694 86.9911 64.051 87.5646 63.3869 88.2393L61.2189 90.5085V90.5884H66.1301V92H58.9498Z" fill="#1F2F4C"/>
<path d="M87.5899 93.1491C87.1034 93.142 86.624 93.0533 86.1517 92.8828C85.6829 92.7124 85.2568 92.4283 84.8733 92.0305C84.4897 91.6328 84.1826 91.0984 83.9517 90.4272C83.7245 89.756 83.6108 88.918 83.6108 87.913C83.6108 86.9613 83.7049 86.1161 83.8932 85.3775C84.0849 84.6388 84.3601 84.0156 84.7188 83.5078C85.0775 82.9964 85.5107 82.6076 86.0185 82.3413C86.5263 82.0749 87.0963 81.9418 87.7284 81.9418C88.3782 81.9418 88.9553 82.0696 89.4596 82.3253C89.9638 82.581 90.3722 82.9343 90.6847 83.3853C91.0008 83.8363 91.2014 84.3494 91.2866 84.9247H89.662C89.5519 84.4702 89.3335 84.0991 89.0068 83.8114C88.6801 83.5238 88.254 83.38 87.7284 83.38C86.9294 83.38 86.3062 83.728 85.8587 84.424C85.4148 85.12 85.1911 86.0877 85.1875 87.3271H85.2674C85.4557 87.0181 85.6865 86.7553 85.9599 86.5387C86.2369 86.3185 86.5459 86.1499 86.8868 86.0327C87.2312 85.9119 87.5934 85.8516 87.9734 85.8516C88.6055 85.8516 89.1772 86.006 89.6886 86.315C90.2035 86.6204 90.6137 87.043 90.9191 87.5827C91.2245 88.1225 91.3772 88.7404 91.3772 89.4364C91.3772 90.1325 91.2191 90.7628 90.9031 91.3274C90.5906 91.892 90.1503 92.3395 89.5821 92.6697C89.0139 92.9964 88.3498 93.1562 87.5899 93.1491ZM87.5846 91.7642C88.0036 91.7642 88.3782 91.6612 88.7085 91.4553C89.0388 91.2493 89.2998 90.9723 89.4915 90.6243C89.6833 90.2763 89.7792 89.8874 89.7792 89.4577C89.7792 89.0387 89.6851 88.657 89.4968 88.3125C89.3122 87.968 89.0565 87.6946 88.7298 87.4922C88.4066 87.2898 88.0373 87.1886 87.6218 87.1886C87.3058 87.1886 87.0128 87.2489 86.7429 87.3697C86.4766 87.4904 86.2422 87.6573 86.0398 87.8704C85.8374 88.0835 85.6776 88.3285 85.5604 88.6055C85.4468 88.8789 85.39 89.1683 85.39 89.4737C85.39 89.8821 85.4841 90.2603 85.6723 90.6083C85.864 90.9563 86.125 91.2369 86.4553 91.4499C86.7891 91.6594 87.1655 91.7642 87.5846 91.7642Z" fill="#1F2F4C"/>
<path d="M33.4131 40.8693V39.5376L38.1272 32.0909H39.1766V34.0511H38.5107L35.1389 39.3885V39.4737H41.6002V40.8693H33.4131ZM38.5853 43V40.4645L38.596 39.8572V32.0909H40.1567V43H38.5853Z" fill="#1F2F4C"/>
<path d="M38.0478 27.3636V31H37.4973V27.9141H37.476L36.606 28.4822V27.9567L37.5133 27.3636H38.0478Z" fill="#1F2F4C"/>
<path d="M69.0478 31.3636V35H68.4973V31.9141H68.476L67.606 32.4822V31.9567L68.5133 31.3636H69.0478Z" fill="#1F2F4C"/>
<path d="M85.8166 30V29.6023L87.0471 28.3274C87.1784 28.1889 87.2868 28.0676 87.372 27.9634C87.4584 27.8581 87.5229 27.758 87.5655 27.6634C87.6081 27.5687 87.6294 27.468 87.6294 27.3615C87.6294 27.2408 87.601 27.1366 87.5442 27.049C87.4874 26.9602 87.4099 26.8922 87.3116 26.8448C87.2134 26.7963 87.1027 26.772 86.9796 26.772C86.8494 26.772 86.7357 26.7987 86.6387 26.8519C86.5416 26.9052 86.467 26.9804 86.415 27.0774C86.3629 27.1745 86.3368 27.2881 86.3368 27.4183H85.813C85.813 27.197 85.8639 27.0034 85.9657 26.8377C86.0675 26.672 86.2072 26.5436 86.3848 26.4524C86.5623 26.3601 86.7641 26.3139 86.9902 26.3139C87.2187 26.3139 87.4199 26.3595 87.5939 26.4506C87.7691 26.5406 87.9058 26.6637 88.0041 26.82C88.1023 26.975 88.1515 27.1502 88.1515 27.3455C88.1515 27.4805 88.126 27.6125 88.0751 27.7415C88.0254 27.8705 87.9384 28.0143 87.8141 28.1729C87.6898 28.3304 87.517 28.5215 87.2956 28.7464L86.573 29.5028V29.5295H88.21V30H85.8166Z" fill="#1F2F4C"/>
<path d="M70.8166 67V66.6023L72.0471 65.3274C72.1784 65.1889 72.2868 65.0676 72.372 64.9634C72.4584 64.8581 72.5229 64.758 72.5655 64.6634C72.6081 64.5687 72.6294 64.468 72.6294 64.3615C72.6294 64.2408 72.601 64.1366 72.5442 64.049C72.4874 63.9602 72.4099 63.8922 72.3116 63.8448C72.2134 63.7963 72.1027 63.772 71.9796 63.772C71.8494 63.772 71.7357 63.7987 71.6387 63.8519C71.5416 63.9052 71.467 63.9804 71.415 64.0774C71.3629 64.1745 71.3368 64.2881 71.3368 64.4183H70.813C70.813 64.197 70.8639 64.0034 70.9657 63.8377C71.0675 63.672 71.2072 63.5436 71.3848 63.4524C71.5623 63.3601 71.7641 63.3139 71.9902 63.3139C72.2187 63.3139 72.4199 63.3595 72.5939 63.4506C72.7691 63.5406 72.9058 63.6637 73.0041 63.82C73.1023 63.975 73.1515 64.1502 73.1515 64.3455C73.1515 64.4805 73.126 64.6125 73.0751 64.7415C73.0254 64.8705 72.9384 65.0143 72.8141 65.1729C72.6898 65.3304 72.517 65.5215 72.2956 65.7464L71.573 66.5028V66.5295H73.21V67H70.8166Z" fill="#1F2F4C"/>
<path d="M39.1433 81.0909V92H37.492V82.7422H37.4281L34.818 84.4467V82.87L37.54 81.0909H39.1433Z" fill="#1F2F4C"/>
<path d="M33.9498 68V66.8068L37.6412 62.9822C38.0353 62.5668 38.3603 62.2028 38.6159 61.8903C38.8752 61.5742 39.0687 61.2741 39.1966 60.9901C39.3244 60.706 39.3883 60.4041 39.3883 60.0845C39.3883 59.7223 39.3031 59.4098 39.1326 59.147C38.9622 58.8807 38.7296 58.6765 38.4348 58.5344C38.1401 58.3888 37.8081 58.3161 37.4387 58.3161C37.0481 58.3161 36.7072 58.396 36.416 58.5558C36.1248 58.7156 35.9011 58.9411 35.7449 59.2322C35.5886 59.5234 35.5105 59.8643 35.5105 60.255H33.9391C33.9391 59.5909 34.0918 59.0103 34.3972 58.5131C34.7026 58.016 35.1216 57.6307 35.6543 57.3572C36.187 57.0803 36.7924 56.9418 37.4707 56.9418C38.1561 56.9418 38.7598 57.0785 39.2818 57.3519C39.8074 57.6218 40.2175 57.9911 40.5123 58.4599C40.807 58.9251 40.9544 59.4506 40.9544 60.0366C40.9544 60.4414 40.878 60.8374 40.7253 61.2244C40.5762 61.6115 40.3152 62.043 39.9423 62.5188C39.5694 62.9911 39.051 63.5646 38.3869 64.2393L36.2189 66.5085V66.5884H41.1301V68H33.9498Z" fill="#1F2F4C"/>
<path d="M62.5133 43.1491C61.7818 43.1491 61.1284 43.0231 60.5531 42.771C59.9814 42.5188 59.5286 42.169 59.1948 41.7216C58.8645 41.2706 58.687 40.7486 58.6621 40.1555H60.3347C60.356 40.4787 60.4643 40.7592 60.6596 40.9972C60.8585 41.2315 61.1177 41.4126 61.4373 41.5405C61.7569 41.6683 62.112 41.7322 62.5027 41.7322C62.9324 41.7322 63.3123 41.6577 63.6426 41.5085C63.9764 41.3594 64.2374 41.1516 64.4256 40.8853C64.6138 40.6154 64.7079 40.3047 64.7079 39.9531C64.7079 39.5874 64.6138 39.266 64.4256 38.989C64.2409 38.7085 63.9693 38.4883 63.6106 38.3285C63.2555 38.1687 62.8258 38.0888 62.3216 38.0888H61.4V36.7464H62.3216C62.7264 36.7464 63.0815 36.6737 63.3869 36.5281C63.6958 36.3825 63.9373 36.18 64.1113 35.9208C64.2853 35.658 64.3723 35.3509 64.3723 34.9993C64.3723 34.6619 64.296 34.369 64.1433 34.1204C63.9941 33.8683 63.7811 33.6712 63.5041 33.5291C63.2306 33.3871 62.9075 33.3161 62.5346 33.3161C62.1795 33.3161 61.8475 33.3817 61.5385 33.5131C61.2331 33.641 60.9846 33.8256 60.7928 34.0671C60.601 34.305 60.498 34.5909 60.4838 34.9247H58.8912C58.9089 34.3352 59.0829 33.8168 59.4132 33.3693C59.747 32.9219 60.1873 32.5721 60.7342 32.32C61.2811 32.0678 61.8883 31.9418 62.5559 31.9418C63.2555 31.9418 63.8592 32.0785 64.367 32.3519C64.8784 32.6218 65.2725 32.9822 65.5495 33.4332C65.8301 33.8842 65.9686 34.3778 65.965 34.9141C65.9686 35.5249 65.7981 36.0433 65.4537 36.4695C65.1127 36.8956 64.6582 37.1815 64.09 37.3271V37.4123C64.8145 37.5224 65.3755 37.81 65.7733 38.2752C66.1745 38.7404 66.3734 39.3175 66.3699 40.0064C66.3734 40.6065 66.2065 41.1445 65.8691 41.6204C65.5353 42.0962 65.079 42.4709 64.5002 42.7443C63.9213 43.0142 63.2591 43.1491 62.5133 43.1491Z" fill="#1F2F4C"/>
<path d="M62.5133 18.1491C61.7818 18.1491 61.1284 18.0231 60.5531 17.771C59.9814 17.5188 59.5286 17.169 59.1948 16.7216C58.8645 16.2706 58.687 15.7486 58.6621 15.1555H60.3347C60.356 15.4787 60.4643 15.7592 60.6596 15.9972C60.8585 16.2315 61.1177 16.4126 61.4373 16.5405C61.7569 16.6683 62.112 16.7322 62.5027 16.7322C62.9324 16.7322 63.3123 16.6577 63.6426 16.5085C63.9764 16.3594 64.2374 16.1516 64.4256 15.8853C64.6138 15.6154 64.7079 15.3047 64.7079 14.9531C64.7079 14.5874 64.6138 14.266 64.4256 13.989C64.2409 13.7085 63.9693 13.4883 63.6106 13.3285C63.2555 13.1687 62.8258 13.0888 62.3216 13.0888H61.4V11.7464H62.3216C62.7264 11.7464 63.0815 11.6737 63.3869 11.5281C63.6958 11.3825 63.9373 11.18 64.1113 10.9208C64.2853 10.658 64.3723 10.3509 64.3723 9.99929C64.3723 9.66193 64.296 9.36896 64.1433 9.12038C63.9941 8.86825 63.7811 8.67116 63.5041 8.52912C63.2306 8.38707 62.9075 8.31605 62.5346 8.31605C62.1795 8.31605 61.8475 8.38175 61.5385 8.51314C61.2331 8.64098 60.9846 8.82564 60.7928 9.06712C60.601 9.30504 60.498 9.59091 60.4838 9.92472H58.8912C58.9089 9.33523 59.0829 8.81676 59.4132 8.36932C59.747 7.92187 60.1873 7.57209 60.7342 7.31996C61.2811 7.06783 61.8883 6.94176 62.5559 6.94176C63.2555 6.94176 63.8592 7.07848 64.367 7.35192C64.8784 7.6218 65.2725 7.98224 65.5495 8.43324C65.8301 8.88423 65.9686 9.37784 65.965 9.91406C65.9686 10.5249 65.7981 11.0433 65.4537 11.4695C65.1127 11.8956 64.6582 12.1815 64.09 12.3271V12.4123C64.8145 12.5224 65.3755 12.81 65.7733 13.2752C66.1745 13.7404 66.3734 14.3175 66.3699 15.0064C66.3734 15.6065 66.2065 16.1445 65.8691 16.6204C65.5353 17.0962 65.079 17.4709 64.5002 17.7443C63.9213 18.0142 63.2591 18.1491 62.5133 18.1491Z" fill="#1F2F4C"/>
<path d="M8.94975 42.9999V41.8067L12.6412 37.9821C13.0353 37.5666 13.3603 37.2026 13.6159 36.8901C13.8752 36.5741 14.0687 36.274 14.1966 35.9899C14.3244 35.7058 14.3883 35.404 14.3883 35.0844C14.3883 34.7222 14.3031 34.4097 14.1326 34.1469C13.9622 33.8806 13.7296 33.6764 13.4348 33.5343C13.1401 33.3887 12.8081 33.3159 12.4387 33.3159C12.0481 33.3159 11.7072 33.3958 11.416 33.5556C11.1248 33.7154 10.9011 33.9409 10.7449 34.2321C10.5886 34.5233 10.5105 34.8642 10.5105 35.2548H8.9391C8.9391 34.5908 9.0918 34.0102 9.39719 33.513C9.70259 33.0159 10.1216 32.6306 10.6543 32.3571C11.187 32.0801 11.7924 31.9416 12.4707 31.9416C13.1561 31.9416 13.7598 32.0784 14.2818 32.3518C14.8074 32.6217 15.2175 32.991 15.5123 33.4597C15.807 33.9249 15.9544 34.4505 15.9544 35.0365C15.9544 35.4413 15.878 35.8372 15.7253 36.2243C15.5762 36.6114 15.3152 37.0428 14.9423 37.5187C14.5694 37.991 14.051 38.5645 13.3869 39.2392L11.2189 41.5084V41.5883H16.1301V42.9999H8.94975Z" fill="#1F2F4C"/>
<path d="M12.4993 93.1488C11.8317 93.1488 11.2316 93.021 10.6989 92.7653C10.1698 92.5061 9.7472 92.151 9.43115 91.7C9.1151 91.249 8.94642 90.7341 8.92512 90.1552H10.5231C10.5622 90.624 10.7699 91.0093 11.1464 91.3111C11.5228 91.613 11.9738 91.7639 12.4993 91.7639C12.9184 91.7639 13.2895 91.668 13.6126 91.4763C13.9393 91.2809 14.195 91.0128 14.3797 90.6719C14.5679 90.331 14.662 89.9422 14.662 89.5054C14.662 89.0615 14.5661 88.6655 14.3743 88.3175C14.1826 87.9695 13.918 87.6961 13.5807 87.4972C13.2468 87.2983 12.8633 87.1971 12.4301 87.1936C12.0998 87.1936 11.7678 87.2504 11.434 87.364C11.1002 87.4777 10.8303 87.6268 10.6243 87.8115L9.11688 87.5878L9.72945 82.0906H15.7273V83.5022H11.0984L10.7522 86.5544H10.8161C11.0292 86.3484 11.3115 86.1762 11.663 86.0377C12.0182 85.8992 12.3981 85.83 12.803 85.83C13.467 85.83 14.0583 85.988 14.5767 86.304C15.0988 86.6201 15.5089 87.0515 15.8072 87.5984C16.1091 88.1417 16.2582 88.7667 16.2547 89.4734C16.2582 90.1801 16.0984 90.8104 15.7753 91.3644C15.4557 91.9184 15.0118 92.3552 14.4436 92.6748C13.879 92.9908 13.2309 93.1488 12.4993 93.1488Z" fill="#1F2F4C"/>
<path d="M12.5133 68.149C11.7818 68.149 11.1284 68.0229 10.5531 67.7708C9.98136 67.5186 9.52859 67.1689 9.19478 66.7214C8.86452 66.2704 8.68697 65.7484 8.66211 65.1554H10.3347C10.356 65.4785 10.4643 65.759 10.6596 65.997C10.8585 66.2314 11.1177 66.4125 11.4373 66.5403C11.7569 66.6681 12.112 66.7321 12.5027 66.7321C12.9324 66.7321 13.3123 66.6575 13.6426 66.5083C13.9764 66.3592 14.2374 66.1515 14.4256 65.8851C14.6138 65.6152 14.7079 65.3045 14.7079 64.9529C14.7079 64.5872 14.6138 64.2658 14.4256 63.9888C14.2409 63.7083 13.9693 63.4881 13.6106 63.3283C13.2555 63.1685 12.8258 63.0886 12.3216 63.0886H11.4V61.7463H12.3216C12.7264 61.7463 13.0815 61.6735 13.3869 61.5279C13.6958 61.3823 13.9373 61.1799 14.1113 60.9206C14.2853 60.6578 14.3723 60.3507 14.3723 59.9991C14.3723 59.6617 14.296 59.3688 14.1433 59.1202C13.9941 58.8681 13.7811 58.671 13.5041 58.5289C13.2306 58.3869 12.9075 58.3159 12.5346 58.3159C12.1795 58.3159 11.8475 58.3816 11.5385 58.513C11.2331 58.6408 10.9846 58.8255 10.7928 59.0669C10.601 59.3049 10.498 59.5907 10.4838 59.9245H8.89116C8.90891 59.335 9.08292 58.8166 9.41317 58.3691C9.74698 57.9217 10.1873 57.5719 10.7342 57.3198C11.2811 57.0676 11.8883 56.9416 12.5559 56.9416C13.2555 56.9416 13.8592 57.0783 14.367 57.3517C14.8784 57.6216 15.2725 57.9821 15.5495 58.4331C15.8301 58.884 15.9686 59.3777 15.965 59.9139C15.9686 60.5247 15.7981 61.0431 15.4537 61.4693C15.1127 61.8954 14.6582 62.1813 14.09 62.3269V62.4121C14.8145 62.5222 15.3755 62.8098 15.7733 63.275C16.1745 63.7402 16.3734 64.3173 16.3699 65.0062C16.3734 65.6064 16.2065 66.1443 15.8691 66.6202C15.5353 67.0961 15.079 67.4707 14.5002 67.7441C13.9213 68.014 13.2591 68.149 12.5133 68.149Z" fill="#1F2F4C"/>
<path d="M89.1433 7.09091V18H87.492V8.74219H87.4281L84.818 10.4467V8.87003L87.54 7.09091H89.1433Z" fill="#1F2F4C"/>
<path d="M87.4088 30.9418C87.8953 30.9453 88.3747 31.0341 88.847 31.2081C89.3193 31.3821 89.7454 31.6662 90.1254 32.0604C90.5089 32.4545 90.8143 32.9872 91.0416 33.6584C91.2724 34.326 91.3896 35.157 91.3932 36.1513C91.3932 37.1065 91.2973 37.957 91.1055 38.7028C90.9138 39.445 90.6385 40.0717 90.2799 40.5831C89.9248 41.0945 89.4933 41.4833 88.9855 41.7496C88.4777 42.016 87.9059 42.1491 87.2703 42.1491C86.6204 42.1491 86.0434 42.0213 85.5391 41.7656C85.0348 41.5099 84.6247 41.1566 84.3086 40.7056C83.9926 40.2511 83.7955 39.729 83.7174 39.1396H85.342C85.4486 39.6083 85.6652 39.9883 85.9919 40.2795C86.3221 40.5671 86.7483 40.7109 87.2703 40.7109C88.0693 40.7109 88.6925 40.3629 89.14 39.6669C89.5874 38.9673 89.8129 37.9908 89.8165 36.7372H89.7312C89.5466 37.0426 89.3157 37.3054 89.0388 37.5256C88.7653 37.7457 88.4581 37.9162 88.1172 38.0369C87.7763 38.1577 87.4123 38.218 87.0253 38.218C86.3967 38.218 85.825 38.0636 85.3101 37.7546C84.7951 37.4457 84.385 37.0213 84.0796 36.4815C83.7742 35.9418 83.6215 35.3256 83.6215 34.6332C83.6215 33.9442 83.7777 33.3192 84.0902 32.7582C84.4063 32.1971 84.8466 31.7532 85.4113 31.4265C85.9794 31.0962 86.6453 30.9347 87.4088 30.9418ZM87.4141 32.3267C86.9986 32.3267 86.624 32.4297 86.2902 32.6357C85.9599 32.8381 85.6989 33.1133 85.5071 33.4613C85.3154 33.8058 85.2195 34.1893 85.2195 34.6119C85.2195 35.0344 85.3118 35.418 85.4965 35.7624C85.6847 36.1033 85.9404 36.375 86.2635 36.5774C86.5902 36.7763 86.9631 36.8757 87.3821 36.8757C87.6946 36.8757 87.9858 36.8153 88.2557 36.6946C88.5256 36.5739 88.7618 36.407 88.9642 36.1939C89.1666 35.9773 89.3246 35.7322 89.4383 35.4588C89.5519 35.1854 89.6087 34.8977 89.6087 34.5959C89.6087 34.1946 89.5128 33.8217 89.3211 33.4773C89.1329 33.1328 88.8736 32.8558 88.5434 32.6463C88.2131 32.4332 87.8367 32.3267 87.4141 32.3267Z" fill="#1F2F4C"/>
<path fill-rule="evenodd" clip-rule="evenodd" d="M100 24.9999L25 25L25 24L100 23.9999L100 24.9999Z" fill="#1F2F4C"/>
<path fill-rule="evenodd" clip-rule="evenodd" d="M100 74.9997L25 74.9997L25 73.9997L100 73.9997L100 74.9997Z" fill="#1F2F4C"/>
<path fill-rule="evenodd" clip-rule="evenodd" d="M49.75 100L49.5 25.0016L50.5 24.9982L50.75 99.9971L49.75 100Z" fill="#1F2F4C"/>
<path fill-rule="evenodd" clip-rule="evenodd" d="M100 49.9998L25 49.9998L25 48.9998L100 48.9998L100 49.9998Z" fill="#1F2F4C"/>
<path fill-rule="evenodd" clip-rule="evenodd" d="M74.75 100L74.5 25.0016L75.5 24.9982L75.75 99.9971L74.75 100Z" fill="#1F2F4C"/>
<path fill-rule="evenodd" clip-rule="evenodd" d="M24.75 100L24.5 24.0016L25.5 23.9984L25.75 99.9971L24.75 100Z" fill="#1F2F4C"/>
<path d="M85.2484 30.972C85.2639 31.1092 85.1652 31.2329 85.028 31.2484L82.7923 31.5009C82.6551 31.5163 82.5313 31.4177 82.5158 31.2805C82.5003 31.1433 82.599 31.0195 82.7362 31.004L84.7235 30.7796L84.4991 28.7923C84.4837 28.6551 84.5823 28.5313 84.7195 28.5158C84.8567 28.5003 84.9805 28.599 84.996 28.7362L85.2484 30.972ZM38.8442 30.8045C39.0942 30.6052 39.3683 30.4066 39.6671 30.2097L39.9422 30.6272C39.655 30.8164 39.3932 31.0063 39.1558 31.1955L38.8442 30.8045ZM40.5333 29.6836C41.0734 29.3805 41.6763 29.0837 42.3446 28.7976L42.5413 29.2573C41.8879 29.537 41.3012 29.826 40.7781 30.1196L40.5333 29.6836ZM43.2776 28.4218C43.8671 28.1983 44.5006 27.9831 45.1794 27.7785L45.3237 28.2572C44.6554 28.4587 44.0329 28.6702 43.4549 28.8893L43.2776 28.4218ZM46.1466 27.5027C46.7611 27.337 47.4091 27.1798 48.0915 27.0326L48.1969 27.5214C47.5225 27.6669 46.8827 27.8221 46.2768 27.9854L46.1466 27.5027ZM49.0745 26.8322C49.7039 26.7111 50.3602 26.5982 51.0442 26.4946L51.1191 26.9889C50.4414 27.0916 49.7916 27.2033 49.169 27.3232L49.0745 26.8322ZM52.0338 26.3538C52.6729 26.2687 53.3346 26.1914 54.0194 26.1228L54.0693 26.6203C53.3897 26.6884 52.7334 26.765 52.0998 26.8495L52.0338 26.3538ZM55.0144 26.0305C55.659 25.9756 56.3231 25.928 57.0069 25.8885L57.0357 26.3877C56.3564 26.427 55.6969 26.4742 55.0568 26.5287L55.0144 26.0305ZM58.0041 25.8373C58.6526 25.8081 59.3179 25.7859 60.0005 25.7712L60.0113 26.2711C59.3325 26.2857 58.6711 26.3077 58.0267 26.3368L58.0041 25.8373ZM60.9998 25.7552C61.3293 25.7518 61.6627 25.75 62 25.75V26.25C61.6645 26.25 61.3328 26.2517 61.0051 26.2552L60.9998 25.7552ZM62 25.75C62.3373 25.75 62.6707 25.7518 63.0002 25.7552L62.9949 26.2552C62.6672 26.2517 62.3355 26.25 62 26.25V25.75ZM63.9995 25.7712C64.6821 25.7859 65.3474 25.8081 65.9959 25.8373L65.9733 26.3368C65.3289 26.3077 64.6675 26.2857 63.9887 26.2711L63.9995 25.7712ZM66.9931 25.8885C67.6769 25.928 68.341 25.9756 68.9856 26.0305L68.9432 26.5287C68.3031 26.4742 67.6436 26.427 66.9643 26.3877L66.9931 25.8885ZM69.9806 26.1228C70.6654 26.1914 71.3271 26.2687 71.9662 26.3538L71.9002 26.8495C71.2666 26.765 70.6103 26.6884 69.9307 26.6203L69.9806 26.1228ZM72.9558 26.4946C73.6398 26.5982 74.2961 26.7111 74.9255 26.8322L74.831 27.3232C74.2084 27.2033 73.5586 27.0916 72.8809 26.9889L72.9558 26.4946ZM75.9085 27.0326C76.5909 27.1798 77.2389 27.337 77.8534 27.5027L77.7232 27.9854C77.1173 27.8221 76.4775 27.6669 75.8031 27.5214L75.9085 27.0326ZM78.8206 27.7785C79.4994 27.9831 80.1329 28.1983 80.7224 28.4218L80.5451 28.8893C79.9671 28.6702 79.3446 28.4587 78.6763 28.2572L78.8206 27.7785ZM81.6554 28.7976C82.3237 29.0837 82.9266 29.3805 83.4667 29.6836L83.222 30.1196C82.6988 29.826 82.1121 29.537 81.4587 29.2573L81.6554 28.7976ZM84.3329 30.2097C84.6317 30.4066 84.9058 30.6052 85.1558 30.8045L84.8442 31.1955C84.6068 31.0063 84.345 30.8165 84.0578 30.6272L84.3329 30.2097ZM85.4968 30.9439C85.5278 31.2183 85.3305 31.4659 85.0561 31.4968L80.5845 32.0017C80.3101 32.0327 80.0625 31.8354 80.0316 31.561C80.0006 31.2866 80.1979 31.039 80.4723 31.008L84.4471 30.5593L83.9983 26.5845C83.9673 26.3101 84.1646 26.0625 84.439 26.0316C84.7134 26.0006 84.961 26.1979 84.992 26.4723L85.4968 30.9439ZM38.6883 30.609C38.9446 30.4047 39.2249 30.2017 39.5295 30.001L40.0797 30.836C39.7984 31.0214 39.5427 31.2068 39.3117 31.391L38.6883 30.609ZM40.4109 29.4656C40.9595 29.1577 41.5705 28.857 42.2462 28.5678L42.6397 29.4871C41.9937 29.7636 41.4151 30.0487 40.9004 30.3376L40.4109 29.4656ZM43.189 28.188C43.7843 27.9624 44.4233 27.7453 45.1073 27.5391L45.3959 28.4965C44.7327 28.6964 44.1158 28.9061 43.5435 29.1231L43.189 28.188ZM46.0815 27.2613C46.7003 27.0945 47.3524 26.9363 48.0388 26.7882L48.2496 27.7657C47.5791 27.9104 46.9435 28.0646 46.3418 28.2268L46.0815 27.2613ZM49.0273 26.5867C49.66 26.4649 50.3196 26.3515 51.0068 26.2474L51.1565 27.2361C50.482 27.3383 49.8355 27.4495 49.2163 27.5687L49.0273 26.5867ZM52.0008 26.106C52.6426 26.0205 53.3071 25.9429 53.9945 25.874L54.0942 26.869C53.4173 26.9369 52.7636 27.0132 52.1328 27.0973L52.0008 26.106ZM54.9931 25.7814C55.6401 25.7263 56.3065 25.6786 56.9925 25.639L57.0501 26.6373C56.373 26.6764 55.7158 26.7234 55.0781 26.7778L54.9931 25.7814ZM57.9929 25.5876C58.6433 25.5582 59.3106 25.536 59.9951 25.5213L60.0167 26.521C59.3398 26.5356 58.6804 26.5576 58.0379 26.5865L57.9929 25.5876ZM60.9972 25.5052C61.3276 25.5018 61.6619 25.5 62 25.5V26.5C61.6653 26.5 61.3346 26.5017 61.0077 26.5052L60.9972 25.5052ZM62 25.5C62.3381 25.5 62.6724 25.5018 63.0028 25.5052L62.9923 26.5052C62.6654 26.5017 62.3347 26.5 62 26.5V25.5ZM64.0049 25.5213C64.6894 25.536 65.3567 25.5582 66.0071 25.5876L65.9621 26.5865C65.3196 26.5576 64.6602 26.5356 63.9833 26.521L64.0049 25.5213ZM67.0075 25.639C67.6935 25.6786 68.3599 25.7263 69.0069 25.7814L68.9219 26.7778C68.2842 26.7234 67.627 26.6764 66.9499 26.6373L67.0075 25.639ZM70.0055 25.874C70.6929 25.9429 71.3574 26.0205 71.9992 26.106L71.8672 27.0973C71.2364 27.0132 70.5827 26.9369 69.9058 26.869L70.0055 25.874ZM72.9932 26.2474C73.6804 26.3515 74.34 26.4649 74.9727 26.5867L74.7838 27.5687C74.1645 27.4495 73.518 27.3383 72.8435 27.2361L72.9932 26.2474ZM75.9613 26.7882C76.6476 26.9363 77.2997 27.0945 77.9185 27.2613L77.6582 28.2268C77.0565 28.0646 76.4209 27.9104 75.7504 27.7657L75.9613 26.7882ZM78.8927 27.5391C79.5768 27.7453 80.2157 27.9624 80.811 28.188L80.4565 29.1231C79.8842 28.9061 79.2673 28.6965 78.6041 28.4966L78.8927 27.5391ZM81.7538 28.5678C82.4296 28.857 83.0405 29.1577 83.5891 29.4656L83.0996 30.3376C82.5849 30.0487 82.0063 29.7636 81.3603 29.4871L81.7538 28.5678ZM84.4705 30.001C84.7751 30.2017 85.0554 30.4047 85.3117 30.609L84.6883 31.391C84.4573 31.2068 84.2016 31.0214 83.9203 30.836L84.4705 30.001Z" fill="#1F2F4C"/>
<path d="M68 62.25C67.8619 62.25 67.75 62.1381 67.75 62V59.75C67.75 59.6119 67.8619 59.5 68 59.5C68.1381 59.5 68.25 59.6119 68.25 59.75V61.75H70.25C70.3881 61.75 70.5 61.8619 70.5 62C70.5 62.1381 70.3881 62.25 70.25 62.25H68ZM68.1768 35.8232C68.3889 36.0354 68.6125 36.2681 68.8427 36.523L68.4716 36.8581C68.2479 36.6103 68.0303 36.3838 67.8232 36.1768L68.1768 35.8232ZM69.4715 37.26C69.8461 37.7254 70.2265 38.2496 70.5945 38.8395L70.1703 39.1041C69.8138 38.5328 69.4452 38.0248 69.082 37.5735L69.4715 37.26ZM71.0832 39.6784C71.3744 40.215 71.6515 40.7982 71.9043 41.4319L71.4398 41.6171C71.1946 41.0023 70.9259 40.4368 70.6437 39.9169L71.0832 39.6784ZM72.2374 42.3413C72.4328 42.9243 72.6067 43.5455 72.753 44.2071L72.2648 44.315C72.1223 43.6707 71.9531 43.0665 71.7633 42.5001L72.2374 42.3413ZM72.9383 45.1552C73.0417 45.7626 73.1221 46.4012 73.1754 47.0726L72.6769 47.1121C72.6249 46.4554 72.5463 45.8316 72.4454 45.2392L72.9383 45.1552ZM73.2317 48.0337C73.2438 48.349 73.25 48.6711 73.25 49H72.75C72.75 48.6774 72.7439 48.3617 72.732 48.0529L73.2317 48.0337ZM73.25 49C73.25 49.3289 73.2438 49.651 73.2317 49.9663L72.732 49.9471C72.7439 49.6383 72.75 49.3226 72.75 49H73.25ZM73.1754 50.9274C73.1221 51.5988 73.0417 52.2374 72.9383 52.8448L72.4454 52.7608C72.5463 52.1684 72.6249 51.5446 72.6769 50.8879L73.1754 50.9274ZM72.753 53.7929C72.6067 54.4545 72.4328 55.0757 72.2374 55.6587L71.7633 55.4999C71.9531 54.9335 72.1223 54.3293 72.2648 53.685L72.753 53.7929ZM71.9043 56.5681C71.6515 57.2018 71.3744 57.785 71.0832 58.3216L70.6437 58.0831C70.9259 57.5632 71.1946 56.9977 71.4398 56.3829L71.9043 56.5681ZM70.5945 59.1605C70.2265 59.7504 69.8461 60.2746 69.4715 60.74L69.082 60.4265C69.4452 59.9752 69.8138 59.4672 70.1703 58.8959L70.5945 59.1605ZM68.8427 61.477C68.6125 61.7319 68.3889 61.9646 68.1768 62.1768L67.8232 61.8232C68.0303 61.6162 68.2479 61.3897 68.4716 61.1419L68.8427 61.477ZM68 62.5C67.7239 62.5 67.5 62.2761 67.5 62V57.5C67.5 57.2239 67.7239 57 68 57C68.2761 57 68.5 57.2239 68.5 57.5V61.5H72.5C72.7761 61.5 73 61.7239 73 62C73 62.2761 72.7761 62.5 72.5 62.5H68ZM68.3536 35.6464C68.5682 35.8611 68.7948 36.0969 69.0283 36.3555L68.2861 37.0256C68.0656 36.7815 67.851 36.5581 67.6464 36.3536L68.3536 35.6464ZM69.6663 37.1032C70.0465 37.5757 70.4328 38.108 70.8066 38.7072L69.9582 39.2365C69.6075 38.6743 69.2448 38.1745 68.8872 37.7302L69.6663 37.1032ZM71.3029 39.5591C71.5987 40.1041 71.88 40.6962 72.1365 41.3393L71.2076 41.7098C70.9661 41.1043 70.7017 40.5477 70.424 40.0361L71.3029 39.5591ZM72.4745 42.2619C72.6726 42.8533 72.8489 43.4829 72.9971 44.1531L72.0207 44.369C71.8801 43.7332 71.7132 43.1376 71.5263 42.5795L72.4745 42.2619ZM73.1847 45.1132C73.2895 45.7281 73.3708 46.3741 73.4246 47.0528L72.4277 47.1318C72.3762 46.4825 72.2986 45.8662 72.1989 45.2812L73.1847 45.1132ZM73.4815 48.0241C73.4937 48.3427 73.5 48.6679 73.5 49H72.5C72.5 48.6805 72.4939 48.3681 72.4822 48.0625L73.4815 48.0241ZM73.5 49C73.5 49.3321 73.4937 49.6573 73.4815 49.9759L72.4822 49.9375C72.4939 49.6319 72.5 49.3195 72.5 49H73.5ZM73.4246 50.9472C73.3708 51.6259 73.2895 52.2719 73.1847 52.8868L72.1989 52.7188C72.2986 52.1338 72.3762 51.5175 72.4277 50.8682L73.4246 50.9472ZM72.9971 53.8469C72.8489 54.5171 72.6726 55.1467 72.4745 55.7381L71.5263 55.4205C71.7132 54.8624 71.8801 54.2668 72.0207 53.631L72.9971 53.8469ZM72.1365 56.6607C71.88 57.3038 71.5987 57.8959 71.3029 58.4409L70.424 57.9639C70.7017 57.4523 70.9661 56.8957 71.2076 56.2902L72.1365 56.6607ZM70.8066 59.2928C70.4328 59.892 70.0465 60.4243 69.6663 60.8968L68.8872 60.2698C69.2448 59.8255 69.6075 59.3257 69.9582 58.7635L70.8066 59.2928ZM69.0283 61.6445C68.7948 61.9031 68.5682 62.1389 68.3536 62.3536L67.6464 61.6464C67.851 61.4419 68.0656 61.2185 68.2861 60.9744L69.0283 61.6445Z" fill="#1F2F4C"/>
<path fill-rule="evenodd" clip-rule="evenodd" d="M68.4032 63.7043C68.5892 63.9579 68.7741 64.2331 68.9571 64.5303L68.7443 64.6615L68.3185 64.9237L68.1057 65.0548C67.9357 64.7788 67.7657 64.526 67.5968 64.2957L67.7984 64.1479L68.2016 63.8522L68.4032 63.7043ZM69.4473 65.3881C69.7312 65.9226 70.0095 66.5143 70.2788 67.1652L70.0478 67.2608L69.5858 67.452L69.3548 67.5475C69.0966 66.9235 68.8318 66.361 68.5642 65.8574L68.7849 65.7401L69.2265 65.5054L69.4473 65.3881ZM70.6334 68.0716C70.8459 68.6456 71.0516 69.2599 71.2486 69.9157L71.0092 69.9876L70.5304 70.1315L70.2909 70.2035C70.0995 69.5664 69.9004 68.972 69.6956 68.4187L69.9301 68.3319L70.399 68.1584L70.6334 68.0716ZM71.5155 70.8492C71.6772 71.4442 71.8321 72.0702 71.9789 72.728L71.7349 72.7825L71.2469 72.8914L71.0029 72.9458C70.8593 72.3022 70.7081 71.6911 70.5505 71.1115L70.7918 71.0459L71.2742 70.9148L71.5155 70.8492ZM72.1796 73.673C72.3024 74.281 72.4186 74.9141 72.5272 75.573L72.2805 75.6137L71.7871 75.695L71.5405 75.7356C71.4338 75.0882 71.3198 74.4668 71.1994 73.8711L71.4445 73.8215L71.9345 73.7225L72.1796 73.673ZM72.6763 76.5264C72.7675 77.1421 72.8524 77.779 72.9302 78.4373L72.6819 78.4667L72.1854 78.5254L71.9371 78.5547C71.8604 77.9058 71.7769 77.2787 71.6871 76.673L71.9344 76.6363L72.429 76.563L72.6763 76.5264ZM73.0367 79.3944C73.1016 80.015 73.1603 80.6539 73.2125 81.3111L72.9633 81.3309L72.4649 81.3705L72.2157 81.3903C72.1641 80.7411 72.1061 80.1106 72.0421 79.4983L72.2907 79.4724L72.788 79.4204L73.0367 79.3944ZM73.2832 82.2709C73.3256 82.896 73.3622 83.537 73.3926 84.1941L73.1429 84.2057L72.6434 84.2288L72.3937 84.2404C72.3636 83.5902 72.3274 82.9564 72.2855 82.3386L72.5349 82.3217L73.0337 82.2879L73.2832 82.2709ZM73.4322 85.1551C73.4549 85.7805 73.472 86.4201 73.4834 87.0739L73.2335 87.0783L72.7336 87.087L72.4836 87.0914C72.4723 86.4437 72.4553 85.8104 72.4329 85.1913L72.6827 85.1823L73.1824 85.1642L73.4322 85.1551ZM73.4959 88.0359C73.4986 88.354 73.5 88.6754 73.5 89C73.5 89.3247 73.4986 89.6461 73.4959 89.9642L73.2459 89.962L72.7459 89.9577L72.4959 89.9556C72.4986 89.6404 72.5 89.3219 72.5 89C72.5 88.6782 72.4986 88.3597 72.4959 88.0444L72.7459 88.0423L73.2459 88.038L73.4959 88.0359ZM73.4834 90.9261C73.472 91.58 73.4549 92.2195 73.4322 92.8449L73.1824 92.8359L72.6827 92.8178L72.4329 92.8087C72.4553 92.1897 72.4723 91.5564 72.4836 90.9087L72.7336 90.9131L73.2335 90.9218L73.4834 90.9261ZM73.3926 93.8059C73.3622 94.4631 73.3256 95.1041 73.2832 95.7291L73.0337 95.7122L72.5349 95.6783L72.2855 95.6614C72.3274 95.0437 72.3636 94.4099 72.3937 93.7597L72.6434 93.7712L73.1429 93.7944L73.3926 93.8059ZM73.2125 96.6889C73.1603 97.3462 73.1016 97.985 73.0367 98.6057L72.788 98.5797L72.2907 98.5277L72.0421 98.5017C72.1061 97.8895 72.1641 97.2589 72.2157 96.6097L72.4649 96.6295L72.9633 96.6691L73.2125 96.6889ZM72.8771 100C72.8951 99.8553 72.9128 99.7096 72.9302 99.5627L72.6819 99.5334L72.1854 99.4747L71.9371 99.4453C71.915 99.632 71.8924 99.8169 71.8692 100H72.8771Z" fill="#1F2F4C"/>
</svg>
